<?xml version="1.0" encoding="utf-8"?>
<!-- Generator: Adobe Illustrator 18.0.0, SVG Export Plug-In . SVG Version: 6.00 Build 0)  -->
<!DOCTYPE svg PUBLIC "-//W3C//DTD SVG 1.1//EN" "http://www.w3.org/Graphics/SVG/1.1/DTD/svg11.dtd">
<svg version="1.1" id="Warstwa_1" xmlns="http://www.w3.org/2000/svg" xmlns:xlink="http://www.w3.org/1999/xlink" x="0px" y="0px"
	 viewBox="0 0 85 85" enable-background="new 0 0 85 85" xml:space="preserve">
<g>
	<path fill="#FFFFFF" d="M59.8,37.7c-1.9-3.8,0.8-6.1,1-8c1-8.9-2.1-14.7-6.3-19c-6.9-7.2-15.8-8.6-21.5-8.6
		C18.1,2.3,12.2,6.8,7.6,11.8c-9.5,10.5-7.4,19.8-7.4,19.8C0.4,37.1,8,47,8,47c6.1,8.8,3,15.4,3,15.4C23.2,65.1,33.1,83,33.1,83
		c0.4-2.7,6.3-13.7,6.3-13.7c2.5-3,6.5-1.9,8.8-1.7c6.3,0.8,8-1.1,8-1.1c1.3-0.8,0.8-4.4,0.8-4.4c-0.6-1.9,0.4-2.7,0.8-3.4
		c1.3-1.9,0.6-2.9,0.6-2.9c-0.4-0.6-0.2-0.8-0.2-0.8c1.5-0.6,1.7-1.3,1.7-1.3v-2.9c-0.2-1.9,0.6-2.1,0.6-2.1c3.4,0,3.4-2.3,3.4-2.3
		C64,45.1,59.8,37.7,59.8,37.7z M54.8,21.7c-0.2,1.7-1.3,3-2.7,4.4c-4.2,4.2-12,0.6-17.7,4.8c-2.3,1.7-1.3,8.2-7.2,8
		c-0.4,0-0.8,0-1.1,0c-2.5,2.7-2.7,6.1-7.8,5.9C10.9,44.5,5,38.2,5,30.4c0-0.2,0-0.6,0-0.8c0-2.1,0.4-8.2,6.5-15
		c3.8-4.2,8.6-8.4,22.5-8.4c5.1,0,12.4,1.3,18.1,7.2C54.2,15.6,55.4,17.3,54.8,21.7z"/>
	<g>
		<g>
			<path fill="#FFFFFF" d="M66.1,15.5c0-5.2,2.1-10,5.5-13.4L74,4.5c-2.8,2.8-4.6,6.7-4.6,11c0,4.3,1.8,8.2,4.6,11L72,29.2
				C68.4,25.8,66.1,20.9,66.1,15.5z"/>
			<path fill="#FFFFFF" d="M73,15.5c0-3.8,1.7-7.1,4.4-9.3l2.5,2.5c-2.1,1.6-3.4,4.1-3.4,6.9s1.4,5.3,3.4,6.9l-2.5,2.5
				C74.7,22.6,73,19.2,73,15.5z"/>
			<path fill="#FFFFFF" d="M79.9,15.5c0-2.3,1.5-4.3,3.6-4.9l1.6,3.2c-1,0-1.7,0.8-1.7,1.7s0.8,1.7,1.7,1.7l-1.6,3.2
				C81.4,19.7,79.9,17.7,79.9,15.5z"/>
		</g>
	</g>
	<g>
		<g>
			<path fill="#FFFFFF" d="M29.2,23.9l-2.7,0.8l-0.1-0.3c-0.1-0.5-0.2-0.8-0.2-1.2s0.1-0.6,0.2-0.9c0.1-0.3,0.5-0.8,1-1.7
				c0.3-0.4,0.4-0.8,0.3-1c-0.1-0.3-0.2-0.4-0.4-0.5c-0.2-0.1-0.5-0.1-0.8,0c-0.3,0.1-0.6,0.3-0.7,0.6c-0.2,0.3-0.2,0.7-0.1,1.3
				L23,21.4c-0.2-1-0.1-2,0.4-2.8c0.5-0.8,1.4-1.4,2.7-1.8c1-0.3,1.9-0.3,2.7-0.1c1,0.3,1.7,1,2,2c0.1,0.4,0.1,0.8,0,1.3
				c-0.1,0.4-0.4,1-1,1.8c-0.4,0.5-0.6,0.9-0.6,1.2C29.1,23.2,29.1,23.6,29.2,23.9z M26.6,25.5l2.9-0.8l0.7,2.6L27.3,28L26.6,25.5z"
				/>
		</g>
		<g>
			<path fill="#FFFFFF" d="M19.4,26.7l-2.7,0.8l-0.1-0.3c-0.1-0.5-0.2-0.8-0.2-1.2c0-0.3,0.1-0.6,0.2-0.9c0.1-0.3,0.5-0.8,1-1.7
				c0.3-0.4,0.4-0.8,0.3-1s-0.2-0.4-0.4-0.5c-0.2-0.1-0.5-0.1-0.8,0c-0.3,0.1-0.6,0.3-0.7,0.6c-0.2,0.3-0.2,0.7-0.1,1.3l-2.9,0.5
				c-0.2-1-0.1-2,0.4-2.8c0.5-0.8,1.4-1.4,2.7-1.8c1-0.3,1.9-0.3,2.7-0.1c1,0.3,1.7,1,2,2c0.1,0.4,0.1,0.8,0,1.3
				c-0.1,0.4-0.4,1-1,1.8c-0.4,0.5-0.6,0.9-0.6,1.2S19.3,26.4,19.4,26.7z M16.8,28.3l2.9-0.8l0.7,2.6l-2.9,0.8L16.8,28.3z"/>
		</g>
		<g>
			<path fill="#FFFFFF" d="M39,21.1l-2.7,0.8l-0.1-0.3C36,21.2,36,20.8,36,20.5s0.1-0.6,0.2-0.9c0.1-0.3,0.5-0.8,1-1.7
				c0.3-0.4,0.4-0.8,0.3-1s-0.2-0.4-0.4-0.5s-0.5-0.1-0.8,0c-0.3,0.1-0.6,0.3-0.7,0.6s-0.2,0.7-0.1,1.3l-2.9,0.5
				c-0.2-1-0.1-2,0.4-2.8c0.5-0.8,1.4-1.4,2.7-1.8c1-0.3,1.9-0.3,2.7-0.1c1,0.3,1.7,1,2,2c0.1,0.4,0.1,0.8,0,1.3
				c-0.1,0.4-0.4,1-1,1.8c-0.4,0.5-0.6,0.9-0.6,1.2C38.8,20.4,38.9,20.7,39,21.1z M36.4,22.6l2.9-0.8l0.7,2.6l-2.9,0.8L36.4,22.6z"
				/>
		</g>
	</g>
</g>
</svg>
