<svg id="Component_3_1" data-name="Component 3 – 1" xmlns="http://www.w3.org/2000/svg" width="169.307" height="74.182" viewBox="0 0 169.307 74.182">
  <path id="Vector_13_" data-name="Vector (13)" d="M9.513,6.7C15.718.025,27.039,2.3,35.171,2.112c9.663-.221,19.207-.463,28.85-.829,9.68-.368,18.518.548,28.087.84,11.946.364,23.271-1.895,35.169-1.888,10.512.005,23.158,1.3,31.38,4.382,15.189,5.686,12.184,15.951,5.686,23.106-5.179,5.7-12.318,12.707-9.649,19.036,1.465,3.476,7.43,6.1,5.5,9.76-5.89,11.193-27.75,19.533-54.28,17.624-7.7-.554-35.343-2.3-43.691-3.39C38.747,67.688,23.194,61.2,19.517,50.1,17.023,42.567,1.876,34.83.49,27.357-.556,21.723,4.765,11.81,9.513,6.7Z" transform="translate(-0.357 -0.234)" fill="#c1dee6" fill-rule="evenodd"/>
  <path id="exercise30" d="M96.2,39.9H82.4V24.6H66.7V13.4H-11.1V40.7H66.7V29.5H77.6V55.6H66.7V44.4H-11.1V71.7H66.7V60.5H82.5V44.8H96.3V39.9ZM62.6,35.8H-7.1V18.3H62.7V35.8Zm0,31H-7.1V49.3H62.7V66.8Z" transform="translate(51.1 -9.479)"/>
</svg>
