<svg width="178" height="174" viewBox="0 0 178 174" fill="none" xmlns="http://www.w3.org/2000/svg">
<path fill-rule="evenodd" clip-rule="evenodd" d="M0.112738 54.9275C-0.581072 65.2069 2.01851 75.9419 5.40879 85.5853C11.0469 101.623 22.5006 114.979 27.2893 131.392C31.4991 145.817 29.3394 155.194 42.2859 165.131C55.5275 175.295 72.5044 176.524 87.0088 167.319C109.036 153.34 121.374 128.574 146.021 118.037C151.482 115.702 162.987 113.958 166.986 109.358C170.605 105.195 171.362 93.0411 172.377 87.5875C174.493 76.2174 179.218 66.4918 176.699 54.8194C175.48 49.1705 172.46 44.3667 171.957 38.553C171.5 33.2765 171.596 29.5838 168.053 25.0731C159.197 13.8019 144.027 16.6662 132.515 10.3646C116.275 1.47425 105.174 -2.054 86.4681 1.1797C69.1053 4.18099 52.2366 10.1126 34.7206 10.485C9.20566 11.0271 0.505636 49.1064 0.112738 54.9275Z" fill="#C1DEE6"/>
<path fill-rule="evenodd" clip-rule="evenodd" d="M124.332 56.0672C123.864 48.1559 121.62 32.5539 113.731 25.242C111.67 23.3289 103.195 15.2605 91.6531 19.7953C85.9945 22.0176 83.21 26.315 79.0505 30.3678C75.5629 33.7576 74.4684 34.858 69.5011 34.9872C65.3661 35.0958 60.7629 30.7548 57.2767 28.2585C53.4735 25.5356 47.7346 21.7284 42.5981 21.7754C36.5246 21.8292 31.3611 22.799 26.9409 27.4022C24.1965 30.2626 21.9981 39.403 21.8034 43.1818C20.8419 61.7649 28.2947 78.16 29.5737 81.0203C34.5048 92.0504 44.591 100.628 48.493 104.179C55.0671 110.17 64.2422 115.19 71.6408 118.519C71.6447 118.519 71.6408 118.519 71.6408 118.519C72.5161 118.912 74.2917 118.488 75.0951 118.827C75.7581 118.117 76.724 117.13 77.9384 115.92C77.041 115.679 76.1549 115.408 75.2825 115.11C73.6473 114.548 72.0586 113.87 70.5423 113.06C68.2113 111.813 62.6496 108.744 57.5713 104.8C50.7012 99.4655 44.2206 92.9918 43.1657 91.6012C40.4961 88.0822 37.2404 84.3284 35.4569 80.2438C33.9656 76.8291 33.0575 73.295 31.5876 69.8695C30.3595 66.9988 27.9429 52.7048 27.9067 51.3357C27.8563 49.4667 26.3836 36.546 32.4459 29.6045C35.3713 26.2617 46.6851 27.3778 48.6227 28.4302C51.4508 29.9607 53.886 32.0177 56.5952 33.7287C61.3143 36.7041 70.4674 43.7214 76.3815 39.3232C78.2833 37.9111 90.6423 25.7049 90.6711 25.6907C97.9689 21.588 104.212 25.2063 108.387 28.1058C110.768 29.7596 112.443 32.5084 114.208 34.7699C115.704 36.683 118.171 45.0944 118.473 47.0354C118.686 48.3902 120.4 65.2266 120.562 70.6372C120.577 71.0584 120.585 71.4831 120.585 71.9088C120.595 73.0215 120.571 74.1454 120.524 75.2732C121.892 73.9834 123.707 72.2474 124.979 71.0521C125.006 69.9316 124.66 61.6118 124.332 56.0672ZM119.787 84.051C119.582 85.8628 119.366 87.6492 119.168 89.3823C119.157 89.4787 119.146 89.5731 119.135 89.67C118.573 94.5942 112.248 109.18 104.561 114.194C100.033 117.148 94.6725 118.11 89.2586 117.756C88.8549 117.735 88.4483 117.699 88.0446 117.659C87.047 117.558 86.042 117.444 85.0375 117.306C83.9278 118.516 82.7285 119.914 81.475 121.157C81.5038 121.167 81.5361 121.175 81.565 121.182C82.1164 121.33 82.3929 122.264 84.0237 122.379C89.6221 122.779 101.619 122.827 105.74 119.837C110.001 116.746 115.506 112.806 118.135 108.094C120.996 102.967 123.18 92.9409 124.523 84.188C124.804 82.3468 123.751 81.7381 123.945 79.8612C123.725 80.0809 123.509 80.3006 123.293 80.5242C122.136 81.7137 120.969 82.8875 119.787 84.051Z" fill="black"/>
<path fill-rule="evenodd" clip-rule="evenodd" d="M84.779 50.3988C83.1908 46.7947 82.7906 38.4088 86.2684 35.7206C91.4975 31.6801 97.9864 34.7983 99.8462 40.9805C101.532 46.5843 102.156 53.7563 95.9319 56.6793C91.0845 58.9549 86.6931 54.7451 84.779 50.3988C84.4576 49.6702 85.1685 51.2824 84.779 50.3988ZM96.6223 49.0185C96.8419 45.6013 95.3941 40.3106 92.3111 38.3858C91.128 37.6464 89.4013 37.6822 88.482 38.8286C87.1638 40.4706 86.5008 45.0503 90.4778 52.0095C91.2308 53.3271 93.2007 54.044 94.5692 53.5821C96.3977 52.9641 96.6408 50.6488 96.6223 49.0185C96.7045 47.74 96.6325 49.8967 96.6223 49.0185Z" fill="black"/>
<path fill-rule="evenodd" clip-rule="evenodd" d="M152.091 40.9458C150.729 41.875 137.996 53.7476 123.641 67.2309C122.341 68.4521 121.026 69.6876 119.704 70.9309C102.115 87.4722 83.458 105.119 80.9157 107.424C78.8626 109.287 76.6863 111.791 74.4023 114.132C73.5128 115.043 72.6086 115.933 71.6902 116.751C71.6902 116.751 71.2048 116.261 71.6902 116.751C70.3466 117.944 67.9779 119.145 66.5727 119.88C62.701 121.908 56.7361 130.612 56.2976 136.149C56.1895 137.525 54.8048 146.165 56.0016 145.837C57.3452 145.467 68.5059 142.224 70.3647 141.164C72.9834 139.673 79.4053 129.739 80.3951 128.198C81.6633 126.231 84.2091 124.072 86.0527 122.588C86.0894 122.559 85.6398 122.037 85.676 122.008C86.176 121.604 88.1351 120.768 90.336 118.736C96.4056 113.135 108.041 102.163 120.246 90.3624C121.593 89.058 122.947 87.7428 124.305 86.4286C143.707 67.5709 163.165 47.8996 162.968 45.3749C162.474 39.1384 155.329 38.7372 152.091 40.9458ZM68.6341 135.754C66.9661 137.231 64.2212 138.182 62.1755 139.082C61.0584 139.569 63.3351 129.623 67.3472 125.765C71.1945 122.059 75.0496 126.439 75.0966 126.968C75.4024 130.423 69.6352 134.868 68.6341 135.754ZM157.738 46.8016C155.616 48.9012 147.649 57.0962 145.541 59.2036C138.52 66.2278 130.995 72.7877 124.043 79.8623C123.823 80.082 123.607 80.3017 123.391 80.5253C122.235 81.7143 121.068 82.8881 119.886 84.0516C112.868 90.9682 105.47 97.4879 98.4097 104.35C94.4073 108.237 90.3761 112.08 86.3957 115.989C85.993 116.385 85.5708 116.831 85.1353 117.307C84.0256 118.517 82.8264 119.914 81.5728 121.157C80.2723 122.454 78.9116 123.582 77.542 124.161C77.0087 123.254 73.8421 120.53 74.185 119.994C74.3079 119.799 74.6533 119.403 75.1935 118.827C75.8564 118.117 76.8223 117.13 78.0367 115.92C86.2636 107.721 105.841 89.1774 120.621 75.2728C121.989 73.983 123.316 72.7363 124.588 71.541C132.328 64.2682 138.081 58.9042 138.96 58.1154C141.074 56.2175 148.938 48.3791 153.459 45.7712C157.45 43.473 158.322 46.2213 157.738 46.8016Z" fill="black"/>
</svg>
