<svg id="Component_2_1" data-name="Component 2 – 1" xmlns="http://www.w3.org/2000/svg" width="114.917" height="63.205" viewBox="0 0 114.917 63.205">
  <path id="Vector_13_" data-name="Vector (13)" d="M6.571,5.745c4.212-5.688,11.9-3.753,17.416-3.911,6.559-.188,13.037-.394,19.582-.706,6.57-.313,12.569.467,19.064.715C70.741,2.153,78.428.229,86.5.234c7.135,0,15.718,1.111,21.3,3.734,10.31,4.845,8.27,13.59,3.859,19.687-3.515,4.859-8.361,10.826-6.549,16.219.994,2.962,5.043,5.2,3.736,8.316-4,9.537-18.835,16.643-36.842,15.016-5.229-.472-23.989-1.96-29.655-2.889-15.937-2.611-26.494-8.139-28.99-17.6C11.669,36.3,1.388,29.711.447,23.343-.262,18.544,3.349,10.1,6.571,5.745Z" transform="translate(-0.357 -0.233)" fill="#c1dee6" fill-rule="evenodd"/>
  <g id="exercise29" transform="translate(13.638 -16.05)">
    <g id="Group_1" data-name="Group 1">
      <path id="Path_4" data-name="Path 4" d="M46,29.4h0c-.2.7-.4,1.7-.6,2.4l-.7,2.6h2.7l-.8-2.6C46.4,31.1,46.2,30.1,46,29.4Z"/>
      <path id="Path_5" data-name="Path 5" d="M28.6,20.3V46.8H55.1V20.3Zm11,19.4H31.9V27.3h2.8v10h4.9Zm9.2,0-1-3.2H44.3l-.9,3.2H40.5l3.8-12.4H48l3.8,12.4Z"/>
    </g>
    <path id="Path_6" data-name="Path 6" d="M26.4,48.9V35.4L26,33,0,38,4.9,64l26-4.9L29,48.9ZM10.2,56a7.029,7.029,0,0,1-3.6-.1l.1-2.4a8.1,8.1,0,0,0,3.2.2c1.3-.2,1.8-.9,1.7-1.7s-.8-1.1-2.4-1.3c-2.2-.3-3.7-1.2-4-3-.4-2.1,1-4,3.9-4.5a6.789,6.789,0,0,1,3.2,0l-.2,2.3a7.264,7.264,0,0,0-2.7-.1c-1.1.3-1.6.9-1.4,1.6.1.8.9,1,2.6,1.3,2.3.4,3.5,1.3,3.8,3C14.8,53.3,13.5,55.4,10.2,56Zm12.3-2.5-2.8.5-.9-5-5.2-6.5,3.1-.6,1.8,2.7c.5.8.9,1.4,1.4,2.2h0c.1-.8.3-1.6.5-2.5l.7-3.2,3.1-.6-2.7,7.9Z"/>
    <g id="Group_2" data-name="Group 2">
      <path id="Path_7" data-name="Path 7" d="M66.1,45.9c.2-.9-.4-1.5-1.7-1.8a6.822,6.822,0,0,0-1.2-.1l-.5,2.8.9.2C65,47.2,65.9,46.8,66.1,45.9Z"/>
      <path id="Path_8" data-name="Path 8" d="M63.3,48.9l-.9-.2-.6,3.4c.3.1.6.1,1.1.2,1.2.2,2.4,0,2.7-1.3C65.6,49.9,64.6,49.2,63.3,48.9Z"/>
      <path id="Path_9" data-name="Path 9" d="M59,34l-1.8,9.9v4.9h-.9L54.3,60l26,4.7,4.7-26Zm9.9,12a2.683,2.683,0,0,1-2.5,2.2h0a3.1,3.1,0,0,1,1.9,3.4A3.6,3.6,0,0,1,66.6,54c-1,.5-2.6.7-5,.2a13.412,13.412,0,0,1-2.9-.7l2.2-12a19.393,19.393,0,0,1,3.6.4A7.759,7.759,0,0,1,68,43.2,3.538,3.538,0,0,1,68.9,46Zm6.5,5.5-.9,5.1L71.7,56l.9-5-2.5-7.9,3.1.6.7,3.2c.2,1,.4,1.7.5,2.5h0c.4-.7.8-1.4,1.3-2.2l1.8-2.7,3.1.6Z"/>
    </g>
  </g>
</svg>
