<svg width="164" height="165" viewBox="0 0 164 165" fill="none" xmlns="http://www.w3.org/2000/svg">
<path fill-rule="evenodd" clip-rule="evenodd" d="M6.34125 43.0289C3.79255 52.4217 -1.97763 60.2503 0.687035 70.4706C2.00322 75.5176 5.9004 79.2161 7.63737 84.0317C9.27404 88.5679 8.64433 94.1384 7.74208 98.771C6.16804 106.858 4.49027 117.764 6.79041 125.978C10.1254 137.889 24.029 143.639 33.9968 148.551C52.1171 157.481 71.5907 159.149 91.5052 161.794C100.445 162.982 112.365 165.684 121.246 163.114C130.711 160.375 137.41 152.214 141.969 143.888C146.033 136.467 145.644 129.02 147.732 121.267C149.873 113.314 153.516 105.744 156.004 97.8991C158.041 91.4796 158.094 85.0195 159.029 78.4895C160.136 70.7641 162.902 63.5692 163.613 55.7797C164.71 43.7652 163.071 27.3829 154.694 17.947C125.714 -14.6949 70.5094 5.66731 35.5522 13.3633C21.3066 16.4997 7.43529 38.9966 6.34125 43.0289Z" fill="#C1DEE6"/>
<path fill-rule="evenodd" clip-rule="evenodd" d="M135.607 38.7944C135.31 43.9202 135.128 49.0665 135.154 54.2021C135.212 66.0111 135.229 77.8161 135.295 89.6256C135.354 99.8894 135.918 110.254 136.205 120.398C136.267 122.501 135.236 125.131 134.09 126.316C133.203 127.232 36.6617 128.691 37.7655 127.2C38.8121 125.786 128.651 124.981 129.829 123.882C127.914 123.189 39.1967 125.281 36.8985 125.824C36.3402 125.956 33.9197 121.423 32.0306 120.782C35.3304 120.547 50.9215 120.596 55.7361 120.493C64.2253 120.312 72.709 120.046 81.1972 119.839C90.2324 119.619 99.2651 119.539 108.296 119.231C110.715 119.148 129.375 119.942 129.222 117.529C128.206 101.458 127.157 83.1718 127.146 66.4103C127.143 62.1413 127.106 57.3854 127.036 53.1168C127.016 51.8912 121.148 52.4734 119.726 52.4318C110.203 52.1505 56.219 54.0729 38.7789 54.3381C32.5174 54.433 34.2011 56.7664 34.0744 62.3962C33.9589 67.5636 34.0469 72.7363 34.0303 77.9052C33.998 88.4478 33.8106 98.9905 33.7093 109.533C33.6844 112.073 34.8239 119.257 32.1642 120.01C30.9258 116.368 30.0035 112.646 30.0548 108.819C30.1923 98.4538 29.7843 30.7559 29.9614 27.6519C30.1145 24.9397 79.2762 25.1173 83.8154 24.9011C92.6539 24.4803 131.01 25.3874 131.559 24.8336C132.239 29.1726 132.232 36.8299 133.026 35.0553C133.293 34.4559 136.209 35.7095 135.607 38.7944ZM34.3082 50.5344C44.8353 50.0652 108.221 48.8522 113.54 48.7529C115.934 48.7079 125.237 49.6605 126.864 47.8321C128.714 45.7521 127.053 37.2326 127.005 34.5846C126.898 28.6862 126.775 28.8261 121.532 28.7909C103.993 28.673 86.5818 30.2314 69.0036 29.8766C58.9625 29.6741 48.9169 30.113 38.8733 30.0596C32.7993 30.0278 34.5318 32.1009 34.248 37.6705C34.0005 42.5223 33.861 46.1949 34.3082 51.0237C34.7104 51.0853 34.2441 49.8474 34.3082 50.5344ZM132.658 119.761C131.636 70.7439 133.907 38.2988 131.357 38.5277C130.484 48.3389 131.576 92.1111 131.576 96.1952C131.576 95.6056 131.558 118.661 132.658 119.761Z" fill="black"/>
<path fill-rule="evenodd" clip-rule="evenodd" d="M59.5931 81.9359C59.553 80.3472 59.3005 74.0525 61.4583 73.5402C63.8773 72.9663 68.0216 73.6053 69.486 76.0033C71.015 78.508 69.9097 81.5352 67.7314 82.9977C65.0296 84.8115 69.0447 85.8277 70.5429 86.7427C73.6978 88.6695 72.9404 91.34 70.0413 89.8409C67.7221 88.6411 65.8457 86.6972 63.5754 85.4392C61.9069 84.5155 63.322 90.6311 61.9143 90.7128C58.9653 90.8835 59.5931 83.2281 59.5931 81.9359C59.5393 79.8295 59.5931 82.9385 59.5931 81.9359ZM62.5362 82.4937C64.8764 82.8935 69.9728 78.4086 66.4695 77.1218C65.5423 76.7818 63.6101 75.6329 62.6335 76.5215C61.6545 77.4125 61.9314 81.5088 62.5362 82.4937C63.1086 82.5916 62.4559 82.3626 62.5362 82.4937Z" fill="black"/>
<path fill-rule="evenodd" clip-rule="evenodd" d="M53.9101 87.7356C57.1208 83.996 49.7056 83.24 48.0254 82.875C43.5949 81.9126 45.2066 76.4932 47.2607 74.4666C48.7931 72.9547 56.8468 71.9644 56.9447 75.9325C56.9564 76.4071 51.4857 75.4378 49.3519 78.126C46.6085 81.5843 52.6384 80.9482 54.9327 82.1269C58.7218 84.0738 58.069 90.1718 54.0853 91.1352C52.3136 91.5633 44.2232 89.4652 45.6059 86.6176C46.2826 87.0623 51.8967 90.0803 53.9101 87.7356Z" fill="black"/>
<path fill-rule="evenodd" clip-rule="evenodd" d="M89.0121 79.9733C88.7111 76.38 89.1667 72.1437 93.2924 73.3058C96.8847 74.3167 100.455 79.141 100.736 82.2524C101.12 86.5058 96.3313 89.4836 92.6514 89.9974C88.4968 90.5772 89.0121 82.8048 89.0121 79.9733C88.9039 78.6826 89.0121 81.0243 89.0121 79.9733ZM91.5299 84.3886C91.6268 88.026 94.5038 86.8263 96.7775 85.5174C100.642 83.2921 94.291 75.8941 91.4057 76.2166C91.4453 78.7036 91.4668 81.9911 91.5299 84.3886Z" fill="black"/>
<path fill-rule="evenodd" clip-rule="evenodd" d="M86.9501 80.4942C86.5709 83.6011 85.1055 87.9573 81.8698 89.3831C78.3577 90.9297 75.0486 87.8452 74.1831 84.3517C73.2162 80.4482 74.6518 75.5763 78.4125 73.7498C82.5959 71.7188 86.9202 76.6533 86.9501 80.4942C86.908 80.8416 86.9369 78.8228 86.9501 80.4942ZM80.8271 86.5804C83.4179 85.6151 84.3911 82.191 84.1166 79.6854C83.3587 72.7659 76.4592 75.5959 76.3418 83.2386C76.3271 84.1692 78.573 87.4196 80.8271 86.5804Z" fill="black"/>
<path fill-rule="evenodd" clip-rule="evenodd" d="M51.7438 70.0399C47.1382 72.5544 51.3862 67.1786 51.8427 65.628C52.3119 64.0334 55.2496 65.3501 54.3043 66.6996C53.5019 67.8455 52.5737 68.9111 51.7438 70.0399C51.2707 70.2983 52.1729 69.4562 51.7438 70.0399Z" fill="black"/>
<path fill-rule="evenodd" clip-rule="evenodd" d="M109.513 87.0889C108.761 85.0329 107.015 84.503 105.024 85.6323C104.803 85.7585 102.387 89.9189 101.24 89.5935C99.9655 89.2324 102.853 82.9534 104.033 80.7022C105.114 78.6399 105.745 77.1147 106.61 74.9139C107.59 72.4171 110.262 71.7888 110.549 75.2486C110.688 76.922 112.27 84.9341 112.269 88.2319C112.268 89.3435 110.372 89.4389 109.513 87.0889ZM106.368 82.5248C106.597 82.4857 108.496 82.7743 108.621 82.3149C108.812 81.604 108.583 78.9075 108.332 78.6741C107.834 78.5953 106.368 82.5248 106.368 82.5248Z" fill="black"/>
</svg>
