<svg id="Component_5_1" data-name="Component 5 – 1" xmlns="http://www.w3.org/2000/svg" xmlns:xlink="http://www.w3.org/1999/xlink" width="903.717" height="643" viewBox="0 0 903.717 643">
  <defs>
    <clipPath id="clip-path">
      <rect id="Rectangle_5" data-name="Rectangle 5" width="763" height="643" transform="translate(3896 811)" stroke="#707070" stroke-width="1"/>
    </clipPath>
  </defs>
  <path id="Vector_15_" data-name="Vector (15)" d="M49.227,50.907C82.348-1.4,142.778,16.4,186.185,14.946c51.578-1.728,102.522-3.624,153.993-6.5,51.669-2.882,98.846,4.3,149.922,6.579C553.865,17.881,614.314.185,677.822.234c56.113.043,123.609,10.22,167.5,34.333,81.075,44.548,65.037,124.969,30.35,181.034-27.642,44.684-65.748,99.553-51.5,149.144,7.819,27.234,39.657,47.8,29.379,76.47-31.438,87.7-148.12,153.036-289.731,138.079-41.123-4.341-188.652-18.024-233.21-26.562-125.333-24.008-208.351-74.846-227.977-161.825C89.317,331.9,8.466,271.286,1.067,212.734-4.515,168.6,23.886,90.931,49.227,50.907Z" transform="translate(-0.357 42.967)" fill="#c1dee6" fill-rule="evenodd"/>
  <g id="Mask_Group_5" data-name="Mask Group 5" transform="translate(-3841.844 -811)" clip-path="url(#clip-path)">
    <g id="exercise06" transform="translate(3894.196 746.49)">
      <g id="Group_3" data-name="Group 3">
        <path id="Path_12" data-name="Path 12" d="M162.34,303.937l4.509,116.344H56.819L61.329,314.76V254.333L9.019,265.156,1.8,260.647V173.163l149.714-42.389L166.85,141.6Z"/>
      </g>
      <g id="Group_4" data-name="Group 4">
        <path id="Path_13" data-name="Path 13" d="M462.67,422.085c0,28.861-15.332,61.329-59.525,105.521l-24.351,24.351,1.8,2.706h42.389l54.113-5.411,5.411,6.313-12.626,85.68-80.268-4.509H260.647l-19.842,1.8-5.411-3.608V569.093l71.249-61.329c27.959-25.253,46-43.291,46-56.819,0-8.117-6.313-12.626-19.842-12.626-19.842,0-46.9,10.823-70.348,27.959H250.726L232.688,381.5c44.193-22.547,86.582-35.174,127.167-35.174C418.478,347.228,462.67,373.383,462.67,422.085Z"/>
      </g>
      <g id="Group_5" data-name="Group 5">
        <path id="Path_14" data-name="Path 14" d="M762.1,265.156c0,23.449-9.921,55.015-49.6,77.563v3.608c35.174,12.626,52.31,36.978,52.31,74.857,0,62.231-62.23,103.717-155.125,103.717-20.744,0-46-1.8-65.838-6.313l-5.411-80.268,7.215-6.313c25.253,7.215,46,10.823,67.642,10.823,32.468,0,46.9-8.117,46.9-26.155,0-12.626-8.117-18.038-25.253-18.038h-46.9l-4.509-6.313,2.706-74.857,25.253-.9c22.547-.9,39.683-10.823,39.683-27.959,0-12.626-8.117-18.038-25.253-18.038-18.038,0-37.879,7.215-61.329,18.038H552.859l-15.332-74.857c34.272-19.842,75.759-30.664,113.638-30.664C717.905,183.084,762.1,216.454,762.1,265.156Z"/>
      </g>
    </g>
  </g>
</svg>
