<?xml version="1.0" encoding="UTF-8" standalone="no"?>
<!-- Creator: CorelDRAW X7 -->

<svg
   xmlns:dc="http://purl.org/dc/elements/1.1/"
   xmlns:cc="http://creativecommons.org/ns#"
   xmlns:rdf="http://www.w3.org/1999/02/22-rdf-syntax-ns#"
   xmlns:svg="http://www.w3.org/2000/svg"
   xmlns="http://www.w3.org/2000/svg"
   xmlns:sodipodi="http://sodipodi.sourceforge.net/DTD/sodipodi-0.dtd"
   xmlns:inkscape="http://www.inkscape.org/namespaces/inkscape"
   xml:space="preserve"
   width="177.35379mm"
   height="150.06854mm"
   version="1.1"
   style="clip-rule:evenodd;fill-rule:evenodd;image-rendering:optimizeQuality;shape-rendering:geometricPrecision;text-rendering:geometricPrecision"
   viewBox="0 0 17735.379 15006.855"
   enable-background="new 0 0 127.6 127.6"
   id="svg2"
   inkscape:version="0.91 r13725"
   sodipodi:docname="exercise26.svg"><metadata
   id="metadata14"><rdf:RDF><cc:Work
       rdf:about=""><dc:format>image/svg+xml</dc:format><dc:type
         rdf:resource="http://purl.org/dc/dcmitype/StillImage" /><dc:title></dc:title></cc:Work></rdf:RDF></metadata><sodipodi:namedview
   pagecolor="#ffffff"
   bordercolor="#666666"
   borderopacity="1"
   objecttolerance="10"
   gridtolerance="10"
   guidetolerance="10"
   inkscape:pageopacity="0"
   inkscape:pageshadow="2"
   inkscape:window-width="1366"
   inkscape:window-height="706"
   id="namedview12"
   showgrid="false"
   inkscape:zoom="0.67425133"
   inkscape:cx="317.66369"
   inkscape:cy="301.08912"
   inkscape:window-x="-8"
   inkscape:window-y="-8"
   inkscape:window-maximized="1"
   inkscape:current-layer="svg2"
   fit-margin-top="30"
   fit-margin-left="0"
   fit-margin-right="0"
   fit-margin-bottom="30" />
 <defs
   id="defs4">
  <style
   type="text/css"
   id="style6">
   <![CDATA[
    .fil0 {fill:white}
   ]]>
  </style>
 </defs>
 
<g
   id="g4205"
   style="fill:#ffffff"><path
     inkscape:connector-curvature="0"
     id="rect4144"
     d="M -8.6e-4,6273.5529 1511.3062,11913.828 7151.5809,10402.521 5640.2739,4762.2459 -8.6e-4,6273.5529 Z m 2759.95516,731.0094 871.3106,-233.467 1664.685,2325.305 -836.035,224.015 -241.362,-392.808 -910.1142,243.864 -10.8585,460.391 -816.6329,218.816 279.007,-2846.116 z m 606.4261,555.8681 -34.9066,1005.6059 569.7031,-152.652 -534.7965,-852.9539 z"
     style="fill:#ffffff;fill-opacity:1;stroke:none;stroke-width:2250.24243164;stroke-miterlimit:4;stroke-dasharray:none;stroke-dashoffset:0;stroke-opacity:1" /><path
     inkscape:connector-curvature="0"
     id="rect4144-7"
     d="m 5798.5567,3000 0,5839.2343 5839.2333,0 0,-5839.2343 -5839.2333,0 z m 1742.656,1420.468 1548.451,0 c 258.075,0 455.892,63.91 593.451,191.73 138.7765,127.821 208.1645,286.075 208.1645,474.761 0,158.254 -49.302,293.987 -147.9065,407.199 -65.736,75.475 -161.905,135.124 -288.508,178.949 192.339,46.258 333.55,125.993 423.6325,239.207 91.3,111.994 136.9498,253.205 136.9498,423.632 0,138.777 -32.2588,263.552 -96.7778,374.332 -64.519,110.777 -152.7755,198.424 -264.7705,262.943 -69.388,40.172 -174.079,69.389 -314.072,87.649 -186.253,24.346 -309.812,36.52 -370.679,36.52 l -1427.935,0 0,-2676.922 z m 834.484,542.322 0,507.63 359.723,0 c 129.037,0 218.511,-21.912 268.422,-65.735 51.128,-45.042 76.692,-109.561 76.692,-193.557 0,-77.909 -25.564,-138.776 -76.692,-182.601 -49.911,-43.824 -137.559,-65.737 -262.944,-65.737 l -365.201,0 z m 0,1017.085 0,542.323 421.807,0 c 142.428,0 242.858,-24.954 301.29,-74.866 58.432,-51.127 87.648,-119.299 87.648,-204.511 0,-79.127 -29.216,-142.43 -87.648,-189.906 -57.214,-48.692 -158.253,-73.04 -303.116,-73.04 l -419.981,0 z"
     style="clip-rule:evenodd;fill:#ffffff;fill-opacity:1;fill-rule:evenodd;stroke:none;stroke-width:25.40000006;stroke-miterlimit:4;stroke-dasharray:none;stroke-dashoffset:0;stroke-opacity:1;image-rendering:optimizeQuality;shape-rendering:geometricPrecision;text-rendering:geometricPrecision" /><path
     inkscape:connector-curvature="0"
     id="rect4144-0"
     d="m 12095.113,4855.2835 -1511.305,5640.2665 5640.267,1511.305 1511.305,-5640.2665 -5640.267,-1511.305 z m 2539.178,2103.645 c 325.713,87.274 563.817,221.65 714.315,403.127 151.673,181.791 236.232,421.2168 253.677,718.2758 l -747.577,-32.065 c -3.581,-85.398 -14.013,-149.948 -31.289,-193.645 -28.3,-73.118 -70.375,-134.803 -126.225,-185.0558 -55.849,-50.252 -123.753,-86.091 -203.711,-107.516 -181.083,-48.521 -339.368,-12.796 -474.857,107.175 -101.889,88.6448 -183.868,248.7888 -245.937,480.4318 -76.877,286.909 -86.146,495.523 -27.802,625.84 58.656,129.142 166.768,214.823 324.331,257.042 152.861,40.959 279.596,28.918 380.203,-36.125 101.783,-64.727 192.209,-174.088 271.278,-328.079 l 643.511,399.278 c -99.652,183.765 -217.682,327.947 -354.093,432.547 -136.412,104.601 -288.852,170.247 -457.32,196.943 -167.292,27.01 -366.761,9.479 -598.405,-52.59 -281.03,-75.301 -500.04,-177.463 -657.03,-306.489 -155.5,-129.885 -270.353,-315.044 -344.559,-555.477 -74.208,-240.432 -68.304,-521.152 17.71,-842.161 114.686,-428.0108 316.217,-726.2598 604.596,-894.7428 289.87,-169.343 642.931,-198.249 1059.184,-86.714 z"
     style="clip-rule:evenodd;fill:#ffffff;fill-opacity:1;fill-rule:evenodd;stroke:none;stroke-width:2250.24243164;stroke-miterlimit:4;stroke-dasharray:none;stroke-dashoffset:0;stroke-opacity:1;image-rendering:optimizeQuality;shape-rendering:geometricPrecision;text-rendering:geometricPrecision" /></g></svg>