<svg id="Component_1_1" data-name="Component 1 – 1" xmlns="http://www.w3.org/2000/svg" width="21388.504" height="11622.363" viewBox="0 0 21388.504 11622.363">
  <path id="Vector_13_" data-name="Vector (13)" d="M1156.982,1013.553c783.885-1046,2214.083-690.035,3241.425-719.127,1220.706-34.551,2426.4-72.469,3644.586-129.9,1222.855-57.628,2339.409,85.9,3548.232,131.568C13100.383,353.133,14531.034-.745,16034.1.236c1328.036.85,2925.5,204.364,3964.212,686.573,1918.822,890.836,1539.25,2499.039,718.291,3620.169-654.207,893.548-1556.072,1990.777-1218.957,2982.458,185.047,544.613,938.582,955.849,695.326,1529.189-744.059,1753.7-3505.6,3060.29-6857.133,2761.2-973.269-86.818-4464.865-360.434-5519.443-531.169C4850.1,10568.574,2885.3,9551.945,2420.813,7812.61,2105.794,6632.674,192.276,5420.516,17.153,4249.645-114.954,3367.07,557.221,1813.915,1156.982,1013.553Z" transform="translate(-0.357 -0.234)" fill="#c1dee6" fill-rule="evenodd"/>
  <g id="g4205" transform="translate(2337.436 -2305)">
    <path id="rect4144" d="M0,6273.55,1511.31,11913.8l5640.27-1511.3L5640.27,4762.25Zm2759.96,731.009,871.311-233.467,1664.69,2325.3-836.035,224.015L4218.563,8927.6l-910.114,243.864-10.858,460.391L2480.958,9850.67l279.007-2846.12Zm606.426,555.868-34.906,1005.61,569.7-152.652-534.8-852.954Z" fill-rule="evenodd"/>
    <path id="rect4144-7" d="M5798.56,3000V8839.23h5839.23V3000H5798.56ZM7541.22,4420.47H9089.67q387.113,0,593.451,191.73,208.166,191.731,208.165,474.761,0,237.381-147.906,407.2-98.6,113.213-288.508,178.949Q9743.38,5742.5,9878.5,5912.316q136.95,167.991,136.95,423.632,0,208.165-96.777,374.332t-264.771,262.943q-104.082,60.258-314.072,87.649-279.379,36.519-370.679,36.52H7541.215V4420.472ZM8375.7,4962.792v507.63h359.723q193.556,0,268.422-65.735,76.692-67.563,76.692-193.557,0-116.864-76.692-182.6-74.867-65.736-262.944-65.737H8375.7Zm0,1017.09v542.323h421.807q213.642,0,301.29-74.866,87.647-76.69,87.648-204.511,0-118.69-87.648-189.906-85.821-73.038-303.116-73.04H8375.7Z" fill-rule="evenodd"/>
    <path id="rect4144-0" d="M12095.1,4855.28l-1511.311,5640.27,5640.27,1511.31,1511.311-5640.27L12095.1,4855.279Zm2539.18,2103.65q488.569,130.911,714.315,403.127,227.509,272.687,253.677,718.276l-747.577-32.065q-5.372-128.1-31.289-193.645-42.45-109.677-126.225-185.056T14493.47,7562.05q-271.625-72.781-474.857,107.175-152.833,132.968-245.937,480.432-115.315,430.364-27.8,625.84,87.984,193.712,324.331,257.042,229.292,61.438,380.2-36.125,152.675-97.09,271.278-328.079l643.511,399.278q-149.479,275.647-354.093,432.547t-457.32,196.943q-250.938,40.515-598.405-52.59-421.545-112.951-657.03-306.489-233.25-194.827-344.559-555.477t17.71-842.161q172.028-642.016,604.6-894.743,434.805-254.014,1059.18-86.714Z" fill-rule="evenodd"/>
  </g>
</svg>
