<svg width="197" height="126" viewBox="0 0 197 126" fill="none" xmlns="http://www.w3.org/2000/svg">
<path fill-rule="evenodd" clip-rule="evenodd" d="M66.7956 7.49788C32.2856 4.5969 -10.3397 43.9254 2.26097 78.7739C9.30134 98.2437 27.5454 112.277 45.7401 120.553C62.5427 128.196 83.6418 125.326 101.427 123.315C121.437 121.053 140.957 115.927 161.031 114.051C173.447 112.89 182.463 113.32 186.808 100.352C190.434 89.5294 191.451 78.2132 193.165 67.1979C196.266 47.2775 201.034 34.0388 187.792 15.7424C171.854 -6.28046 140.366 -0.654632 116.955 5.61461C105.721 8.62276 79.4085 8.55817 66.7956 7.49788Z" fill="#C1DEE6"/>
<path fill-rule="evenodd" clip-rule="evenodd" d="M100.643 86.2288C100.689 82.9677 100.491 79.4355 100.775 76.1264C101.07 72.6716 100.121 67.7674 100.781 64.3752C101.465 60.866 110.274 62.7527 112.724 62.5595C117.819 62.1582 148.427 62.5418 152.424 62.4264C156.126 62.3187 165.472 61.6934 167.936 62.7439C167.762 61.7272 167.354 77.9309 167.371 78.9222C167.44 83.0445 168.028 88.7794 167.806 92.8875C167.616 96.3864 161.802 95.9289 159.359 95.9421C148.777 96.0018 137.916 96.1965 127.334 96.2313C121.815 96.2499 101.545 96.5684 101.352 95.6055C101.232 95.0046 100.607 88.8127 100.643 86.2288ZM88.9093 77.0072C88.7836 74.3787 88.8286 65.2554 89.4069 62.0892C87.85 61.5138 73.3578 62.0716 69.236 62.1396C60.7317 62.2869 52.2734 61.4933 43.7769 61.3671C40.1356 61.3137 24.2304 59.1912 22.2913 61.4654C21.0319 62.9435 21.9322 78.5822 21.757 83.4858C21.6381 86.8188 22.3716 91.8106 22.3716 95.0736C24.7368 97.1521 45.2771 96.3086 52.6844 96.7029C60.469 97.1174 89.4182 97.7857 89.3101 95.1729C89.1657 91.6564 89.154 82.1271 88.9093 77.0072ZM84.6638 70.8289C84.6153 66.7835 84.5194 65.5793 80.8635 65.4472C72.9052 65.159 54.9669 65.9536 47.7739 65.8206C44.2187 65.755 30.4835 63.6902 27.3329 65.434C25.9752 66.1851 26.0417 75.6117 26.1239 77.4411C26.28 80.9043 25.6684 91.0561 28.5097 91.3448C31.7209 91.6716 48.4173 92.1986 53.3205 92.3307C63.3367 92.5988 82.3891 92.2857 83.5409 92.2216C84.5082 90.5179 84.7117 74.8014 84.6638 70.8289ZM126.363 91.9363C134.715 91.5537 143.098 92.0063 151.456 92.017C156.562 92.0239 162.923 92.7896 162.936 88.0063C162.947 84.2467 164.11 70.1718 162.923 67.6989C162.345 66.4953 148.348 66.6563 146.167 66.6342C138.21 66.5545 130.254 66.5105 122.297 66.4464C118.192 66.4136 114.089 66.2639 109.984 66.2276C106.637 66.1973 106.334 66.3974 106.321 69.9707C106.295 77.1089 105.967 85.2614 106.555 91.7778C108.454 92.957 122.374 92.1183 126.363 91.9363ZM103.075 80.7463C103.066 80.8197 103.064 80.827 103.075 80.7463V80.7463Z" fill="black"/>
<path fill-rule="evenodd" clip-rule="evenodd" d="M108.788 34.1751C108.736 32.286 109.874 31.5936 97.3633 32.8134C91.7859 33.357 96.4493 58.3347 95.8754 54.8255C97.7704 53.7369 97.9759 52.7642 99.9531 52.2944C102.081 51.7895 94.98 61.085 94.5029 61.7421C94.5029 61.7421 87.0843 56.3462 87.3138 55.4293C87.8065 53.4536 90.8724 55.2727 91.598 55.3618C91.7428 54.1577 90.7153 45.5281 90.6909 43.3297C90.6371 38.2499 89.8038 30.8822 94.8112 29.1369C96.1866 28.6579 108.745 28.4461 108.648 27.7464C108.182 24.3473 109.206 18.0462 108.543 14.4015C119.025 12.9713 132.346 14.1427 143.272 14.8923C146.248 15.0944 160.341 15.408 165.19 15.1878C166.488 15.1291 172.978 15.6536 172.922 18.5429C172.849 22.3148 172.669 27.1147 172.722 30.8719C172.775 34.5998 172.965 39.8269 172.931 43.5484C172.899 47.2029 168.627 47.2709 165.259 47.4524C158.578 47.8121 151.709 47.4891 145.011 47.3541C139.236 47.2377 132.851 48.1986 127.091 47.8786C124.641 47.7431 112.717 47.5586 109.99 47.84C109.687 47.8718 108.86 36.7728 108.788 34.1751ZM151.335 43.8014C155.487 44.0059 159.685 43.9726 163.842 43.9276C166.948 43.8909 168.347 44.8881 168.289 41.5286C168.177 35.0881 168.327 28.6858 168.351 22.2531C168.366 17.8858 166.809 18.6985 162.654 18.8692C158.542 19.0356 154.419 18.9196 150.303 18.8428C142.613 18.7024 134.922 18.5571 127.233 18.5473C125.253 18.5438 112.773 17.5296 112.696 19.429C112.36 27.444 113.191 35.5804 112.986 43.6042C112.976 43.9687 138.828 43.1922 151.335 43.8014Z" fill="black"/>
<path fill-rule="evenodd" clip-rule="evenodd" d="M122.585 27.0597C124.398 26.7514 124.874 29.6123 125.836 31.0033C126.779 32.366 128.17 34.4112 129.385 32.4374C130.314 30.926 130.189 27.2133 132.742 27.7393C135.108 28.2271 136.375 31.7436 139.122 31.9878C141.889 32.2334 142.142 27.6693 144.863 27.9653C147.411 28.2423 149.501 31.0024 152.124 31.4045C154.127 31.7113 155.34 29.1651 157.288 29.1093C159.595 29.0423 163.244 31.8405 164.679 33.7321C162.048 33.6695 159.732 32.5554 156.959 32.3479C155.314 32.2251 154.343 34.1676 152.954 34.5047C151.439 34.8726 145.316 31.9873 144.806 31.8493C143.591 31.521 142.815 33.9219 141.8 34.8677C140.319 36.249 136.74 35.1603 135.333 34.309C134.204 33.6264 133.677 32.4007 132.245 32.6165C131.995 34.9025 131.161 36.1345 128.894 35.8727C126.619 35.61 125.638 35.995 124.137 34.1406C122.739 32.4125 121.686 32.6312 119.966 33.7018C119.278 34.1299 116.518 36.1267 116.997 34.0682C117.636 31.3263 120.838 27.3572 122.585 27.0597Z" fill="black"/>
<path fill-rule="evenodd" clip-rule="evenodd" d="M116.334 73.2057C118.146 72.8974 118.622 75.7583 119.584 77.1493C120.527 78.512 121.918 80.5572 123.133 78.5834C124.062 77.072 123.938 73.3593 126.49 73.8853C128.856 74.3731 130.123 77.8896 132.87 78.1338C135.637 78.3794 135.89 73.8153 138.611 74.1113C141.159 74.3883 143.249 77.1483 145.872 77.5505C147.875 77.8573 149.088 75.3111 151.036 75.2553C153.343 75.1883 156.992 77.9865 158.427 79.8781C155.796 79.8155 153.48 78.7014 150.707 78.4939C149.062 78.3711 148.091 80.3135 146.702 80.6507C145.187 81.0186 139.064 78.1333 138.555 77.9953C137.339 77.667 136.563 80.0679 135.548 81.0137C134.067 82.395 130.488 81.3063 129.081 80.455C127.952 79.7724 127.425 78.5467 125.994 78.7625C125.743 81.0485 124.909 82.2805 122.642 82.0187C120.367 81.756 119.386 82.141 117.885 80.2866C116.487 78.5585 115.434 78.7772 113.714 79.8478C113.026 80.2759 110.266 82.2727 110.745 80.2142C111.384 77.4727 114.586 73.5036 116.334 73.2057Z" fill="black"/>
<path fill-rule="evenodd" clip-rule="evenodd" d="M35.8472 73.2057C37.6595 72.8974 38.1356 75.7583 39.0975 77.1493C40.0404 78.512 41.4319 80.5572 42.6463 78.5834C43.5755 77.072 43.4512 73.3593 46.0038 73.8853C48.3695 74.3731 49.6368 77.8896 52.3841 78.1338C55.1511 78.3794 55.4035 73.8153 58.1245 74.1113C60.6732 74.3883 62.7629 77.1483 65.3855 77.5505C67.3886 77.8573 68.6021 75.3111 70.5494 75.2553C72.8569 75.1883 76.5055 77.9865 77.9406 79.8781C75.3097 79.8155 72.9934 78.7014 70.2211 78.4939C68.5761 78.3711 67.6049 80.3135 66.2158 80.6507C64.701 81.0186 58.5775 78.1333 58.0682 77.9953C56.8528 77.667 56.0768 80.0679 55.0615 81.0137C53.5804 82.395 50.0013 81.3063 48.5946 80.455C47.4658 79.7724 46.9384 78.5467 45.5072 78.7625C45.2567 81.0485 44.4229 82.2805 42.1556 82.0187C39.8809 81.756 38.8994 82.141 37.3987 80.2866C36.0003 78.5585 34.9474 78.7772 33.228 79.8478C32.5396 80.2759 29.78 82.2727 30.2585 80.2142C30.8975 77.4727 34.0999 73.5036 35.8472 73.2057Z" fill="black"/>
</svg>
