<svg id="Component_1_1" data-name="Component 1 – 1" xmlns="http://www.w3.org/2000/svg" width="97.406" height="99.595" viewBox="0 0 97.406 99.595">
  <path id="Vector_13_" data-name="Vector (13)" d="M5.624,8.917C9.194-.046,15.708,3,20.386,2.755c5.559-.3,11.05-.621,16.6-1.113,5.569-.494,10.654.736,16.159,1.127C60.016,3.258,66.532.226,73.377.234,79.425.241,86.7,1.985,91.431,6.117c8.739,7.634,7.01,21.415,3.271,31.022C91.722,44.8,87.615,54.2,89.15,62.7c.843,4.667,4.274,8.191,3.167,13.1-3.389,15.028-15.965,26.224-31.228,23.661-4.432-.744-20.334-3.089-25.136-4.552C22.443,90.8,13.5,82.085,11.38,67.18,9.946,57.069,1.231,46.682.434,36.648-.168,29.085,2.893,15.776,5.624,8.917Z" transform="translate(-0.357 -0.234)" fill="#c1dee6" fill-rule="evenodd"/>
  <g id="exercise22" transform="translate(7.291 3.897)">
    <path id="Path_1" data-name="Path 1" d="M59.8,37.7c-1.9-3.8.8-6.1,1-8,1-8.9-2.1-14.7-6.3-19C47.6,3.5,38.7,2.1,33,2.1c-14.9.2-20.8,4.7-25.4,9.7C-1.9,22.3.2,31.6.2,31.6.4,37.1,8,47,8,47c6.1,8.8,3,15.4,3,15.4C23.2,65.1,33.1,83,33.1,83c.4-2.7,6.3-13.7,6.3-13.7,2.5-3,6.5-1.9,8.8-1.7,6.3.8,8-1.1,8-1.1,1.3-.8.8-4.4.8-4.4-.6-1.9.4-2.7.8-3.4,1.3-1.9.6-2.9.6-2.9-.4-.6-.2-.8-.2-.8,1.5-.6,1.7-1.3,1.7-1.3V50.8c-.2-1.9.6-2.1.6-2.1,3.4,0,3.4-2.3,3.4-2.3C64,45.1,59.8,37.7,59.8,37.7Zm-5-16c-.2,1.7-1.3,3-2.7,4.4-4.2,4.2-12,.6-17.7,4.8-2.3,1.7-1.3,8.2-7.2,8H26.1c-2.5,2.7-2.7,6.1-7.8,5.9A14.14,14.14,0,0,1,5,30.4v-.8c0-2.1.4-8.2,6.5-15,3.8-4.2,8.6-8.4,22.5-8.4,5.1,0,12.4,1.3,18.1,7.2C54.2,15.6,55.4,17.3,54.8,21.7Z"/>
    <g id="Group_2" data-name="Group 2">
      <g id="Group_1" data-name="Group 1">
        <path id="Path_2" data-name="Path 2" d="M66.1,15.5A18.977,18.977,0,0,1,71.6,2.1L74,4.5a15.452,15.452,0,0,0,0,22l-2,2.7A18.862,18.862,0,0,1,66.1,15.5Z"/>
        <path id="Path_3" data-name="Path 3" d="M73,15.5a11.872,11.872,0,0,1,4.4-9.3l2.5,2.5a8.621,8.621,0,0,0-3.4,6.9,8.918,8.918,0,0,0,3.4,6.9L77.4,25A12.755,12.755,0,0,1,73,15.5Z"/>
        <path id="Path_4" data-name="Path 4" d="M79.9,15.5a5.071,5.071,0,0,1,3.6-4.9l1.6,3.2a1.685,1.685,0,0,0-1.7,1.7,1.752,1.752,0,0,0,1.7,1.7l-1.6,3.2A5.259,5.259,0,0,1,79.9,15.5Z"/>
      </g>
    </g>
    <g id="Group_6" data-name="Group 6">
      <g id="Group_3" data-name="Group 3">
        <path id="Path_5" data-name="Path 5" d="M29.2,23.9l-2.7.8-.1-.3a5.987,5.987,0,0,1-.2-1.2,2.388,2.388,0,0,1,.2-.9c.1-.3.5-.8,1-1.7a1.129,1.129,0,0,0,.3-1,.7.7,0,0,0-.4-.5,1.1,1.1,0,0,0-.8,0,1.057,1.057,0,0,0-.7.6,1.778,1.778,0,0,0-.1,1.3l-2.7.4a3.83,3.83,0,0,1,.4-2.8,4.621,4.621,0,0,1,2.7-1.8,5.018,5.018,0,0,1,2.7-.1,2.879,2.879,0,0,1,2,2,2.845,2.845,0,0,1,0,1.3,5.6,5.6,0,0,1-1,1.8,2.2,2.2,0,0,0-.6,1.2A1.379,1.379,0,0,0,29.2,23.9Zm-2.6,1.6,2.9-.8.7,2.6-2.9.7Z"/>
      </g>
      <g id="Group_4" data-name="Group 4">
        <path id="Path_6" data-name="Path 6" d="M19.4,26.7l-2.7.8-.1-.3a5.987,5.987,0,0,1-.2-1.2,2.92,2.92,0,0,1,.2-.9c.1-.3.5-.8,1-1.7a1.129,1.129,0,0,0,.3-1,1,1,0,0,0-.4-.5,1.1,1.1,0,0,0-.8,0,1.057,1.057,0,0,0-.7.6,1.778,1.778,0,0,0-.1,1.3l-2.9.5a3.83,3.83,0,0,1,.4-2.8,4.621,4.621,0,0,1,2.7-1.8,5.018,5.018,0,0,1,2.7-.1,2.879,2.879,0,0,1,2,2,2.845,2.845,0,0,1,0,1.3,5.6,5.6,0,0,1-1,1.8,2.2,2.2,0,0,0-.6,1.2A2.353,2.353,0,0,0,19.4,26.7Zm-2.6,1.6,2.9-.8.7,2.6-2.9.8Z"/>
      </g>
      <g id="Group_5" data-name="Group 5">
        <path id="Path_7" data-name="Path 7" d="M39,21.1l-2.7.8-.1-.3a2.344,2.344,0,0,1-.2-1.1,2.92,2.92,0,0,1,.2-.9c.1-.3.5-.8,1-1.7a1.129,1.129,0,0,0,.3-1,1,1,0,0,0-.4-.5,1.1,1.1,0,0,0-.8,0,1.057,1.057,0,0,0-.7.6,2.524,2.524,0,0,0-.1,1.3l-2.9.5A3.83,3.83,0,0,1,33,16a4.621,4.621,0,0,1,2.7-1.8,5.018,5.018,0,0,1,2.7-.1,2.879,2.879,0,0,1,2,2,2.845,2.845,0,0,1,0,1.3,5.6,5.6,0,0,1-1,1.8,2.2,2.2,0,0,0-.6,1.2S38.9,20.7,39,21.1Zm-2.6,1.5,2.9-.8.7,2.6-2.9.8Z"/>
      </g>
    </g>
  </g>
</svg>
