<?xml version="1.0" encoding="utf-8"?>
<!-- Generator: Adobe Illustrator 18.0.0, SVG Export Plug-In . SVG Version: 6.00 Build 0)  -->
<!DOCTYPE svg PUBLIC "-//W3C//DTD SVG 1.1//EN" "http://www.w3.org/Graphics/SVG/1.1/DTD/svg11.dtd">
<svg version="1.1" id="Warstwa_1" xmlns="http://www.w3.org/2000/svg" xmlns:xlink="http://www.w3.org/1999/xlink" x="0px" y="0px"
	 viewBox="0 0 85 85" enable-background="new 0 0 85 85" xml:space="preserve">
<g>
	<g>
		<path fill="#FFFFFF" d="M46,29.4L46,29.4c-0.2,0.7-0.4,1.7-0.6,2.4l-0.7,2.6h2.7l-0.8-2.6C46.4,31.1,46.2,30.1,46,29.4z"/>
		<path fill="#FFFFFF" d="M28.6,20.3v26.5h26.5V20.3H28.6z M39.6,39.7h-7.7V27.3h2.8v10h4.9V39.7z M48.8,39.7l-1-3.2h-3.5l-0.9,3.2
			h-2.9l3.8-12.4H48l3.8,12.4H48.8z"/>
	</g>
	<path fill="#FFFFFF" d="M26.4,48.9V35.4L26,33L0,38l4.9,26l26-4.9L29,48.9H26.4z M10.2,56c-1.4,0.3-2.8,0.2-3.6-0.1l0.1-2.4
		c0.8,0.2,2,0.4,3.2,0.2c1.3-0.2,1.8-0.9,1.7-1.7c-0.1-0.8-0.8-1.1-2.4-1.3c-2.2-0.3-3.7-1.2-4-3c-0.4-2.1,1-4,3.9-4.5
		c1.4-0.3,2.4-0.2,3.2,0l-0.2,2.3c-0.5-0.1-1.5-0.3-2.7-0.1C8.3,45.7,7.8,46.3,8,47c0.1,0.8,0.9,1,2.6,1.3c2.3,0.4,3.5,1.3,3.8,3
		C14.8,53.3,13.5,55.4,10.2,56z M22.5,53.5L19.7,54l-0.9-5l-5.2-6.5l3.1-0.6l1.8,2.7c0.5,0.8,0.9,1.4,1.4,2.2l0,0
		c0.1-0.8,0.3-1.6,0.5-2.5l0.7-3.2l3.1-0.6l-2.7,7.9L22.5,53.5z"/>
	<g>
		<path fill="#FFFFFF" d="M66.1,45.9c0.2-0.9-0.4-1.5-1.7-1.8C63.8,44,63.4,44,63.2,44l-0.5,2.8l0.9,0.2
			C65,47.2,65.9,46.8,66.1,45.9z"/>
		<path fill="#FFFFFF" d="M63.3,48.9l-0.9-0.2l-0.6,3.4c0.3,0.1,0.6,0.1,1.1,0.2c1.2,0.2,2.4,0,2.7-1.3
			C65.6,49.9,64.6,49.2,63.3,48.9z"/>
		<path fill="#FFFFFF" d="M59,34l-1.8,9.9v4.9h-0.9l-2,11.2l26,4.7l4.7-26L59,34z M68.9,46c-0.2,1.1-1,2-2.5,2.2l0,0
			c1.3,0.6,2.2,1.9,1.9,3.4c-0.2,1.1-0.9,1.9-1.7,2.4c-1,0.5-2.6,0.7-5,0.2c-1.4-0.2-2.4-0.5-2.9-0.7l2.2-12c0.7,0,2.2,0.1,3.6,0.4
			c1.7,0.3,2.7,0.7,3.5,1.3C68.6,44,69.1,44.9,68.9,46z M75.4,51.5l-0.9,5.1L71.7,56l0.9-5l-2.5-7.9l3.1,0.6l0.7,3.2
			c0.2,1,0.4,1.7,0.5,2.5l0,0c0.4-0.7,0.8-1.4,1.3-2.2l1.8-2.7l3.1,0.6L75.4,51.5z"/>
	</g>
</g>
</svg>
