<?xml version="1.0" encoding="utf-8"?>
<!-- Generator: Adobe Illustrator 18.0.0, SVG Export Plug-In . SVG Version: 6.00 Build 0)  -->
<!DOCTYPE svg PUBLIC "-//W3C//DTD SVG 1.1//EN" "http://www.w3.org/Graphics/SVG/1.1/DTD/svg11.dtd">
<svg version="1.1" id="Warstwa_1" xmlns="http://www.w3.org/2000/svg" xmlns:xlink="http://www.w3.org/1999/xlink" x="0px" y="0px"
	 viewBox="0 0 85 85" enable-background="new 0 0 85 85" xml:space="preserve">
<g>
	<path fill="#FFFFFF" d="M22,68.9c0-7.5,3.3-14.5,3.3-12.6c0,1.9,3.7-5.6,5.6-9.3c1.9-3.7,3.7-8.9,3.7-8.9l7.5,0.5
		c0,0,1.9-16.3-1.9-18.2c-3.7-1.9-7.6,0.7-11.2-1.4c-9.3-5.6-24.3-1.9-22.4,1.9c0,0-7.5,3.7-5.6,5.6c0,0-1.9,2.8,0.5,5.6
		c-2.3,2.8-1.4,5.6,0,7.5C0,42.3-0.9,45.1,4.7,47c3.5,1.2,13.1-3.3,13.1,1.9c0,1.9-3.7,7.5-3.7,11.2C14,67.5,22,68.9,22,68.9z"/>
	<path fill="#FFFFFF" d="M63.1,16.1c0,7.5-3.3,14.5-3.3,12.6c0-1.9-3.7,5.6-5.6,9.3c-1.9,3.7-3.7,8.9-3.7,8.9L43,46.5
		c0,0-1.9,16.3,1.9,18.2c3.7,1.9,7.6-0.7,11.2,1.4c9.3,5.6,24.3,1.9,22.4-1.9c0,0,7.5-3.7,5.6-5.6c0,0,1.9-2.8-0.5-5.6
		c2.3-2.8,1.4-5.6,0-7.5c1.4-2.8,2.3-5.6-3.3-7.5c-3.5-1.2-13.1,3.3-13.1-1.9c0-1.9,3.7-7.5,3.7-11.2C71,17.5,63.1,16.1,63.1,16.1z"
		/>
</g>
</svg>
