<svg id="Component_1_1" data-name="Component 1 – 1" xmlns="http://www.w3.org/2000/svg" width="128.316" height="118.87" viewBox="0 0 128.316 118.87">
  <path id="Vector_12_" data-name="Vector (12)" d="M18.448,9.151A77.128,77.128,0,0,0,26.6,8.444C32.558,7.3,38.067,4.059,43.88,2.317c10.209-3.06,19.876-3.93,28.9,2.7,3.706,2.722,6.7,6.378,10.091,9.466,4.584,4.171,9.436,8.047,14.141,12.068,8.381,7.162,18.322,12.982,25.934,21.035,5.166,5.465,5.634,11.521,5.271,18.8a92.845,92.845,0,0,1-3.334,21.429c-1.959,6.523-6.308,12.181-10.225,17.694-3.625,5.1-8.282,8.455-14.45,9.259-9.024,1.177-18.108-.12-27.177,1.475-10.438,1.835-20.122,3.085-30.733,2.462-6.342-.373-14.747-.046-20.7-2.684-2.563-1.134-4.32-3.581-6.34-5.433a80.736,80.736,0,0,1-6.469-6.185C2.737,97.484.906,89.976.251,80.885c-.913-12.679.808-25.207,2.922-37.671.881-5.2,2.38-10.037,1.918-14.949-.526-5.6.594-10.753,3.636-14.681C8.727,13.584,15.6,9.4,18.448,9.151Z" fill="#c1dee6" fill-rule="evenodd"/>
  <g id="exercise08" transform="translate(13 16.985)">
    <path id="Path_1" data-name="Path 1" d="M22.2,47.5h8.6V69H78V81.8H71.6V75.4H30.8v6.4H22.2V47.5ZM75.9,66.9h-29V54c10,0,16.8,0,22.2,2.1C74.4,58.3,75.1,62.6,75.9,66.9Zm-43-5.4,8.6,1.1v4.3H32.9Zm4.3-9.7a4.3,4.3,0,1,1-4.3,4.3A4.268,4.268,0,0,1,37.2,51.8ZM43.1,54h2.7V66.9H43.1Z"/>
    <g id="Group_1" data-name="Group 1">
      <path id="Path_2" data-name="Path 2" d="M62.1,32.8a2.332,2.332,0,0,1,0-2l3.5-5-.2-.7-1-4.8-1,1.5a3.394,3.394,0,0,1-.6.6,1.853,1.853,0,0,1-.8.7l-5.4,2.6A1.879,1.879,0,1,1,55,22.3l5.3-2.6,3.4-5A3.832,3.832,0,0,1,66.5,12,3.906,3.906,0,0,1,71,14.9l1.8,8.6.1.9,3,5.9h0l7.2,1.3c1.4.3,2.3,1.2,2,2.6a2.47,2.47,0,0,1-2.9,2L75,35.3a6.89,6.89,0,0,1-.8-.3c-.3-.1-1.4-.5-1.5-.8L69.9,29l-2.8,3,1.7,8c.3,1.4-.2,3.1-1.6,3.4a3.257,3.257,0,0,1-3.4-2.3Z"/>
      <circle id="Ellipse_1" data-name="Ellipse 1" cx="3.8" cy="3.8" r="3.8" transform="translate(62.8 3.1)"/>
    </g>
    <path id="Path_3" data-name="Path 3" d="M8.3,21.8a8.525,8.525,0,0,1,3.5.8l4.8-9.1H14.2V11.1h7.1v2.4H19L17.1,17h12l.6-1.2H26.1V13.4h7.1v2.4H32l-1.6,3h.4L33,22.7a7.786,7.786,0,0,1,3.7-.9,8.3,8.3,0,1,1-8.2,9.5H21.3l-6-11-1.8,3.3a8.329,8.329,0,1,1-5.2-1.8Zm16.8,7.1h3.6a8.385,8.385,0,0,1,2.8-5.1l-1.9-3.2Zm2.7-9.5H17.3l5.3,9.7ZM8.3,24.2A5.9,5.9,0,1,0,8.3,36a5.977,5.977,0,0,0,5.9-5.9,6.043,6.043,0,0,0-1.8-4.3L9.5,31.3H7.1l3.5-6.7A7.308,7.308,0,0,0,8.3,24.2Zm28.6,0a5.834,5.834,0,0,0-2.6.6L38,31.4H31a6.078,6.078,0,0,0,5.8,4.8,5.911,5.911,0,0,0,5.9-5.9A6,6,0,0,0,36.9,24.2Zm-5.8,4.7h3.3l-1.7-3A6.294,6.294,0,0,0,31.1,28.9Z"/>
  </g>
</svg>
