<svg id="Component_6_1" data-name="Component 6 – 1" xmlns="http://www.w3.org/2000/svg" width="128.576" height="98.499" viewBox="0 0 128.576 98.499">
  <path id="Vector_12_" data-name="Vector (12)" d="M18.486,7.583c2.751-.2,5.418-.146,8.172-.585,5.967-.951,11.487-3.634,17.312-5.078C54.2-.616,63.885-1.337,72.932,4.159,76.645,6.415,79.643,9.444,83.044,12c4.594,3.456,9.455,6.668,14.17,10,8.4,5.934,18.359,10.757,25.986,17.43,5.177,4.528,5.645,9.547,5.282,15.579a64.761,64.761,0,0,1-3.341,17.757c-1.963,5.405-6.32,10.094-10.245,14.662A21.419,21.419,0,0,1,100.417,95.1c-9.043.975-18.145-.1-27.233,1.222-10.459,1.52-20.163,2.557-30.8,2.04-6.355-.309-14.777-.038-20.743-2.224-2.568-.94-4.329-2.968-6.352-4.5A76.529,76.529,0,0,1,8.81,86.513C2.742,80.778.907,74.557.251,67.024c-.915-10.506.809-20.887,2.928-31.215C4.062,31.5,5.564,27.491,5.1,23.421A14.774,14.774,0,0,1,8.745,11.256S15.627,7.788,18.486,7.583Z" fill="#c1dee6" fill-rule="evenodd"/>
  <g id="exercise20" transform="translate(11.997 13.9)">
    <path id="Path_96" data-name="Path 96" d="M59.8,37.7c-1.9-3.8.8-6.1,1-8,1-8.9-2.1-14.7-6.3-19C47.6,3.5,38.7,2.1,33,2.1c-14.9.2-20.8,4.7-25.4,9.7C-1.9,22.3.2,31.6.2,31.6.4,37.1,8,47,8,47c6.1,8.8,3,15.4,3,15.4C23.2,65.1,33.1,83,33.1,83c.4-2.7,6.3-13.7,6.3-13.7,2.5-3,6.5-1.9,8.8-1.7,6.3.8,8-1.1,8-1.1,1.3-.8.8-4.4.8-4.4-.6-1.9.4-2.7.8-3.4,1.3-1.9.6-2.9.6-2.9-.4-.6-.2-.8-.2-.8,1.5-.6,1.7-1.3,1.7-1.3V50.8c-.2-1.9.6-2.1.6-2.1,3.4,0,3.4-2.3,3.4-2.3C64,45.1,59.8,37.7,59.8,37.7Zm-5-16c-.2,1.7-1.3,3-2.7,4.4-4.2,4.2-12,.6-17.7,4.8-2.3,1.7-1.3,8.2-7.2,8H26.1c-2.5,2.7-2.7,6.1-7.8,5.9A14.14,14.14,0,0,1,5,30.4v-.8c0-2.1.4-8.2,6.5-15,3.8-4.2,8.6-8.4,22.5-8.4,5.1,0,12.4,1.3,18.1,7.2C54.2,15.6,55.4,17.3,54.8,21.7Z"/>
    <g id="Group_15" data-name="Group 15">
      <g id="Group_14" data-name="Group 14">
        <path id="Path_97" data-name="Path 97" d="M66.1,15.5A18.977,18.977,0,0,1,71.6,2.1L74,4.5a15.452,15.452,0,0,0,0,22l-2,2.7A18.862,18.862,0,0,1,66.1,15.5Z"/>
        <path id="Path_98" data-name="Path 98" d="M73,15.5a11.872,11.872,0,0,1,4.4-9.3l2.5,2.5a8.621,8.621,0,0,0-3.4,6.9,8.918,8.918,0,0,0,3.4,6.9L77.4,25A12.755,12.755,0,0,1,73,15.5Z"/>
        <path id="Path_99" data-name="Path 99" d="M79.9,15.5a5.071,5.071,0,0,1,3.6-4.9l1.6,3.2a1.685,1.685,0,0,0-1.7,1.7,1.752,1.752,0,0,0,1.7,1.7l-1.6,3.2A5.259,5.259,0,0,1,79.9,15.5Z"/>
      </g>
    </g>
    <g id="Group_19" data-name="Group 19">
      <g id="Group_16" data-name="Group 16">
        <path id="Path_100" data-name="Path 100" d="M29.2,23.9l-2.7.8-.1-.3a5.987,5.987,0,0,1-.2-1.2,2.388,2.388,0,0,1,.2-.9c.1-.3.5-.8,1-1.7a1.129,1.129,0,0,0,.3-1,.7.7,0,0,0-.4-.5,1.1,1.1,0,0,0-.8,0,1.057,1.057,0,0,0-.7.6,1.778,1.778,0,0,0-.1,1.3l-2.7.4a3.83,3.83,0,0,1,.4-2.8,4.621,4.621,0,0,1,2.7-1.8,5.018,5.018,0,0,1,2.7-.1,2.879,2.879,0,0,1,2,2,2.845,2.845,0,0,1,0,1.3,5.6,5.6,0,0,1-1,1.8,2.2,2.2,0,0,0-.6,1.2A1.379,1.379,0,0,0,29.2,23.9Zm-2.6,1.6,2.9-.8.7,2.6-2.9.7Z"/>
      </g>
      <g id="Group_17" data-name="Group 17">
        <path id="Path_101" data-name="Path 101" d="M19.4,26.7l-2.7.8-.1-.3a5.987,5.987,0,0,1-.2-1.2,2.92,2.92,0,0,1,.2-.9c.1-.3.5-.8,1-1.7a1.129,1.129,0,0,0,.3-1,1,1,0,0,0-.4-.5,1.1,1.1,0,0,0-.8,0,1.057,1.057,0,0,0-.7.6,1.778,1.778,0,0,0-.1,1.3l-2.9.5a3.83,3.83,0,0,1,.4-2.8,4.621,4.621,0,0,1,2.7-1.8,5.018,5.018,0,0,1,2.7-.1,2.879,2.879,0,0,1,2,2,2.845,2.845,0,0,1,0,1.3,5.6,5.6,0,0,1-1,1.8,2.2,2.2,0,0,0-.6,1.2A2.353,2.353,0,0,0,19.4,26.7Zm-2.6,1.6,2.9-.8.7,2.6-2.9.8Z"/>
      </g>
      <g id="Group_18" data-name="Group 18">
        <path id="Path_102" data-name="Path 102" d="M39,21.1l-2.7.8-.1-.3a2.344,2.344,0,0,1-.2-1.1,2.92,2.92,0,0,1,.2-.9c.1-.3.5-.8,1-1.7a1.129,1.129,0,0,0,.3-1,1,1,0,0,0-.4-.5,1.1,1.1,0,0,0-.8,0,1.057,1.057,0,0,0-.7.6,2.524,2.524,0,0,0-.1,1.3l-2.9.5A3.83,3.83,0,0,1,33,16a4.621,4.621,0,0,1,2.7-1.8,5.018,5.018,0,0,1,2.7-.1,2.879,2.879,0,0,1,2,2,2.845,2.845,0,0,1,0,1.3,5.6,5.6,0,0,1-1,1.8,2.2,2.2,0,0,0-.6,1.2S38.9,20.7,39,21.1Zm-2.6,1.5,2.9-.8.7,2.6-2.9.8Z"/>
      </g>
    </g>
  </g>
</svg>
