<svg id="Component_1_1" data-name="Component 1 – 1" xmlns="http://www.w3.org/2000/svg" xmlns:xlink="http://www.w3.org/1999/xlink" width="560.869" height="464.128" viewBox="0 0 560.869 464.128">
  <defs>
    <clipPath id="clip-path">
      <rect id="Rectangle_1" data-name="Rectangle 1" width="547" height="393" transform="translate(3462 244)" stroke="#000" stroke-width="1"/>
    </clipPath>
  </defs>
  <path id="Vector_14_" data-name="Vector (14)" d="M87.834,109.617c-11.365-15.653-.158-42.176,6.827-52.881,16-24.535,43.407-36.531,73.888-41.483,27-4.386,50.845-1.371,77.926-1.393,29.27-.024,56.343-6.865,84.83-10.037C382.653-1.9,485.046-9.057,507.344,46.732c15.041,37.628-1.186,75.941-12.116,112.759-11.084,37.346-9.4,66.91,4.791,103.036,10.11,25.729,17.676,51.564,21.9,78.618,14.65,93.875-124,106.052-198.69,110.129-28.01,1.525-55.979-1.658-83.571-2.614-29.647-1.03-55.646,14.887-85.647,15.434-27.9.51-63.044-4.925-90.393-10.361-27.8-5.522-40.076-26.337-48.458-48.624-15.771-41.941-25.5-70.261,3.23-109.375,27.76-37.8,44.543-80.324,64.647-121.446C92.928,154.052,97.732,123.248,87.834,109.617Z" fill="#c1dee6" fill-rule="evenodd"/>
  <g id="Mask_Group_1" data-name="Mask Group 1" transform="translate(-3448.131 -194.707)" clip-path="url(#clip-path)">
    <g id="exercise31" transform="translate(3537.982 193.198)">
      <circle id="path4144" cx="174.294" cy="174.294" r="174.294" transform="translate(23.223 73.007)" fill="none" stroke="#000" stroke-width="44.411"/>
      <rect id="rect4364" width="35.367" height="150.702" rx="17.684" transform="translate(183.403 101.897)"/>
      <rect id="rect4364-3" width="35.367" height="117.48" rx="17.684" transform="translate(188.851 252.598) rotate(-90)"/>
    </g>
  </g>
</svg>
