<?xml version="1.0" encoding="UTF-8" standalone="no"?>
<!-- Creator: CorelDRAW X7 -->

<svg
   xmlns:dc="http://purl.org/dc/elements/1.1/"
   xmlns:cc="http://creativecommons.org/ns#"
   xmlns:rdf="http://www.w3.org/1999/02/22-rdf-syntax-ns#"
   xmlns:svg="http://www.w3.org/2000/svg"
   xmlns="http://www.w3.org/2000/svg"
   xmlns:sodipodi="http://sodipodi.sourceforge.net/DTD/sodipodi-0.dtd"
   xmlns:inkscape="http://www.inkscape.org/namespaces/inkscape"
   xml:space="preserve"
   width="128.71097mm"
   height="90.176407mm"
   version="1.1"
   style="clip-rule:evenodd;fill-rule:evenodd;image-rendering:optimizeQuality;shape-rendering:geometricPrecision;text-rendering:geometricPrecision"
   viewBox="0 0 12871.097 9017.641"
   enable-background="new 0 0 127.6 127.6"
   id="svg2"
   inkscape:version="0.91 r13725"
   sodipodi:docname="exercise09.svg"><metadata
   id="metadata14"><rdf:RDF><cc:Work
       rdf:about=""><dc:format>image/svg+xml</dc:format><dc:type
         rdf:resource="http://purl.org/dc/dcmitype/StillImage" /><dc:title></dc:title></cc:Work></rdf:RDF></metadata><sodipodi:namedview
   pagecolor="#ffffff"
   bordercolor="#666666"
   borderopacity="1"
   objecttolerance="10"
   gridtolerance="10"
   guidetolerance="10"
   inkscape:pageopacity="0"
   inkscape:pageshadow="2"
   inkscape:window-width="1366"
   inkscape:window-height="706"
   id="namedview12"
   showgrid="false"
   inkscape:zoom="0.4767677"
   inkscape:cx="307.34756"
   inkscape:cy="19.490043"
   inkscape:window-x="-8"
   inkscape:window-y="-8"
   inkscape:window-maximized="1"
   inkscape:current-layer="layer2"
   fit-margin-top="0"
   fit-margin-left="0"
   fit-margin-right="0"
   fit-margin-bottom="0" />
 <defs
   id="defs4">
  <style
   type="text/css"
   id="style6">
   <![CDATA[
    .fil0 {fill:white}
   ]]>
  </style>
 </defs>
 
<g
   inkscape:groupmode="layer"
   id="layer1"
   inkscape:label="Layer 1"
   transform="translate(1904.5031,-19999.216)" /><g
   inkscape:groupmode="layer"
   id="layer2"
   inkscape:label="Layer 2"
   transform="translate(1904.5031,-19999.216)"><text
   xml:space="preserve"
   style="font-style:normal;font-variant:normal;font-weight:900;font-stretch:normal;font-size:2116.66674805px;line-height:125%;font-family:Arial;-inkscape-font-specification:'Arial, Heavy';text-align:center;letter-spacing:0px;word-spacing:0px;writing-mode:lr-tb;text-anchor:middle;fill:#ffffff;fill-opacity:1;stroke:none;stroke-width:2.82222223;stroke-linecap:butt;stroke-linejoin:miter;stroke-miterlimit:4;stroke-dasharray:none;stroke-opacity:1"
   x="4043.8623"
   y="22537.395"
   id="text4150"
   sodipodi:linespacing="125%"
   transform="scale(1.0511533,0.95133603)"><tspan
     sodipodi:role="line"
     id="tspan4152"
     x="4043.8623"
     y="22537.395">MURARZ</tspan></text>


<rect
   style="fill:#ffffff;fill-opacity:1;stroke:#ffffff;stroke-width:0.97252625;stroke-miterlimit:4;stroke-dasharray:none;stroke-dashoffset:0;stroke-opacity:1"
   id="rect4214"
   width="997.97382"
   height="686.69446"
   x="162.27887"
   y="23561.549" /><rect
   style="clip-rule:evenodd;fill:#ffffff;fill-opacity:1;fill-rule:evenodd;stroke:#ffffff;stroke-width:1.16874373;stroke-miterlimit:4;stroke-dasharray:none;stroke-dashoffset:0;stroke-opacity:1;image-rendering:optimizeQuality;shape-rendering:geometricPrecision;text-rendering:geometricPrecision"
   id="rect4214-6-1"
   width="1441.74"
   height="686.48615"
   x="2826.0781"
   y="23561.654" /><rect
   style="clip-rule:evenodd;fill:#ffffff;fill-opacity:1;fill-rule:evenodd;stroke:#ffffff;stroke-width:1.16874373;stroke-miterlimit:4;stroke-dasharray:none;stroke-dashoffset:0;stroke-opacity:1;image-rendering:optimizeQuality;shape-rendering:geometricPrecision;text-rendering:geometricPrecision"
   id="rect4214-6-1-8"
   width="1441.74"
   height="686.48615"
   x="4379.9067"
   y="23561.654" /><rect
   style="clip-rule:evenodd;fill:#ffffff;fill-opacity:1;fill-rule:evenodd;stroke:#ffffff;stroke-width:1.16874373;stroke-miterlimit:4;stroke-dasharray:none;stroke-dashoffset:0;stroke-opacity:1;image-rendering:optimizeQuality;shape-rendering:geometricPrecision;text-rendering:geometricPrecision"
   id="rect4214-6-1-2"
   width="1441.74"
   height="686.48615"
   x="5933.7358"
   y="23561.654" /><rect
   style="clip-rule:evenodd;fill:#ffffff;fill-opacity:1;fill-rule:evenodd;stroke:#ffffff;stroke-width:1.16874373;stroke-miterlimit:4;stroke-dasharray:none;stroke-dashoffset:0;stroke-opacity:1;image-rendering:optimizeQuality;shape-rendering:geometricPrecision;text-rendering:geometricPrecision"
   id="rect4214-6-1-9"
   width="1441.74"
   height="686.48615"
   x="1272.2491"
   y="23561.654" /><rect
   style="clip-rule:evenodd;fill:#ffffff;fill-opacity:1;fill-rule:evenodd;stroke:#ffffff;stroke-width:0.9169203;stroke-miterlimit:4;stroke-dasharray:none;stroke-dashoffset:0;stroke-opacity:1;image-rendering:optimizeQuality;shape-rendering:geometricPrecision;text-rendering:geometricPrecision"
   id="rect4214-6-1-2-7"
   width="887.03833"
   height="686.75342"
   x="7487.4468"
   y="23561.52" /><rect
   style="clip-rule:evenodd;fill:#ffffff;fill-opacity:1;fill-rule:evenodd;stroke:#ffffff;stroke-width:1.16874373;stroke-miterlimit:4;stroke-dasharray:none;stroke-dashoffset:0;stroke-opacity:1;image-rendering:optimizeQuality;shape-rendering:geometricPrecision;text-rendering:geometricPrecision"
   id="rect4214-6-1-2-7-9"
   width="1441.74"
   height="686.48615"
   x="162.37131"
   y="22748.885" /><rect
   style="clip-rule:evenodd;fill:#ffffff;fill-opacity:1;fill-rule:evenodd;stroke:#ffffff;stroke-width:1.16874373;stroke-miterlimit:4;stroke-dasharray:none;stroke-dashoffset:0;stroke-opacity:1;image-rendering:optimizeQuality;shape-rendering:geometricPrecision;text-rendering:geometricPrecision"
   id="rect4214-6-1-2-7-9-6"
   width="1441.74"
   height="686.48615"
   x="1716.2003"
   y="22748.885" /><rect
   style="clip-rule:evenodd;fill:#ffffff;fill-opacity:1;fill-rule:evenodd;stroke:#ffffff;stroke-width:1.16874373;stroke-miterlimit:4;stroke-dasharray:none;stroke-dashoffset:0;stroke-opacity:1;image-rendering:optimizeQuality;shape-rendering:geometricPrecision;text-rendering:geometricPrecision"
   id="rect4214-6-1-2-7-9-3"
   width="1441.74"
   height="686.48615"
   x="3270.0288"
   y="22748.885" /><rect
   style="clip-rule:evenodd;fill:#ffffff;fill-opacity:1;fill-rule:evenodd;stroke:#ffffff;stroke-width:1.16874373;stroke-miterlimit:4;stroke-dasharray:none;stroke-dashoffset:0;stroke-opacity:1;image-rendering:optimizeQuality;shape-rendering:geometricPrecision;text-rendering:geometricPrecision"
   id="rect4214-6-1-2-7-9-0"
   width="1441.74"
   height="686.48615"
   x="4823.8579"
   y="22748.885" /><rect
   style="clip-rule:evenodd;fill:#ffffff;fill-opacity:1;fill-rule:evenodd;stroke:#ffffff;stroke-width:1.16874373;stroke-miterlimit:4;stroke-dasharray:none;stroke-dashoffset:0;stroke-opacity:1;image-rendering:optimizeQuality;shape-rendering:geometricPrecision;text-rendering:geometricPrecision"
   id="rect4214-6-1-2-7-9-65"
   width="1441.74"
   height="686.48615"
   x="6377.687"
   y="22748.885" /><rect
   style="clip-rule:evenodd;fill:#ffffff;fill-opacity:1;fill-rule:evenodd;stroke:#ffffff;stroke-width:0.64836431;stroke-miterlimit:4;stroke-dasharray:none;stroke-dashoffset:0;stroke-opacity:1;image-rendering:optimizeQuality;shape-rendering:geometricPrecision;text-rendering:geometricPrecision"
   id="rect4214-6-1-2-7-9-9"
   width="443.34027"
   height="687.03851"
   x="7931.271"
   y="22748.609" /><rect
   style="clip-rule:evenodd;fill:#ffffff;fill-opacity:1;fill-rule:evenodd;stroke:#ffffff;stroke-width:0.97252613;stroke-miterlimit:4;stroke-dasharray:none;stroke-dashoffset:0;stroke-opacity:1;image-rendering:optimizeQuality;shape-rendering:geometricPrecision;text-rendering:geometricPrecision"
   id="rect4214-0"
   width="997.97382"
   height="686.69446"
   x="162.27887"
   y="25187.086" /><rect
   style="clip-rule:evenodd;fill:#ffffff;fill-opacity:1;fill-rule:evenodd;stroke:#ffffff;stroke-width:1.16874373;stroke-miterlimit:4;stroke-dasharray:none;stroke-dashoffset:0;stroke-opacity:1;image-rendering:optimizeQuality;shape-rendering:geometricPrecision;text-rendering:geometricPrecision"
   id="rect4214-6-1-5"
   width="1441.74"
   height="686.48615"
   x="2826.0776"
   y="25187.189" /><rect
   style="clip-rule:evenodd;fill:#ffffff;fill-opacity:1;fill-rule:evenodd;stroke:#ffffff;stroke-width:1.16874373;stroke-miterlimit:4;stroke-dasharray:none;stroke-dashoffset:0;stroke-opacity:1;image-rendering:optimizeQuality;shape-rendering:geometricPrecision;text-rendering:geometricPrecision"
   id="rect4214-6-1-8-69"
   width="1441.74"
   height="686.48615"
   x="4379.9067"
   y="25187.189" /><rect
   style="clip-rule:evenodd;fill:#ffffff;fill-opacity:1;fill-rule:evenodd;stroke:#ffffff;stroke-width:1.16874373;stroke-miterlimit:4;stroke-dasharray:none;stroke-dashoffset:0;stroke-opacity:1;image-rendering:optimizeQuality;shape-rendering:geometricPrecision;text-rendering:geometricPrecision"
   id="rect4214-6-1-2-0"
   width="1441.74"
   height="686.48615"
   x="5933.7354"
   y="25187.189" /><rect
   style="clip-rule:evenodd;fill:#ffffff;fill-opacity:1;fill-rule:evenodd;stroke:#ffffff;stroke-width:1.16874373;stroke-miterlimit:4;stroke-dasharray:none;stroke-dashoffset:0;stroke-opacity:1;image-rendering:optimizeQuality;shape-rendering:geometricPrecision;text-rendering:geometricPrecision"
   id="rect4214-6-1-9-5"
   width="1441.74"
   height="686.48615"
   x="1272.2494"
   y="25187.189" /><rect
   style="clip-rule:evenodd;fill:#ffffff;fill-opacity:1;fill-rule:evenodd;stroke:#ffffff;stroke-width:0.9169203;stroke-miterlimit:4;stroke-dasharray:none;stroke-dashoffset:0;stroke-opacity:1;image-rendering:optimizeQuality;shape-rendering:geometricPrecision;text-rendering:geometricPrecision"
   id="rect4214-6-1-2-7-1"
   width="887.03833"
   height="686.75348"
   x="7487.4458"
   y="25187.057" /><rect
   style="clip-rule:evenodd;fill:#ffffff;fill-opacity:1;fill-rule:evenodd;stroke:#ffffff;stroke-width:1.16874373;stroke-miterlimit:4;stroke-dasharray:none;stroke-dashoffset:0;stroke-opacity:1;image-rendering:optimizeQuality;shape-rendering:geometricPrecision;text-rendering:geometricPrecision"
   id="rect4214-6-1-2-7-9-08"
   width="1441.74"
   height="686.48615"
   x="162.37132"
   y="24374.422" /><rect
   style="clip-rule:evenodd;fill:#ffffff;fill-opacity:1;fill-rule:evenodd;stroke:#ffffff;stroke-width:1.16874373;stroke-miterlimit:4;stroke-dasharray:none;stroke-dashoffset:0;stroke-opacity:1;image-rendering:optimizeQuality;shape-rendering:geometricPrecision;text-rendering:geometricPrecision"
   id="rect4214-6-1-2-7-9-6-0"
   width="1441.74"
   height="686.48615"
   x="1716.2003"
   y="24374.422" /><rect
   style="clip-rule:evenodd;fill:#ffffff;fill-opacity:1;fill-rule:evenodd;stroke:#ffffff;stroke-width:1.16874373;stroke-miterlimit:4;stroke-dasharray:none;stroke-dashoffset:0;stroke-opacity:1;image-rendering:optimizeQuality;shape-rendering:geometricPrecision;text-rendering:geometricPrecision"
   id="rect4214-6-1-2-7-9-3-2"
   width="1441.74"
   height="686.48615"
   x="3270.0288"
   y="24374.422" /><rect
   style="clip-rule:evenodd;fill:#ffffff;fill-opacity:1;fill-rule:evenodd;stroke:#ffffff;stroke-width:1.16874373;stroke-miterlimit:4;stroke-dasharray:none;stroke-dashoffset:0;stroke-opacity:1;image-rendering:optimizeQuality;shape-rendering:geometricPrecision;text-rendering:geometricPrecision"
   id="rect4214-6-1-2-7-9-0-5"
   width="1441.74"
   height="686.48615"
   x="4823.8579"
   y="24374.422" /><rect
   style="clip-rule:evenodd;fill:#ffffff;fill-opacity:1;fill-rule:evenodd;stroke:#ffffff;stroke-width:1.16874373;stroke-miterlimit:4;stroke-dasharray:none;stroke-dashoffset:0;stroke-opacity:1;image-rendering:optimizeQuality;shape-rendering:geometricPrecision;text-rendering:geometricPrecision"
   id="rect4214-6-1-2-7-9-65-8"
   width="1441.74"
   height="686.48615"
   x="6377.6875"
   y="24374.422" /><rect
   style="clip-rule:evenodd;fill:#ffffff;fill-opacity:1;fill-rule:evenodd;stroke:#ffffff;stroke-width:0.64836431;stroke-miterlimit:4;stroke-dasharray:none;stroke-dashoffset:0;stroke-opacity:1;image-rendering:optimizeQuality;shape-rendering:geometricPrecision;text-rendering:geometricPrecision"
   id="rect4214-6-1-2-7-9-9-0"
   width="443.34027"
   height="687.03851"
   x="7931.2715"
   y="24374.145" /><path
   style="font-style:normal;font-variant:normal;font-weight:900;font-stretch:normal;font-size:2116.66674805px;line-height:125%;font-family:Arial;-inkscape-font-specification:'Arial, Heavy';text-align:center;letter-spacing:0px;word-spacing:0px;writing-mode:lr-tb;text-anchor:middle;clip-rule:evenodd;fill:#ffffff;fill-opacity:1;fill-rule:evenodd;stroke:none;stroke-width:2.82222223;stroke-linecap:butt;stroke-linejoin:miter;stroke-miterlimit:4;stroke-dasharray:none;stroke-opacity:1;image-rendering:optimizeQuality;shape-rendering:geometricPrecision;text-rendering:geometricPrecision"
   d="m -1904.504,26944.949 0,2071.908 12871.098,0 0,-2071.908 -12871.098,0 z m 1110.86421,271.087 647.51262,0 249.86589,877.039 248.76345,-877.039 645.30776,0 0,1441.428 -401.94621,0 0,-1099.288 -311.76737,1099.288 -363.967445,0 -310.720065,-1099.288 0,1099.288 -403.04863,0 0,-1441.428 z m 2105.42199,0 491.0776,0 0,880.016 c 0,78.658 23.9117,140.249 71.7132,184.822 48.5257,43.918 115.5098,65.871 200.9731,65.871 84.7389,0 151.0219,-21.616 198.8233,-64.879 48.5257,-43.917 72.7604,-105.845 72.7604,-185.814 l 0,-880.016 491.0778,0 0,859.345 c 0,85.214 -14.8434,165.837 -44.5383,241.873 -28.9706,75.382 -74.9581,141.576 -137.9692,198.603 -62.2867,56.372 -127.8684,96.066 -196.6736,119.008 -95.6029,32.119 -210.4103,48.176 -344.3993,48.176 -77.4963,0 -162.1837,-4.94 -254.1653,-14.773 -91.2574,-9.832 -167.688,-29.146 -229.2505,-57.987 -61.5625,-29.497 -118.0759,-71.156 -169.4987,-124.906 -50.6985,-53.75 -85.459,-109.109 -104.2899,-166.136 -30.4191,-91.769 -45.6406,-173.065 -45.6406,-243.858 l 0,-859.345 z m 1861.0132,0 820.2634,0 c 152.0954,0 268.3052,11.791 348.6988,35.388 80.3932,23.598 145.2186,67.503 194.4686,131.741 49.25,63.582 73.8629,141.285 73.8629,233.054 0,79.969 -18.8377,149.139 -56.4995,207.477 -37.662,57.683 -89.4243,104.508 -155.3325,140.56 -42.0074,22.942 -99.6002,41.975 -172.7508,57.051 58.6653,17.698 101.4149,35.384 128.2124,53.082 18.1068,11.799 44.1771,37.063 78.2176,75.737 34.7647,38.674 57.9199,68.487 69.5083,89.462 l 237.9596,417.876 -556.2312,0 -262.9298,-440.476 c -33.3161,-57.027 -63.0028,-94.082 -89.0764,-111.125 -35.4889,-22.286 -75.7016,-33.459 -120.606,-33.459 l -43.4357,0 0,585.06 -494.3297,0 0,-1441.428 z m 1685.0098,0 491.0226,0 0,880.016 c 0,78.658 23.9116,140.249 71.7133,184.822 48.5255,43.918 115.5098,65.871 200.9729,65.871 84.739,0 151.022,-21.616 198.8233,-64.879 48.5259,-43.917 72.8156,-105.845 72.8156,-185.814 l 0,-880.016 491.0227,0 0,859.345 c 0,85.214 -14.8435,165.837 -44.5383,241.873 -28.9704,75.382 -74.9583,141.576 -137.9692,198.603 -62.2867,56.372 -127.8133,96.066 -196.6186,119.008 -95.6027,32.119 -210.4102,48.176 -344.3991,48.176 -77.4963,0 -162.2389,-4.94 -254.2205,-14.773 -91.2574,-9.832 -167.6879,-29.146 -229.2505,-57.987 -61.5625,-29.497 -118.0208,-71.156 -169.4437,-124.906 -50.6984,-53.75 -85.4588,-109.109 -104.2898,-166.136 -30.4191,-91.769 -45.6407,-173.065 -45.6407,-243.858 l 0,-859.345 z m 2517.1798,0 493.2274,0 0,783.608 c 0,164.528 -16.3009,289.729 -48.8927,375.598 -31.8677,85.869 -96.693,158.632 -194.4687,218.282 -97.0517,59.649 -221.6285,89.517 -373.724,89.517 -160.7868,0 -285.3636,-19.706 -373.724,-59.035 -88.3604,-39.329 -156.8019,-96.653 -205.3277,-172.035 -47.8014,-76.036 -76.0307,-169.797 -84.7217,-281.23 l 470.4069,-57.987 c 0.7253,63.582 6.8777,110.744 18.4658,141.552 11.5883,30.808 31.1274,55.735 58.6494,74.744 18.8307,12.455 45.6576,18.687 80.4223,18.687 55.0441,0 95.2015,-18.359 120.5507,-55.067 26.0737,-37.363 39.1363,-99.963 39.1363,-187.799 l 0,-888.835 z m 822.4131,0 1318.8931,0 0,307.744 -825.6654,0 0,229.085 765.9136,0 0,294.018 -765.9136,0 0,284.152 849.5329,0 0,326.429 -1342.7606,0 0,-1441.428 z m -4530.273,291.042 0,292.971 207.4774,0 c 22.4522,0 65.9028,-6.513 130.3624,-19.623 32.5918,-5.899 59.0406,-21.002 79.3199,-45.255 21.0036,-24.253 31.5296,-52.101 31.5296,-83.564 0,-46.54 -16.3009,-82.248 -48.8927,-107.157 -32.5922,-24.908 -93.8011,-37.372 -183.6099,-37.372 l -216.1867,0 z"
   id="text4150-8"
   inkscape:connector-curvature="0" /></g></svg>