<?xml version="1.0" encoding="utf-8"?>
<!-- Generator: Adobe Illustrator 18.0.0, SVG Export Plug-In . SVG Version: 6.00 Build 0)  -->
<!DOCTYPE svg PUBLIC "-//W3C//DTD SVG 1.1//EN" "http://www.w3.org/Graphics/SVG/1.1/DTD/svg11.dtd">
<svg version="1.1" id="Warstwa_1" xmlns="http://www.w3.org/2000/svg" xmlns:xlink="http://www.w3.org/1999/xlink" x="0px" y="0px"
	 viewBox="0 0 85 85" enable-background="new 0 0 85 85" xml:space="preserve">
<g>
	<path fill="#FFFFFF" d="M24.3,51.2c-0.8,0-1.4-0.6-1.4-1.4v-8.4c0-2.2,1.3-4.1,3.1-5l5.3-13.2h1.4h2.8h14h2.8h1.4L59,36.3
		c1.9,0.9,3.1,2.8,3.1,5l0,8.4c0,0.8-0.6,1.4-1.4,1.4h-1.4V54c0,1.6-1.3,2.8-2.8,2.8c-1.6,0-2.8-1.3-2.8-2.8v-2.8H31.3V54
		c0,1.6-1.3,2.8-2.8,2.8s-2.8-1.3-2.8-2.8v-2.8H24.3z M30.4,35.8h24.1l-3.4-8.4H33.8L30.4,35.8z M30.2,38.2c-1.6,0-3.2,1.6-3.2,3.2
		c0,1.6,1.6,3.2,3.2,3.2s3.2-1.6,3.2-3.2C33.4,39.8,31.8,38.2,30.2,38.2z M54.8,38.2c-1.6,0-3.2,1.6-3.2,3.2c0,1.6,1.6,3.2,3.2,3.2
		c1.6,0,3.2-1.6,3.2-3.2C58,39.8,56.4,38.2,54.8,38.2z"/>
	<g>
		<path fill="#FFFFFF" d="M0,13.9l2.8-0.2c0.1,0.5,0.2,0.8,0.4,1c0.3,0.4,0.7,0.6,1.3,0.6c0.4,0,0.7-0.1,1-0.3
			c0.2-0.2,0.3-0.4,0.3-0.7c0-0.2-0.1-0.5-0.3-0.7c-0.2-0.2-0.7-0.4-1.5-0.5c-1.3-0.3-2.2-0.7-2.7-1.2c-0.6-0.5-0.8-1.1-0.8-1.8
			c0-0.5,0.1-0.9,0.4-1.4c0.3-0.4,0.7-0.8,1.3-1c0.6-0.2,1.3-0.4,2.3-0.4c1.2,0,2.1,0.2,2.8,0.7c0.6,0.5,1,1.2,1.1,2.2l-2.8,0.2
			C5.5,10,5.3,9.6,5.1,9.4c-0.2-0.2-0.6-0.3-1-0.3c-0.3,0-0.6,0.1-0.8,0.2C3.2,9.5,3.1,9.7,3.1,9.9c0,0.2,0.1,0.3,0.2,0.4
			c0.1,0.1,0.5,0.2,1,0.3c1.3,0.3,2.2,0.6,2.8,0.8c0.6,0.3,1,0.6,1.2,1.1c0.3,0.4,0.4,0.9,0.4,1.4c0,0.6-0.2,1.2-0.5,1.7
			c-0.3,0.5-0.8,0.9-1.4,1.2c-0.6,0.3-1.4,0.4-2.3,0.4c-1.6,0-2.7-0.3-3.3-0.9C0.4,15.6,0.1,14.9,0,13.9z"/>
		<path fill="#FFFFFF" d="M15.9,15.5h-3.3L12.1,17h-3l3.6-9.5h3.2l3.6,9.5h-3.1L15.9,15.5z M15.3,13.4l-1-3.4l-1,3.4H15.3z"/>
		<path fill="#FFFFFF" d="M20.3,7.6h3.9l1.5,5.8l1.5-5.8H31V17h-2.4V9.8L26.8,17h-2.2l-1.8-7.2V17h-2.4V7.6z"/>
		<path fill="#FFFFFF" d="M32.5,12.3c0-1.5,0.4-2.8,1.3-3.6c0.9-0.9,2.1-1.3,3.6-1.3c1.6,0,2.8,0.4,3.6,1.3c0.9,0.8,1.3,2,1.3,3.6
			c0,1.1-0.2,2-0.6,2.7c-0.4,0.7-0.9,1.3-1.6,1.7c-0.7,0.4-1.6,0.6-2.6,0.6c-1.1,0-2-0.2-2.7-0.5c-0.7-0.3-1.3-0.9-1.7-1.6
			C32.7,14.3,32.5,13.4,32.5,12.3z M35.4,12.3c0,1,0.2,1.6,0.5,2.1c0.4,0.4,0.8,0.6,1.5,0.6c0.6,0,1.1-0.2,1.5-0.6
			c0.3-0.4,0.5-1.1,0.5-2.2c0-0.9-0.2-1.5-0.5-2c-0.4-0.4-0.8-0.6-1.5-0.6c-0.6,0-1.1,0.2-1.4,0.6C35.6,10.7,35.4,11.3,35.4,12.3z"
			/>
		<path fill="#FFFFFF" d="M50.2,13.2l2.6,0.8c-0.2,0.7-0.4,1.3-0.8,1.8s-0.8,0.8-1.4,1.1c-0.5,0.2-1.2,0.4-2.1,0.4
			c-1,0-1.9-0.1-2.5-0.4c-0.7-0.3-1.2-0.8-1.7-1.6c-0.5-0.8-0.7-1.7-0.7-2.9c0-1.6,0.4-2.8,1.3-3.6c0.8-0.8,2-1.3,3.5-1.3
			c1.2,0,2.1,0.2,2.8,0.7c0.7,0.5,1.2,1.2,1.5,2.2l-2.6,0.6c-0.1-0.3-0.2-0.5-0.3-0.6c-0.2-0.2-0.4-0.4-0.6-0.5
			c-0.2-0.1-0.5-0.2-0.8-0.2c-0.7,0-1.2,0.3-1.5,0.8c-0.3,0.4-0.4,1-0.4,1.9c0,1.1,0.2,1.8,0.5,2.2c0.3,0.4,0.8,0.6,1.3,0.6
			c0.6,0,1-0.2,1.3-0.5C49.9,14.2,50.1,13.8,50.2,13.2z"/>
		<path fill="#FFFFFF" d="M54.2,7.6h2.9v3.3h3.2V7.6h2.9V17h-2.9v-3.8h-3.2V17h-2.9V7.6z"/>
		<path fill="#FFFFFF" d="M64.9,12.3c0-1.5,0.4-2.8,1.3-3.6c0.9-0.9,2.1-1.3,3.6-1.3c1.6,0,2.8,0.4,3.6,1.3c0.9,0.8,1.3,2,1.3,3.6
			c0,1.1-0.2,2-0.6,2.7c-0.4,0.7-0.9,1.3-1.6,1.7c-0.7,0.4-1.6,0.6-2.6,0.6c-1.1,0-2-0.2-2.7-0.5c-0.7-0.3-1.3-0.9-1.7-1.6
			C65.1,14.3,64.9,13.4,64.9,12.3z M67.8,12.3c0,1,0.2,1.6,0.5,2.1c0.4,0.4,0.8,0.6,1.5,0.6c0.6,0,1.1-0.2,1.5-0.6
			c0.3-0.4,0.5-1.1,0.5-2.2c0-0.9-0.2-1.5-0.5-2c-0.4-0.4-0.8-0.6-1.5-0.6c-0.6,0-1.1,0.2-1.4,0.6C68,10.7,67.8,11.3,67.8,12.3z
			 M69.7,5H72L69.9,7h-1.3L69.7,5z"/>
		<path fill="#FFFFFF" d="M76.3,7.6h4.4c0.9,0,1.6,0.1,2.1,0.3c0.5,0.2,1,0.6,1.3,1c0.3,0.4,0.6,0.9,0.8,1.5s0.2,1.2,0.2,1.8
			c0,1-0.1,1.8-0.3,2.4c-0.2,0.6-0.6,1-1,1.4c-0.4,0.4-0.8,0.6-1.3,0.8c-0.6,0.2-1.2,0.3-1.7,0.3h-4.4V7.6z M79.2,9.7v5.2H80
			c0.6,0,1-0.1,1.3-0.2c0.3-0.1,0.5-0.4,0.6-0.7c0.1-0.3,0.2-0.9,0.2-1.6c0-1-0.2-1.7-0.5-2.1c-0.3-0.4-0.9-0.6-1.6-0.6H79.2z"/>
	</g>
	<g>
		<path fill="#FFFFFF" d="M39.3,68.7h-0.7v5.2h0.7c0.6,0,1-0.1,1.3-0.2c0.3-0.1,0.5-0.4,0.6-0.7c0.1-0.3,0.2-0.9,0.2-1.6
			c0-1-0.2-1.7-0.5-2.1C40.6,68.9,40,68.7,39.3,68.7z"/>
		<path fill="#FFFFFF" d="M0,62.8V80h85V62.8H0z M24.1,71.7c0,1.1-0.1,1.9-0.3,2.5c-0.2,0.6-0.6,1-1.2,1.4c-0.6,0.4-1.3,0.6-2.2,0.6
			c-1,0-1.7-0.1-2.2-0.4c-0.5-0.3-0.9-0.6-1.2-1.1c-0.3-0.5-0.5-1.1-0.5-1.8l2.8-0.4c0,0.4,0,0.7,0.1,0.9c0.1,0.2,0.2,0.4,0.3,0.5
			C19.8,74,20,74,20.2,74c0.3,0,0.6-0.1,0.7-0.4c0.2-0.2,0.2-0.7,0.2-1.2v-5.8h2.9V71.7z M34,76h-8v-9.5h7.9v2H29v1.5h4.6V72H29v1.9
			H34V76z M44,73.6c-0.2,0.6-0.6,1-1,1.4c-0.4,0.4-0.8,0.6-1.3,0.8C41.1,76,40.5,76,40,76h-4.4v-9.5H40c0.9,0,1.6,0.1,2.1,0.3
			c0.5,0.2,1,0.6,1.3,1s0.6,0.9,0.8,1.5c0.2,0.6,0.2,1.2,0.2,1.8C44.3,72.3,44.2,73.1,44,73.6z M54.1,76h-9v-2l5.3-5.5h-4.8v-2h8.3
			v1.9L48.6,74h5.5V76z M58.5,76h-2.9v-9.5h2.9V76z M68.6,76h-8v-9.5h7.9v2h-4.9v1.5h4.6V72h-4.6v1.9h5.1V76z"/>
	</g>
</g>
</svg>
