<svg id="Component_5_1" data-name="Component 5 – 1" xmlns="http://www.w3.org/2000/svg" width="132.068" height="83.941" viewBox="0 0 132.068 83.941">
  <path id="Vector_13_" data-name="Vector (13)" d="M7.5,7.552C12.339,0,21.17,2.569,27.514,2.359c7.538-.25,14.982-.523,22.5-.938,7.551-.416,14.445.62,21.909.95C81.246,2.783,90.08.227,99.361.234c8.2.006,18.064,1.476,24.478,4.959,11.848,6.434,9.5,18.049,4.435,26.146-4.04,6.454-9.608,14.378-7.527,21.54,1.143,3.933,5.8,6.9,4.293,11.044-4.594,12.666-21.646,22.1-42.341,19.942-6.01-.627-27.569-2.6-34.081-3.836C30.3,76.562,18.171,69.22,15.3,56.658,13.358,48.136,1.542,39.381.461,30.925-.355,24.55,3.8,13.333,7.5,7.552Z" transform="translate(-0.357 -0.233)" fill="#c1dee6" fill-rule="evenodd"/>
  <g id="exercise19" transform="translate(26.155 -10.447)">
    <g id="Group_12" data-name="Group 12">
      <path id="Path_90" data-name="Path 90" d="M46,29.4h0c-.2.7-.4,1.7-.6,2.4l-.7,2.6h2.7l-.8-2.6C46.4,31.1,46.2,30.1,46,29.4Z"/>
      <path id="Path_91" data-name="Path 91" d="M28.6,20.3V46.8H55.1V20.3Zm11,19.4H31.9V27.3h2.8v10h4.9Zm9.2,0-1-3.2H44.3l-.9,3.2H40.5l3.8-12.4H48l3.8,12.4Z"/>
    </g>
    <path id="Path_92" data-name="Path 92" d="M26.4,48.9V35.4L26,33,0,38,4.9,64l26-4.9L29,48.9ZM10.2,56a7.029,7.029,0,0,1-3.6-.1l.1-2.4a8.1,8.1,0,0,0,3.2.2c1.3-.2,1.8-.9,1.7-1.7s-.8-1.1-2.4-1.3c-2.2-.3-3.7-1.2-4-3-.4-2.1,1-4,3.9-4.5a6.789,6.789,0,0,1,3.2,0l-.2,2.3a7.264,7.264,0,0,0-2.7-.1c-1.1.3-1.6.9-1.4,1.6.1.8.9,1,2.6,1.3,2.3.4,3.5,1.3,3.8,3C14.8,53.3,13.5,55.4,10.2,56Zm12.3-2.5-2.8.5-.9-5-5.2-6.5,3.1-.6,1.8,2.7c.5.8.9,1.4,1.4,2.2h0c.1-.8.3-1.6.5-2.5l.7-3.2,3.1-.6-2.7,7.9Z"/>
    <g id="Group_13" data-name="Group 13">
      <path id="Path_93" data-name="Path 93" d="M66.1,45.9c.2-.9-.4-1.5-1.7-1.8a6.822,6.822,0,0,0-1.2-.1l-.5,2.8.9.2C65,47.2,65.9,46.8,66.1,45.9Z"/>
      <path id="Path_94" data-name="Path 94" d="M63.3,48.9l-.9-.2-.6,3.4c.3.1.6.1,1.1.2,1.2.2,2.4,0,2.7-1.3C65.6,49.9,64.6,49.2,63.3,48.9Z"/>
      <path id="Path_95" data-name="Path 95" d="M59,34l-1.8,9.9v4.9h-.9L54.3,60l26,4.7,4.7-26Zm9.9,12a2.683,2.683,0,0,1-2.5,2.2h0a3.1,3.1,0,0,1,1.9,3.4A3.6,3.6,0,0,1,66.6,54c-1,.5-2.6.7-5,.2a13.412,13.412,0,0,1-2.9-.7l2.2-12a19.393,19.393,0,0,1,3.6.4A7.759,7.759,0,0,1,68,43.2,3.538,3.538,0,0,1,68.9,46Zm6.5,5.5-.9,5.1L71.7,56l.9-5-2.5-7.9,3.1.6.7,3.2c.2,1,.4,1.7.5,2.5h0c.4-.7.8-1.4,1.3-2.2l1.8-2.7,3.1.6Z"/>
    </g>
  </g>
</svg>
