<svg width="174" height="168" viewBox="0 0 174 168" fill="none" xmlns="http://www.w3.org/2000/svg">
<path fill-rule="evenodd" clip-rule="evenodd" d="M6.09165 72.4159C15.5755 58.9952 42.6987 57.9941 51.2999 48.2162C60.4858 37.7718 73.1613 26.1493 85.3323 19.8091C96.6672 13.9049 112.648 -0.0721343 125.804 0.000280314C151.76 0.142663 141.892 18.9137 148.179 35.277C151.295 43.3879 160.198 49.3665 164.594 56.8056C169.176 64.5608 170.988 73.4473 172.208 82.2486C174.558 99.2005 173.597 114.836 168.732 130.96C162.507 151.594 151.884 161.386 129.536 162.492C120.737 162.928 112.609 159.401 103.925 160.512C94.3861 161.733 87.5645 167.786 77.286 167.385C54.0213 166.477 25.0212 145.989 10.0064 130.151C1.78787 121.483 -2.83737 109.697 1.91117 97.0075C3.85413 91.8152 6.09165 72.4159 6.09165 72.4159Z" fill="#C1DEE6"/>
<path fill-rule="evenodd" clip-rule="evenodd" d="M45.6118 136.908C43.0611 136.709 22.6265 139.117 22.0491 138.26C20.9473 136.626 28.6369 134.787 29.6434 134.548C36.0506 133.03 53.4482 133.792 58.0426 134.155C59.0427 134.235 80.5709 137.757 87.1533 138.215C89.2372 138.359 106.137 143.089 109.647 142.136C109.486 141.424 106.836 139.953 106.192 139.1C105.257 137.864 105.312 133.954 105.31 133.568C105.308 132.911 106.198 130.519 106.671 129.919C108.294 127.86 111.574 126.428 111.574 126.428C111.51 126.177 109.803 125.229 108.159 125.127C106.594 125.031 105.265 125.228 103.319 124.682C101.519 123.846 99.0308 122.42 98.5361 119.787C97.7224 115.464 101.929 112.504 104.383 109.638C101.875 107.753 97.3144 107.632 98.0801 102.715C98.5381 99.7614 99.9824 98.0141 101.464 95.5202C103.228 93.9158 106.779 90.4346 106.501 89.7931C105.842 89.4741 101.087 89.5299 99.7701 89.1061C96.8246 88.1574 96.8177 85.9634 96.4248 83.2865C95.7848 78.9255 100.377 74.4417 104.254 72.5007C108.13 70.5607 111.563 69.1667 114.973 68.6666C117.59 68.283 124.672 66.2168 127.572 65.6668C128.412 65.5078 134.489 65.498 131.605 67.8343C130.203 68.9705 127.956 69.1427 126.326 69.6168C121.261 71.0827 115.839 72.2081 110.666 73.1896C107.209 73.8462 101.393 76.9512 100.036 81.8759C98.0023 89.2642 111.367 85.5965 114.778 85.0676C120.622 84.1624 126.301 82.8496 132.095 81.5041C137.674 80.2084 146.367 76.6269 148.042 73.5942C149.116 71.6488 153.757 59.4528 148.191 57.2281C145.968 56.0498 144.03 55.61 141.419 55.382C139.657 55.2283 127.668 55.2572 126.132 55.4544C124.81 55.6242 112.537 57.5843 109.947 58.1264C107.611 58.6157 104.36 59.7048 102.001 58.8823C99.4922 51.1369 111.112 41.4578 116.57 35.5771C119.658 32.2509 122.544 28.1115 125.316 24.5681C127.904 21.261 132.584 16.5443 132.48 12.7811C132.381 9.21521 128.66 9.4349 126.295 9.62425C122.204 9.95159 104.581 25.4884 100.526 28.8694C93.2528 34.9322 73.7145 48.8529 70.8424 53.8231C70.0145 55.2606 56.3575 68.2189 53.2373 70.8239C48.0093 75.1888 29.1419 81.1895 27.7645 81.9371C26.8133 82.4533 25.1556 79.4133 26.4283 78.8653C31.2703 76.7795 37.1187 74.3384 41.8927 72.1513C48.044 69.3325 51.4823 67.2702 55.7762 63.65C59.5173 60.4955 62.8719 56.295 65.3174 53.1914C68.9171 48.6239 74.9138 44.2301 79.2009 40.3476C82.5496 37.3145 114.017 12.9441 117.794 9.40016C119.681 7.62992 126.938 5.05186 130.393 6.50456C132.609 7.43714 135.368 8.01743 135.775 11.1127C136.06 13.2885 136.098 15.7154 134.796 18.3908C133.981 20.0681 117.591 41.5596 115.036 43.6038C112.666 45.5003 110.925 47.8049 109.102 50.312C104.193 57.0656 110.504 54.0266 118.833 52.8856C121.991 52.4526 125.303 51.8997 128.497 51.9682C131.48 52.0323 139.57 51.8924 142.258 52.274C144.008 52.5216 149.435 54.1005 150.82 54.6593C157.583 57.3861 153.786 66.5133 153.183 70.5563C152.724 73.6295 151.419 76.3093 150.141 79.0885C152.069 82.2042 152.354 93.6614 152.444 95.9929C152.51 97.7059 150.59 99.3156 149.684 100.607C152.771 102.941 153.405 105.043 152.746 108.88C152.247 111.78 150.71 112.387 149.367 114.825C148.322 116.721 145.635 118.286 147.81 119.85C151.091 122.205 145.79 133.955 137.526 137.629C132.851 139.706 127.596 142.048 122.764 143.883C117.686 145.812 113.447 144.72 108.087 145.502C107.385 145.604 90.7168 142.729 88.9436 142.653C87.8085 142.309 77.4556 140.992 76.9561 140.882C76.9561 140.881 54.5932 137.608 45.6118 136.908ZM113.973 90.462C112.593 91.7243 105.081 96.0393 103.404 99.2907C96.8309 112.037 121.733 102.998 126.084 102.067C131.436 100.92 136.95 100.271 142.33 99.3905C148.871 98.3199 147.77 94.9766 147.97 89.7613C148.041 87.9206 147.938 84.8288 147.372 83.0106C146.6 80.5294 140.61 83.3237 139.82 83.4862C138.708 83.7142 115.419 89.1404 113.973 90.462ZM137.715 119.402C139.363 119.154 140.604 118.74 141.651 118.069C145.001 115.922 145.518 113.237 147.921 110.064C149.488 107.997 149.317 104.004 147.3 102.405C143.837 102.588 127.635 106.339 122.473 107.143C117.973 107.844 114.168 110.009 110.251 111.178C106.968 112.158 104.247 114.13 103.5 117.56C103.018 119.775 103.959 122.089 106.452 122.242C111.727 122.567 115.411 122.112 120.663 121.958L137.715 119.402ZM144.546 121.224C143.994 120.925 139.401 123.278 138.008 123.644C134.167 124.652 120.191 126.99 114.554 128.989C113.145 129.49 113.084 130.228 111.695 131.026C108.561 132.823 108.971 135.575 110.588 138.172C113.497 142.844 124.873 139.466 133.873 134.911C136.406 133.63 148.003 125.688 144.546 121.224ZM128.838 27.0057C128.732 26.9969 128.722 26.9959 128.838 27.0057V27.0057Z" fill="black"/>
</svg>
