<svg width="182" height="142" viewBox="0 0 182 142" fill="none" xmlns="http://www.w3.org/2000/svg">
<path fill-rule="evenodd" clip-rule="evenodd" d="M49.3629 4.61935C33.0481 5.04846 23.436 11.0378 13.8313 23.9668C5.40818 35.305 2.8585 43.8544 3.49017 57.825C4.06753 70.5734 0.915048 82.0487 0.0460728 94.5358C-0.809203 106.818 10.4156 110.351 19.3793 116.226C28.6464 122.302 47.1371 141.905 58.3071 141.877C84.9962 141.811 104.281 132.49 130.766 127.533C147.327 124.432 165.099 116.605 169.226 98.8508C171.223 90.2614 172.13 81.5804 174.616 72.9416C176.279 67.1655 175.617 62.1973 176.984 56.5636C180.631 41.541 188.031 22.2494 168.215 4.87965C154.564 -7.08686 132.042 6.72133 114.097 6.72133C107.443 6.72084 56.9351 4.4207 49.3629 4.61935Z" fill="#C1DEE6"/>
<path fill-rule="evenodd" clip-rule="evenodd" d="M139.271 20.4841C141.031 20.4543 147.992 20.9034 149.653 20.4308C152.833 19.5256 151.098 28.9732 151.098 28.9742C151.216 37.7863 152.993 91.8805 153.183 96.2919C153.547 104.518 148.91 104.811 141.415 105.205C136.453 105.464 35.3046 107.347 34.1283 106.756C32.7838 106.085 34.7238 59.0674 34.3118 49.4079C34.1029 44.5013 34.9542 24.2404 34.9063 21.7132C34.8613 19.3186 127.437 20.6881 139.271 20.4841ZM147.142 25.8173C146.932 24.1405 141.255 24.9855 140.109 24.9914C123.492 25.0805 38.8871 24.1719 38.938 25.0443C39.1954 29.5521 38.3587 54.3262 38.6038 61.4253C38.9723 72.1412 37.6717 82.9789 38.4037 93.707C38.5647 96.0742 38.095 99.6714 37.9575 102.036C40.4905 102.845 145.393 100.301 147.915 100.787" fill="black"/>
<path fill-rule="evenodd" clip-rule="evenodd" d="M62.5095 58.7929C61.5431 60.113 48.6298 59.1154 45.8159 59.1966C44.468 59.2358 42.0093 60.2045 42.0196 57.9998C42.0313 54.9237 42.1262 51.9958 42.2852 48.9514C42.3953 46.8489 57.1004 47.9944 59.3541 48.0643C63.7009 48.1984 62.5124 48.513 62.6406 52.3808C62.7233 54.8801 62.6259 58.7929 62.5095 58.7929ZM48.0657 50.8039C45.0096 50.752 45.2763 49.6139 45.1882 52.784C45.1662 53.5629 44.8359 56.3079 46.0092 56.2707C49.5546 56.1606 55.9418 56.5735 59.4695 56.5266C59.697 56.5236 60.5973 51.0123 59.3404 50.9477C55.7147 50.7623 51.7011 50.7363 48.0657 50.8039C47.0832 50.7872 48.599 50.7936 48.0657 50.8039Z" fill="black"/>
<path fill-rule="evenodd" clip-rule="evenodd" d="M89.32 58.7929C88.3537 60.113 75.4404 59.1154 72.6265 59.1966C71.2785 59.2358 68.8198 60.2045 68.8301 57.9998C68.8419 54.9237 68.9368 51.9958 69.0958 48.9514C69.2059 46.8489 83.9109 47.9944 86.1646 48.0643C90.5114 48.1984 89.323 48.513 89.4511 52.3808C89.5338 54.8801 89.4365 58.7929 89.32 58.7929ZM74.8762 50.8039C71.8201 50.752 72.0868 49.6139 71.9987 52.784C71.9767 53.5629 71.6464 56.3079 72.8198 56.2707C76.3651 56.1606 82.7523 56.5735 86.2801 56.5266C86.5076 56.5236 87.4079 51.0123 86.1509 50.9477C82.5253 50.7623 78.5116 50.7363 74.8762 50.8039C73.8937 50.7872 75.4096 50.7936 74.8762 50.8039Z" fill="black"/>
<path fill-rule="evenodd" clip-rule="evenodd" d="M116.125 58.7929C115.158 60.113 102.245 59.1154 99.4312 59.1966C98.0832 59.2358 95.6245 60.2045 95.6348 57.9998C95.6465 54.9237 95.7415 51.9958 95.9005 48.9514C96.0106 46.8489 110.716 47.9944 112.969 48.0643C117.316 48.1984 116.128 48.513 116.256 52.3808C116.339 54.8801 116.241 58.7929 116.125 58.7929ZM101.681 50.8039C98.6248 50.752 98.8915 49.6139 98.8034 52.784C98.7814 53.5629 98.4511 56.3079 99.6244 56.2707C103.17 56.1606 109.557 56.5735 113.085 56.5266C113.312 56.5236 114.213 51.0123 112.956 50.9477C109.33 50.7623 105.316 50.7363 101.681 50.8039C100.698 50.7872 102.214 50.7936 101.681 50.8039Z" fill="black"/>
<path fill-rule="evenodd" clip-rule="evenodd" d="M142.935 58.7929C141.969 60.113 129.056 59.1154 126.242 59.1966C124.894 59.2358 122.435 60.2045 122.445 57.9998C122.457 54.9237 122.552 51.9958 122.711 48.9514C122.821 46.8489 137.526 47.9944 139.78 48.0643C144.127 48.1984 142.938 48.513 143.066 52.3808C143.149 54.8801 143.052 58.7929 142.935 58.7929ZM128.491 50.8039C125.435 50.752 125.702 49.6139 125.614 52.784C125.592 53.5629 125.262 56.3079 126.435 56.2707C129.98 56.1606 136.368 56.5735 139.895 56.5266C140.123 56.5236 141.023 51.0123 139.766 50.9477C136.141 50.7623 132.127 50.7363 128.491 50.8039C127.509 50.7872 129.025 50.7936 128.491 50.8039Z" fill="black"/>
<path fill-rule="evenodd" clip-rule="evenodd" d="M62.5095 76.2456C61.5431 77.5657 48.6298 76.568 45.8159 76.6492C44.468 76.6884 42.0093 77.6572 42.0196 75.4524C42.0313 72.3763 42.1262 69.4484 42.2852 66.404C42.3953 64.3016 57.1004 65.447 59.3541 65.517C63.7009 65.651 62.5124 65.9656 62.6406 69.8335C62.7233 72.3328 62.6259 76.2456 62.5095 76.2456ZM48.0657 68.2565C45.0096 68.2046 45.2763 67.0665 45.1882 70.2366C45.1662 71.0156 44.8359 73.7605 46.0092 73.7233C49.5546 73.6132 55.9418 74.0262 59.4695 73.9792C59.697 73.9763 60.5973 68.4649 59.3404 68.4003C55.7147 68.2149 51.7011 68.189 48.0657 68.2565C47.0832 68.2399 48.599 68.2462 48.0657 68.2565Z" fill="black"/>
<path fill-rule="evenodd" clip-rule="evenodd" d="M89.32 76.2456C88.3537 77.5657 75.4404 76.568 72.6265 76.6492C71.2785 76.6884 68.8198 77.6572 68.8301 75.4524C68.8419 72.3763 68.9368 69.4484 69.0958 66.404C69.2059 64.3016 83.9109 65.447 86.1646 65.517C90.5114 65.651 89.323 65.9656 89.4511 69.8335C89.5338 72.3328 89.4365 76.2456 89.32 76.2456ZM74.8762 68.2565C71.8201 68.2046 72.0868 67.0665 71.9987 70.2366C71.9767 71.0156 71.6464 73.7605 72.8198 73.7233C76.3651 73.6132 82.7523 74.0262 86.2801 73.9792C86.5076 73.9763 87.4079 68.4649 86.1509 68.4003C82.5253 68.2149 78.5116 68.189 74.8762 68.2565C73.8937 68.2399 75.4096 68.2462 74.8762 68.2565Z" fill="black"/>
<path fill-rule="evenodd" clip-rule="evenodd" d="M116.125 76.2456C115.158 77.5657 102.245 76.568 99.4312 76.6492C98.0832 76.6884 95.6245 77.6572 95.6348 75.4524C95.6465 72.3763 95.7415 69.4484 95.9005 66.404C96.0106 64.3016 110.716 65.447 112.969 65.517C117.316 65.651 116.128 65.9656 116.256 69.8335C116.339 72.3328 116.241 76.2456 116.125 76.2456ZM101.681 68.2565C98.6248 68.2046 98.8915 67.0665 98.8034 70.2366C98.7814 71.0156 98.4511 73.7605 99.6244 73.7233C103.17 73.6132 109.557 74.0262 113.085 73.9792C113.312 73.9763 114.213 68.4649 112.956 68.4003C109.33 68.2149 105.316 68.189 101.681 68.2565C100.698 68.2399 102.214 68.2462 101.681 68.2565Z" fill="black"/>
<path fill-rule="evenodd" clip-rule="evenodd" d="M142.935 76.2456C141.969 77.5657 129.056 76.568 126.242 76.6492C124.894 76.6884 122.435 77.6572 122.445 75.4524C122.457 72.3763 122.552 69.4484 122.711 66.404C122.821 64.3016 137.526 65.447 139.78 65.517C144.127 65.651 142.938 65.9656 143.066 69.8335C143.149 72.3328 143.052 76.2456 142.935 76.2456ZM128.491 68.2565C125.435 68.2046 125.702 67.0665 125.614 70.2366C125.592 71.0156 125.262 73.7605 126.435 73.7233C129.98 73.6132 136.368 74.0262 139.895 73.9792C140.123 73.9763 141.023 68.4649 139.766 68.4003C136.141 68.2149 132.127 68.189 128.491 68.2565C127.509 68.2399 129.025 68.2462 128.491 68.2565Z" fill="black"/>
<path fill-rule="evenodd" clip-rule="evenodd" d="M62.5095 93.1294C61.5431 94.4495 48.6298 93.4518 45.8159 93.533C44.468 93.5722 42.0093 94.541 42.0196 92.3362C42.0313 89.2601 42.1262 86.3322 42.2852 83.2878C42.3953 81.1854 57.1004 82.3308 59.3541 82.4008C63.7009 82.5348 62.5124 82.8494 62.6406 86.7173C62.7233 89.2165 62.6259 93.1294 62.5095 93.1294ZM48.0657 85.1403C45.0096 85.0884 45.2763 83.9503 45.1882 87.1204C45.1662 87.8994 44.8359 90.6443 46.0092 90.6071C49.5546 90.497 55.9418 90.91 59.4695 90.863C59.697 90.8601 60.5973 85.3487 59.3404 85.2841C55.7147 85.0987 51.7011 85.0728 48.0657 85.1403C47.0832 85.1236 48.599 85.13 48.0657 85.1403Z" fill="black"/>
<path fill-rule="evenodd" clip-rule="evenodd" d="M89.32 93.1294C88.3537 94.4495 75.4404 93.4518 72.6265 93.533C71.2785 93.5722 68.8198 94.541 68.8301 92.3362C68.8419 89.2601 68.9368 86.3322 69.0958 83.2878C69.2059 81.1854 83.9109 82.3308 86.1646 82.4008C90.5114 82.5348 89.323 82.8494 89.4511 86.7173C89.5338 89.2165 89.4365 93.1294 89.32 93.1294ZM74.8762 85.1403C71.8201 85.0884 72.0868 83.9503 71.9987 87.1204C71.9767 87.8994 71.6464 90.6443 72.8198 90.6071C76.3651 90.497 82.7523 90.91 86.2801 90.863C86.5076 90.8601 87.4079 85.3487 86.1509 85.2841C82.5253 85.0987 78.5116 85.0728 74.8762 85.1403C73.8937 85.1236 75.4096 85.13 74.8762 85.1403Z" fill="black"/>
<path fill-rule="evenodd" clip-rule="evenodd" d="M116.125 93.1294C115.158 94.4495 102.245 93.4518 99.4312 93.533C98.0832 93.5722 95.6245 94.541 95.6348 92.3362C95.6465 89.2601 95.7415 86.3322 95.9005 83.2878C96.0106 81.1854 110.716 82.3308 112.969 82.4008C117.316 82.5348 116.128 82.8494 116.256 86.7173C116.339 89.2165 116.241 93.1294 116.125 93.1294ZM101.681 85.1403C98.6248 85.0884 98.8915 83.9503 98.8034 87.1204C98.7814 87.8994 98.4511 90.6443 99.6244 90.6071C103.17 90.497 109.557 90.91 113.085 90.863C113.312 90.8601 114.213 85.3487 112.956 85.2841C109.33 85.0987 105.316 85.0728 101.681 85.1403C100.698 85.1236 102.214 85.13 101.681 85.1403Z" fill="black"/>
<path fill-rule="evenodd" clip-rule="evenodd" d="M142.935 93.1294C141.969 94.4495 129.056 93.4518 126.242 93.533C124.894 93.5722 122.435 94.541 122.445 92.3362C122.457 89.2601 122.552 86.3322 122.711 83.2878C122.821 81.1854 137.526 82.3308 139.78 82.4008C144.127 82.5348 142.938 82.8494 143.066 86.7173C143.149 89.2165 143.052 93.1294 142.935 93.1294ZM128.491 85.1403C125.435 85.0884 125.702 83.9503 125.614 87.1204C125.592 87.8994 125.262 90.6443 126.435 90.6071C129.98 90.497 136.368 90.91 139.895 90.863C140.123 90.8601 141.023 85.3487 139.766 85.2841C136.141 85.0987 132.127 85.0728 128.491 85.1403C127.509 85.1236 129.025 85.13 128.491 85.1403Z" fill="black"/>
<path fill-rule="evenodd" clip-rule="evenodd" d="M45.6266 38.3139C50.976 37.6416 77.3217 37.7492 82.6353 36.8465C85.0177 36.4418 89.1556 36.1126 88.5357 33.122C86.7698 29.8125 85.1865 30.2504 82.0428 30.2411C76.1161 30.224 47.8587 30.6081 44.9788 30.8527C41.6619 31.134 44.3177 38.4783 45.6266 38.3139Z" fill="black"/>
</svg>
