<?xml version="1.0" encoding="utf-8"?>
<!-- Generator: Adobe Illustrator 18.0.0, SVG Export Plug-In . SVG Version: 6.00 Build 0)  -->
<!DOCTYPE svg PUBLIC "-//W3C//DTD SVG 1.1//EN" "http://www.w3.org/Graphics/SVG/1.1/DTD/svg11.dtd">
<svg version="1.1" id="Warstwa_1" xmlns="http://www.w3.org/2000/svg" xmlns:xlink="http://www.w3.org/1999/xlink" x="0px" y="0px"
	 viewBox="0 0 85 85" enable-background="new 0 0 85 85" xml:space="preserve">
<g>
	<path fill="#FFFFFF" d="M22.2,47.5h8.6V69H78v6.4v6.4h-6.4v-6.4H30.8v6.4h-8.6V47.5z M75.9,66.9h-29V54c10,0,16.8,0,22.2,2.1
		C74.4,58.3,75.1,62.6,75.9,66.9z M32.9,61.5l8.6,1.1v4.3h-8.6V61.5z M37.2,51.8c2.4,0,4.3,1.9,4.3,4.3c0,2.4-1.9,4.3-4.3,4.3
		s-4.3-1.9-4.3-4.3C32.9,53.7,34.8,51.8,37.2,51.8z M43.1,54h2.7v12.9h-2.7V54z"/>
	<g>
		<path fill="#FFFFFF" d="M62.1,32.8c-0.3-0.6-0.3-1.3,0-2l3.5-5l-0.2-0.7l-1-4.8l-1,1.5c-0.2,0.3-0.4,0.4-0.6,0.6
			c-0.2,0.3-0.4,0.5-0.8,0.7l-5.4,2.6c-0.9,0.5-2.1,0.1-2.5-0.9c-0.5-0.9-0.1-2.1,0.9-2.5l5.3-2.6l3.4-5c0.4-1.3,1.4-2.4,2.8-2.7
			c2-0.4,4,0.9,4.5,2.9l1.8,8.6l0.1,0.9l3,5.9l0,0l7.2,1.3c1.4,0.3,2.3,1.2,2,2.6c-0.3,1.4-1.6,2.3-2.9,2l-7.2-0.9
			c-0.3-0.1-0.6-0.2-0.8-0.3c-0.3-0.1-1.4-0.5-1.5-0.8l-2.8-5.2L67.1,32l1.7,8c0.3,1.4-0.2,3.1-1.6,3.4c-1.4,0.3-3.1-1-3.4-2.3
			L62.1,32.8z"/>
		<circle fill="#FFFFFF" cx="66.6" cy="6.9" r="3.8"/>
	</g>
	<path fill="#FFFFFF" d="M8.3,21.8c1.2,0,2.4,0.3,3.5,0.8l4.8-9.1h-2.4v-2.4h7.1v2.4H19L17.1,17h12l0.6-1.2h-3.6v-2.4h7.1v2.4h-1.2
		l-1.6,3h0.4l2.2,3.9c1.1-0.6,2.4-0.9,3.7-0.9c4.6,0,8.3,3.7,8.3,8.3s-3.7,8.3-8.3,8.3c-4.2,0-7.7-3.1-8.2-7.1h-4.8h-1.2h-1.2l-6-11
		l-1.8,3.3c1.9,1.5,3.1,3.9,3.1,6.5c0,4.6-3.7,8.3-8.3,8.3S0,34.7,0,30.1S3.7,21.8,8.3,21.8z M25.1,28.9h3.6c0.3-2,1.3-3.8,2.8-5.1
		l-1.9-3.2L25.1,28.9z M27.8,19.4H17.3l5.3,9.7L27.8,19.4z M8.3,24.2c-3.3,0-5.9,2.7-5.9,5.9c0,3.3,2.7,5.9,5.9,5.9s5.9-2.7,5.9-5.9
		c0-1.7-0.7-3.2-1.8-4.3l-2.9,5.5H7.1l3.5-6.7C10,24.4,9.2,24.2,8.3,24.2z M36.9,24.2c-0.9,0-1.8,0.2-2.6,0.6l3.7,6.6h-0.6h-1.8
		h-4.6c0.6,2.7,3,4.8,5.8,4.8c3.3,0,5.9-2.7,5.9-5.9S40.2,24.2,36.9,24.2z M31.1,28.9h3.3l-1.7-3C31.9,26.8,31.3,27.8,31.1,28.9z"/>
</g>
</svg>
