<svg width="165" height="164" viewBox="0 0 165 164" fill="none" xmlns="http://www.w3.org/2000/svg">
<path fill-rule="evenodd" clip-rule="evenodd" d="M50.3811 22.2458C57.5404 1.29837 101.651 -2.91782 120.696 1.67659C146.833 7.98058 170.479 34.9178 161.162 60.9181C157.992 69.7649 148.829 81.6561 149.881 91.5505C151.171 103.668 166.554 113.092 164.457 126.883C161.25 147.975 123.2 164.712 104.992 163.903C62.4597 162.014 18.3166 136.239 3.80728 94.6922C-2.92875 75.4059 -2.50111 57.6051 19.8628 54.4414C40.9203 51.4626 49.4344 48.4281 50.618 24.1041C53.699 22.6803 50.3811 22.2458 50.3811 22.2458Z" fill="#C1DEE6"/>
<path fill-rule="evenodd" clip-rule="evenodd" d="M116.409 65.4718C112.947 69.9904 100.397 81.1829 99.0574 83.3411C97.1472 86.4192 95.0648 94.95 94.5408 106.147C94.4551 107.965 89.6704 107.912 88.8636 106.515C87.2308 103.688 89.7423 83.1557 93.2221 77.8043C96.1266 73.3386 99.8192 68.6987 103.969 65.0046C108.426 61.0354 113.466 56.9685 114.193 50.9013C114.733 46.4072 113.875 40.6326 108.496 38.7836C103.115 36.9356 94.075 37.6587 90.673 42.6064C87.9765 46.5344 86.4342 50.617 81.7894 52.856C79.9575 53.7382 77.3829 52.6256 76.4019 51.1944C74.2226 48.0209 74.6997 46.2599 76.0046 42.9519C79.4467 34.2283 88.682 27.9571 100.106 27.2124C115.52 26.207 124.985 35.5411 123.252 51.4992C122.759 56.0418 119.802 61.0418 116.409 65.4718Z" fill="black"/>
<path fill-rule="evenodd" clip-rule="evenodd" d="M94.3575 136.146C92.1444 136.808 91.4995 136.805 89.3261 135.181C87.37 133.721 86.0675 132.035 86.3028 129.488C86.4682 127.695 87.7286 121.582 91.4951 121.112C95.5611 120.604 98.0066 124.633 98.2811 128.15C98.4729 130.605 97.3138 135.263 94.3575 136.146Z" fill="black"/>
</svg>
