<svg width="167" height="126" viewBox="0 0 167 126" fill="none" xmlns="http://www.w3.org/2000/svg">
<path fill-rule="evenodd" clip-rule="evenodd" d="M9.74925 111.527C2.43896 104.392 5.15291 94.1983 9.09536 88.513C14.7802 80.3157 22.0189 78.9114 30.6976 75.9749C38.8027 73.2323 47.8234 69.596 53.6989 62.9105C60.2702 55.4354 65.072 46.0512 73.0639 39.9727C80.5036 34.3127 88.7596 31.5424 95.5559 25.1109C102.508 18.5324 108.565 8.55687 117.613 3.8951C125.529 -0.182518 135.414 0.475193 144.17 0.118873C153.409 -0.256075 160.666 1.22795 164.976 10.1856C169.632 19.8645 165.574 25.3201 159.732 32.9294C154.382 39.8982 155.557 47.0079 153.061 55.038C149.906 65.1812 138.7 75.5168 131.094 82.6423C118.805 94.1568 99.56 93.8386 85.067 102.635C68.5688 112.647 59.0895 127.741 38.0213 125.633C32.1205 125.044 25.7454 123.424 20.7049 120.04C17.8242 118.108 12.4732 114.186 9.74925 111.527Z" fill="#C1DEE6"/>
<path fill-rule="evenodd" clip-rule="evenodd" d="M143.18 13.9959C144.893 12.5515 146.924 14.1841 147.639 15.3295C150.186 19.41 151.908 26.8979 152.172 31.6777C152.49 37.4844 143.753 52.9981 144.211 53.3167C145.146 53.9654 145.911 51.5552 147.017 51.9631C148.564 52.5339 148.117 55.8883 147.708 56.9826C146.593 59.964 142.259 61.6105 139.924 63.4561C132.105 69.6406 102.464 82.8029 93.3253 85.247C86.3661 87.1083 75.3259 88.5952 70.4482 94.4397C70.5027 94.6341 79.2473 92.0347 75.066 96.2432C72.246 99.0818 68.6485 103.794 64.7251 105.578C60.6575 107.427 47.6036 109.43 43.7901 108.88C39.7526 108.297 38.2614 105.56 35.2413 104.03C33.0227 102.905 16.2866 113.179 12.6494 114.811C10.8234 115.631 5.32287 119.412 3.25612 117.941C2.99437 117.755 -2.50566 115.829 1.39093 114.572C4.9398 113.426 8.60044 111.936 11.9329 110.273C13.8879 109.299 30.9927 100.633 30.1406 99.5624C25.0585 93.1777 27.1616 88.0851 29.0783 80.6249C29.4041 79.3582 30.8537 77.6176 31.9002 76.8673C33.444 75.7606 35.1802 81.8854 36.2286 83.1248C37.341 82.1643 37.9997 79.0749 38.8571 77.6984C40.4849 75.0852 42.4542 72.8064 45.0965 71.245C47.7039 69.7031 60.8792 63.8282 64.1816 61.855C66.2235 60.6342 65.8485 62.3785 66.9376 62.9756C68.1364 62.2462 69.8641 58.3936 70.5944 57.2706C72.5971 54.1946 80.814 42.907 82.5702 40.0985C84.455 37.0827 92.4426 29.7404 95.6872 28.3896C96.5431 28.0323 98.1838 37.7346 98.1838 37.7346C99.7538 33.8108 103.566 24.4825 106.156 22.0222C110.127 18.2493 115.358 15.2287 119.929 13.3248C125.436 11.0307 134.607 8.23031 140.506 7.62944C142.215 7.4551 137.168 13.0999 136.921 15.1733C136.778 16.3669 142.028 14.9679 143.18 13.9959ZM93.5259 34.4642C90.6624 33.2577 80.1677 51.1052 77.0516 54.4693C75.1821 56.4873 65.8132 73.2534 62.6531 69.365C62.1865 68.7913 62.7128 66.7375 62.0059 66.6491C60.2291 66.4284 47.1236 72.7381 44.413 76.361C41.357 80.4457 40.803 83.409 38.8871 87.9323C36.9197 92.5745 33.668 81.5008 32.3124 84.6399C30.9636 87.7627 31.1107 95.1819 33.2677 97.4569C35.7276 100.053 42.9781 93.3736 45.2885 92.0433C50.4609 89.0638 58.6271 84.8176 68.8519 78.5103C75.5322 74.3916 81.4726 71.2034 88.0373 67.2858C92.3571 64.708 95.4661 62.2806 99.0231 59.7233C101.652 57.8338 103.927 55.5062 107.091 55.9991C105.752 59.0661 94.9894 67.2944 92.8137 68.9575C91.4749 69.9802 67.5647 84.3213 63.7574 86.5505C59.4601 89.0652 55.2721 91.5819 50.9686 94.0943C49.3074 95.0635 38.4549 99.9918 38.8618 101.801C40.7509 110.194 66.6686 103.194 66.0668 101.33C66.0296 101.217 58.927 102.357 61.9261 99.6068C62.8714 98.7379 66.3806 93.4113 68.3743 91.7257C71.7211 88.8952 75.323 86.5681 79.2803 85.3568C83.0985 84.1881 106.618 77.2107 110.725 75.1673C112.39 74.3386 135.861 62.7396 135.172 61.995C133.631 61.9663 128.798 63.9977 128.299 64.5193C127.423 65.4311 124.318 64.2131 125.054 63.5449C126.475 62.2567 133.032 57.5801 134.528 56.3005C136.827 54.3322 138.849 50.9538 140.657 48.3402C143.114 44.788 145.237 41.242 146.946 37.2747C148.284 34.17 147.931 30.9407 147.742 27.6421C147.655 26.1308 146.832 22.2591 145.513 21.2737C143.06 19.2772 137.37 20.809 136.119 20.637C134.756 20.4488 130.233 14.6923 128.408 14.5729C127.429 14.5089 114.108 18.9916 109.292 25.5725C106.971 28.7459 103.739 32.3884 101.969 35.9215C100.536 38.7807 98.8258 44.0834 96.7466 43.0938C95.1241 42.32 93.1743 34.3128 93.5259 34.4642Z" fill="black"/>
</svg>
