<svg id="Component_2_1" data-name="Component 2 – 1" xmlns="http://www.w3.org/2000/svg" xmlns:xlink="http://www.w3.org/1999/xlink" width="763" height="665.493" viewBox="0 0 763 665.493">
  <defs>
    <clipPath id="clip-path">
      <rect id="Rectangle_2" data-name="Rectangle 2" width="763" height="578" transform="translate(3038 921)" stroke="#000" stroke-width="1"/>
    </clipPath>
  </defs>
  <path id="Vector_14_" data-name="Vector (14)" d="M40.3,157.176c-5.215-22.444-.073-60.474,3.133-75.824,7.342-35.18,19.919-52.38,33.906-59.48,12.392-6.289,23.331-1.965,35.758-2,13.431-.035,25.854-9.843,38.927-14.392,23.562-8.2,70.547-18.468,80.779,61.526,6.9,53.954-.544,108.888-5.56,161.68-5.086,53.549-4.314,95.939,2.2,147.739,4.639,36.891,8.111,73.935,10.049,112.727,6.722,134.6-56.9,152.063-91.174,157.91-12.853,2.187-25.687-2.378-38.348-3.748-13.6-1.477-25.535,21.346-39.3,22.131-12.8.732-28.929-7.062-41.479-14.856C16.434,642.671,10.8,612.826,6.956,580.87c-7.237-60.138-11.7-100.744,1.482-156.829,12.738-54.2,20.44-115.174,29.665-174.135C42.642,220.888,44.847,176.72,40.3,157.176Z" transform="translate(249.384)" fill="#c1dee6" fill-rule="evenodd"/>
  <g id="Mask_Group_2" data-name="Mask Group 2" transform="translate(-3038 -869.526)" clip-path="url(#clip-path)">
    <g id="exercise27" transform="translate(3108.878 921)">
      <rect id="rect4156" width="145.43" height="213.717" rx="14.784" transform="translate(232.331 182.267)" fill="none" stroke="#000" stroke-width="12.263"/>
      <g id="g4166" transform="translate(232.898 97.098)">
        <rect id="rect4364" width="19.952" height="85.016" rx="9.976" transform="translate(60.572 115.625)"/>
        <rect id="rect4364-3" width="19.952" height="66.274" rx="9.976" transform="translate(63.645 200.641) rotate(-90)"/>
      </g>
      <rect id="rect4170-7" width="10.023" height="11.605" rx="0.642" transform="translate(379.394 280.505)" stroke="#000" stroke-width="11.255"/>
      <path id="path4191" d="M377.508,168.943,350.4,0H259.683l-27.1,168.868Z" fill-rule="evenodd"/>
      <path id="path4191-1" d="M377.508,409.057l-144.925.074L259.683,578H350.4l27.112-168.942Zm-72.1,87.445c3.908,0,7.076,3.447,7.076,7.7s-3.168,7.7-7.076,7.7-7.076-3.447-7.076-7.7,3.168-7.7,7.076-7.7Zm0,56.572c3.908,0,7.076,3.447,7.076,7.7s-3.168,7.7-7.076,7.7-7.076-3.447-7.076-7.7,3.168-7.7,7.076-7.7Z" fill-rule="evenodd"/>
    </g>
  </g>
</svg>
