<svg id="Component_5_1" data-name="Component 5 – 1" xmlns="http://www.w3.org/2000/svg" width="97.68" height="106.445" viewBox="0 0 97.68 106.445">
  <path id="Vector_13_" data-name="Vector (13)" d="M5.639,9.515c3.58-9.58,10.112-6.32,14.8-6.586,5.575-.316,11.081-.664,16.645-1.19,5.585-.528,10.684.787,16.2,1.2,6.892.522,13.426-2.719,20.29-2.71,6.065.008,13.361,1.872,18.1,6.288,8.763,8.159,7.03,22.888,3.28,33.156C91.979,47.862,87.86,57.911,89.4,66.993c.845,4.988,4.286,8.754,3.176,14.005-3.4,16.062-16.01,28.028-31.316,25.289-4.445-.8-20.391-3.3-25.207-4.865-13.547-4.4-22.52-13.708-24.641-29.638C9.972,60.978,1.234,49.876.434,39.153-.17,31.07,2.9,16.845,5.639,9.515Z" transform="translate(-0.357 -0.234)" fill="#c1dee6" fill-rule="evenodd"/>
  <path id="exercise42" d="M52.66.249a1.012,1.012,0,0,0-.789-.241l-31,4.011A1,1,0,0,0,20,5.01V40.623A10.377,10.377,0,0,0,12,37C6.486,37,2,41.037,2,46s4.486,9,10,9,10-4.037,10-9c0-.232-.019-.46-.039-.687A.962.962,0,0,0,22,45.121v-29l29-3.753V30.622A10.38,10.38,0,0,0,43,27c-5.514,0-10,4.037-10,9s4.486,9,10,9c5.464,0,9.913-3.966,9.993-8.867,0-.013.007-.024.007-.037V1A1,1,0,0,0,52.66.249Z" transform="translate(21.34 25.723)"/>
</svg>
