<svg id="Component_1_1" data-name="Component 1 – 1" xmlns="http://www.w3.org/2000/svg" width="23000" height="23080" viewBox="0 0 23000 23080">
  <path id="Vector_12_" data-name="Vector (12)" d="M3306.736,1776.715c492.16-46.342,969.232-34.327,1461.784-137.183C5835.883,1416.713,6823.272,788.113,7865.252,449.781c1829.938-594.193,3562.6-763,5180.952,524.739,664.2,528.529,1200.536,1238.392,1808.811,1837.877,821.739,809.841,1691.409,1562.471,2534.724,2343.219,1502.3,1390.529,3284.059,2520.613,4648.508,4084.106,926,1061.059,1009.834,2236.926,944.818,3650.5-62.842,1362.132-235.3,2853.564-597.592,4160.669-351.135,1266.539-1130.6,2365.084-1832.729,3435.445-649.717,990.936-1484.486,1641.547-2590.035,1797.773-1617.56,228.533-3245.833-23.225-4871.413,286.441-1871,356.273-3606.732,599.053-5508.823,477.971-1136.78-72.459-2643.278-8.979-3710.626-521.168-459.377-220.174-774.36-695.357-1136.331-1054.881-396.78-394.361-802.278-758.529-1159.557-1200.889C490.576,18927.623,162.315,17469.867,44.934,15704.763c-163.708-2461.774,144.774-4894.194,523.723-7314.241,157.982-1009.066,426.579-1948.89,343.878-2902.587-94.282-1087.813,106.515-2087.868,651.71-2850.438C1564.186,2637.5,2795.375,1824.852,3306.736,1776.715Z" fill="#c1dee6" fill-rule="evenodd"/>
  <g id="Warstwa_x0020_1" transform="translate(719.704 302)">
    <g id="_215771968">
      <path id="Path_1" data-name="Path 1" d="M20472,6305c-38-95-125-162-227-175a281.752,281.752,0,0,0-262,116c-354,496-818,661-1356,853-434,155-883,314-1367,662-686,493-1000,1164-843,1800l-17,21c-286-415-598-800-927-1143-1538-1605-3687-2570-5897-2647-97-3-196-5-294-5-2467,0-4829,1103-6479,3026C1161,10726,433,13216,806,15646c32,203,71,408,116,610,607,2670,2157,4702,4252,5573,517,215,1038,324,1549,324,1269,0,2377-679,3041-1862,252-451,415-916,484-1385,40-276,13-552-14-820-28-275-54-536-12-798,95-601,515-959,1123-959,172,0,349,28,525,84-206,379-394,741-557,1076-348,710-587,1298-713,1748-77,277-282,1014,218,1361,159,111,361,150,571,111,189-36,764-142,2399-2003,438-500,911-1077,1405-1718,1268-427,2256-1490,2517-2712,65-305,92-632,81-972,475-734,891-1419,1310-2155q12-21,24-45c609-166,1133-640,1440-1302C21014,8836,20981,7594,20472,6305Zm-6857,4576c-220,350-599,558-1012,558-225,0-444-63-635-184-270-170-458-435-529-746-70-311-16-631,154-901,220-349,599-558,1012-558,225,0,444,64,635,184,270,170,458,435,529,746C13839,10291,13785,10611,13615,10881Zm1550,2164c604-889,1243-1774,1849-2561,98,89,208,176,327,259,198,137,404,242,615,315-512,876-1063,1743-1729,2725-1096,1614-2235,3114-3208,4222-543,619-1019,1097-1385,1393,141-452,412-1073,788-1809C13095,16274,14069,14660,15165,13045Zm-10602-7c-225,0-445-64-636-184-270-170-457-435-528-746s-16-631,154-901c220-350,598-559,1012-559,225,0,444,64,635,184,558,351,725,1090,375,1647C5355,12829,4976,13038,4563,13038ZM3311,15668c220-350,598-558,1011-558,225,0,445,63,636,184,270,170,457,434,528,746,71,311,16,631-154,901-220,349-598,558-1012,558-225,0-444-64-635-184-270-170-458-435-528-746C3086,16258,3141,15938,3311,15668ZM7136,8574c220-350,598-558,1012-558a1185.305,1185.305,0,0,1,635,184c557,350,725,1089,374,1647-220,349-598,558-1012,558-224,0-444-64-635-184-270-170-457-435-528-746S6966,8844,7136,8574Z" fill-rule="evenodd"/>
    </g>
  </g>
</svg>
