<svg width="181" height="137" viewBox="0 0 181 137" fill="none" xmlns="http://www.w3.org/2000/svg">
<path fill-rule="evenodd" clip-rule="evenodd" d="M7.28409 41.2124C14.9928 28.6969 33.5931 26.4599 45.9378 17.2373C62.0374 5.20959 83.182 0.159164 104.163 1.09077C139.993 2.68193 195.378 41.8245 177.556 84.759C171.403 99.5844 161.598 110.274 147.322 117.759C124.364 129.794 93.3743 137.363 68.4451 136.134C51.0152 135.275 34.8892 128.629 21.198 116.534C5.86271 102.987 2.06584 89.1915 0.215841 69.8083C-0.430019 63.0385 3.42214 47.4826 7.28409 41.2124Z" fill="#C1DEE6"/>
<path fill-rule="evenodd" clip-rule="evenodd" d="M24.2736 81.9416C21.4157 79.7217 19.1664 77.266 17.0395 74.0494C16.0541 72.5595 23.411 64.8112 25.7278 62.3769C28.3425 59.6296 50.5988 34.8462 58.673 28.4531C63.1118 24.9376 74.4604 19.9576 80.3651 21.929C83.4104 22.9457 87.2973 23.7893 90.0388 25.3838C91.5928 26.2871 101.278 20.6744 108.091 22.5817C117.082 25.0183 132.324 43.0002 134.023 44.9255C135.667 46.7892 143.354 55.8337 147.234 60.9091C150.306 64.8019 150.946 66.6572 151.918 68.7754C152.513 70.0749 144.544 80.4483 142.341 82.6007C139.468 85.4072 131.32 95.0594 122.28 103.314C118.313 106.937 103.497 115.475 96.1852 116.617C86.1436 118.188 76.2536 117.141 66.6645 112.774C61.9933 110.646 54.8086 105.706 50.7994 102.548C48.4121 100.668 26.9955 84.0553 24.2736 81.9416ZM84.9316 111.387C96.9343 111.333 106.471 108.936 116.019 101.342C118.493 99.3745 140.792 80.7252 139.802 77.3046C139.309 77.972 116.124 90.1886 111.687 91.8624C93.3826 98.7677 73.9266 96.4661 68.4739 94.6851C64.6311 93.4306 51.1707 89.003 44.1788 84.6376C43.1215 83.9771 31.2528 76.9112 27.2984 75.5911C23.6703 74.3797 30.9808 81.7019 31.6809 82.3565C35.6941 86.1064 40.0551 88.7711 44.4837 91.9935C48.6568 95.0311 62.7155 105.008 67.8065 106.903C71.9948 108.461 80.463 111.408 84.9316 111.387ZM78.7128 91.6833C89.0901 93.5896 102.794 89.2183 112.349 85.8295C115.41 84.7433 138.76 74.913 137.512 71.2198C137.253 70.4507 129.329 65.3934 127.286 64.2284C121.97 61.1992 117.258 57.4317 111.711 54.8678C104.667 51.6126 89.3377 49.3736 79.7481 51.411C65.271 54.4857 60.957 54.793 46.6228 63.4182C44.742 64.5499 36.1623 69.8807 34.8515 71.2928C33.781 72.445 45.9505 80.9601 47.0123 81.581C54.6843 86.0751 74.4941 90.9088 78.7128 91.6833ZM88.1937 34.3246C92.1834 33.1112 94.0793 29.8393 98.3362 28.9576C104.442 27.6933 108.91 29.5472 114.372 32.6184C120.222 35.907 140.046 58.8091 143.09 65.2818C141.034 66.7517 123.877 56.6073 119.915 53.7327C113.673 49.2043 97.3263 44.6809 88.1389 44.9681C82.6594 45.1398 60.5484 50.1447 52.1875 54.1021C49.5742 55.339 30.2635 68.2738 29.7615 67.5913C27.5729 64.6159 53.7596 42.6249 55.4236 41.0719C62.4156 34.5462 66.3382 29.3755 76.3686 27.8004C80.0294 27.226 86.6113 34.1392 87.6222 34.1612" fill="black"/>
</svg>
