<svg width="165" height="184" viewBox="0 0 165 184" fill="none" xmlns="http://www.w3.org/2000/svg">
<path d="M31.6916 39.59C33.3535 46.2377 15.921 56.5824 11.9872 63.4537C3.02503 79.1078 -5.33774 113.33 4.27903 129.926C8.23809 136.759 16.4419 140.523 22.1065 144.937C28.5543 149.963 34.2584 155.352 40.9845 159.797C56.0321 169.742 69.5354 178.556 86.7221 181.741C93.1997 182.941 100.146 183.999 106.943 183.999C109.471 183.999 111.981 183.853 114.436 183.512C121.924 182.474 125.424 177.398 131.572 172.441C141.695 164.279 164.659 160.906 164.997 141.195C165.2 129.272 152.957 115.271 149.59 104.498C145.118 90.1918 143.107 69.2329 138.792 55.8172C130.29 29.3845 85.9159 -4.34164 67.0613 0.401063C50.6615 4.52653 25.1079 13.2592 31.6916 39.59Z" fill="#C3DFE7"/>
<path fill-rule="evenodd" clip-rule="evenodd" d="M132.44 120.342C127.604 114.257 115.803 109.438 107.635 107.483C103.386 106.463 97.5189 105.516 93.1662 105.416C87.8474 105.29 73.1839 111.453 67.969 118.539C67.7499 118.834 67.455 119.463 67.1142 120.306C66.7343 121.234 66.3007 122.43 65.8523 123.738C65.8868 123.757 65.9249 123.776 65.9672 123.795C66.0976 123.857 66.2276 123.918 66.3544 123.979H66.3585C67.3939 124.443 69.0622 125.019 71.1251 125.651C71.4889 124.976 71.8807 124.324 72.2983 123.7C72.4866 123.416 72.3718 122.814 72.4407 122.396C72.46 122.277 72.494 122.177 72.5518 122.101C76.1792 117.301 82.3225 113.01 87.9554 111.684C95.0113 110.024 104.587 111.066 111.221 114.176C117.728 117.22 123.146 118.543 127.963 124.397C132.457 129.856 138.094 137.107 132.756 144.08C127.725 150.655 119.074 153.063 111.347 153.731C103.21 154.432 94.7775 152.481 86.598 152.45C80.1406 152.427 68.7094 147.102 68.0154 144.847C67.5551 143.364 66.9378 140.948 66.8725 139.314C66.8193 138.099 67.5859 136.999 67.8812 135.787C66.2896 135.346 64.5372 134.84 62.704 134.273C62.6429 134.541 62.5929 134.771 62.5584 134.956C62.3554 136.052 62.156 137.152 62.0104 138.241C61.546 141.791 60.8249 146.29 63.5396 149.274C69.6676 156.018 80.1264 157.095 88.344 157.77C96.2244 158.417 107.022 160.902 114.756 159.377C123.047 157.74 132.351 154.727 136.577 146.227C141.178 136.98 138.027 127.377 132.44 120.342Z" fill="black"/>
<path fill-rule="evenodd" clip-rule="evenodd" d="M109.197 128.379C108.391 131.374 101.928 137.366 100.72 137.873C88.4381 143.018 78.6932 143.383 67.3888 141.168C67.0893 141.11 67.3888 141.168 67.0898 141.106C65.4945 140.784 63.6865 138.64 62.0912 138.264C63.54 141.106 61.8919 139.647 61.8652 139.639C56.7808 138.209 49.9288 137.028 45.4732 134.195C43.4824 132.93 37.5656 130.294 35.8711 128.626C35.8711 128.626 53.1584 73.8858 55.2208 67.7998C57.2916 61.6927 71.7659 11.4344 73.2766 9.27541C73.9284 8.34772 77.3414 8.46253 77.8972 9.41778C78.9022 11.1391 77.6137 13.022 77.0157 14.712C75.0442 20.2901 46.3928 112.684 44.3602 119.378C42.9528 124.005 42.5807 125.232 42.5807 125.232C47.175 128.901 55.5419 132.049 62.7054 134.273C64.5381 134.84 66.291 135.346 67.8826 135.787C71.6671 136.834 74.5352 137.501 75.368 137.693C83.7698 139.621 100.895 135.25 102.08 133.218C99.0466 132.908 80.7634 128.621 71.1265 125.65C69.0636 125.018 67.3952 124.443 66.3599 123.978H66.3557C66.2138 123.917 66.0838 123.856 65.9685 123.795C65.9263 123.776 65.8881 123.756 65.8537 123.738C60.857 121.107 54.971 118.159 53.4717 116.629C53.4717 116.629 61.4399 92.4865 63.3415 86.5176C65.2134 80.6515 84.2893 16.1343 85.4248 13.5432C87.089 9.75119 89.4335 16.0462 89.4946 17.1778C89.6251 19.593 87.7877 22.4684 87.1166 24.7729C86.3922 27.2529 72.4347 75.2645 70.5978 80.6015C68.2707 87.3566 59.9424 113.912 59.9424 113.912C61.2993 115.556 64.331 117.715 67.6447 119.103C69.4085 119.84 70.1945 121.503 70.1945 121.503C70.1945 121.503 71.0461 121.855 72.4416 122.396C72.6372 122.472 72.8922 121.312 73.1076 121.396C77.4525 123.064 86.6127 125.051 91.7137 126.235C96.3755 127.321 109.197 128.379 109.197 128.379Z" fill="black"/>
</svg>
