<svg width="172" height="175" viewBox="0 0 172 175" fill="none" xmlns="http://www.w3.org/2000/svg">
<path fill-rule="evenodd" clip-rule="evenodd" d="M39.1799 25.1952C48.3623 17.4376 59.3816 9.06879 70.3563 4.06386C82.5352 -1.48955 96.6242 -0.23502 109.587 1.34342C122.409 2.90425 136.874 3.23403 148.57 9.24983C172.849 21.7384 171.533 50.6035 171.561 74.2263C171.578 88.8506 170.411 104.019 168.253 118.5C166.651 129.255 165.726 143.796 157.758 151.725C137.412 171.971 105.776 172.263 79.5588 174.263C52.6852 176.313 21.1246 172.37 9.25207 144.022C-0.632037 120.423 -4.84921 89.4153 8.11496 66.1618C10.4024 62.0587 13.092 58.5519 15.8746 54.8319C17.6478 52.4623 32.2266 31.0701 39.1799 25.1952Z" fill="#C1DEE6"/>
<path fill-rule="evenodd" clip-rule="evenodd" d="M62.7396 24.7249C67.0737 24.6686 73.6874 24.3554 78.0117 24.468C92.4002 24.8413 136.204 23.0711 136.523 25.9613C137.331 33.2571 137.414 42.2981 137.533 49.6316C137.731 61.8129 138.838 78.9194 138.918 91.0596C138.926 92.0665 123.95 111.344 120.774 116.889C119.903 118.412 117.632 121.331 115.6 121.623C112.973 122 62.5306 122.628 49.5259 122.717C46.7066 122.738 42.6587 123.174 39.8849 122.62C38.8726 122.419 39.4548 116.575 39.425 115.672C39.2126 109.256 39.5263 102.63 39.723 96.201C40.0547 85.4636 40.7392 74.4894 40.5352 63.8141C40.4916 61.578 40.1834 59.4208 40.3316 57.1999C40.5009 54.6771 41.823 52.1949 43.1793 50.1801C44.63 48.0252 61.875 24.7356 62.7396 24.7249ZM110.739 116.241C110.739 116.241 109.912 60.9297 109.845 56.4366C109.832 55.5529 101.57 56.8931 99.5047 56.648C94.2805 56.0261 58.6853 56.1337 46.7124 56.7282C45.593 56.783 45.6243 74.6601 45.3488 91.5944C45.1472 103.982 44.7372 115.367 44.9158 117.364C44.9481 117.723 89.1014 116.925 110.739 116.241ZM80.3803 52.0301C88.6733 52.2077 96.9369 51.235 105.229 51.1674C109.518 51.1332 110.885 52.6872 113.347 48.7606C114.714 46.5804 126.966 31.8293 128.118 29.3457C128.386 28.7674 126.626 28.8941 124.463 28.9968C115.385 29.4308 80.7835 29.2224 72.6853 29.011C69.2515 28.921 66.3897 28.1367 64.2216 30.9897C62.3604 33.4386 53.3457 45.0523 51.3509 47.8628C51.0828 48.2395 47.9616 52.0124 49.7685 51.9948C51.8446 51.9743 53.9383 51.9205 56.0133 52.0046C64.1223 52.3324 72.2929 51.5628 80.3803 52.0301C81.6535 52.0575 78.6478 51.9302 80.3803 52.0301ZM116.294 114.986C118.369 114.345 133.826 90.083 134.359 87.7442C135.221 83.959 134.077 34.2968 132.785 30.8693C130.342 31.9203 124.979 38.8756 123.611 41.118C121.678 44.2885 119.366 47.2448 117.348 50.3542C116.393 51.8265 114.298 57.3114 114.3 59.4961C114.303 63.3424 114.942 67.2601 115.106 71.1133C115.421 78.4942 115.561 85.8511 115.676 93.2296C115.781 99.9632 114.206 108.407 115.804 114.986C116.319 114.827 116.12 114.272 116.294 114.986Z" fill="black"/>
<path fill-rule="evenodd" clip-rule="evenodd" d="M78.5901 134.273C79.1166 139.596 76.8155 143.368 71.4602 144.413C68.9438 144.904 66.0321 144.861 63.5705 144.042C60.7008 143.087 60.3137 139.603 60.1332 137.034C59.7804 132.048 65.327 127.258 69.8079 126.691C73.5495 126.218 78.8289 130.265 78.5901 134.273C78.6307 134.679 78.5945 134.199 78.5901 134.273ZM70.2218 140.58C73.1928 140.325 75.2219 136.916 74.9464 134.255C74.6518 131.411 72.1912 130.007 69.9664 130.393C66.9955 130.91 63.6889 134.604 64.3533 136.874C64.8969 138.729 66.1348 140.932 70.2218 140.58Z" fill="black"/>
<path fill-rule="evenodd" clip-rule="evenodd" d="M95.3738 37.529C95.8998 42.852 93.6001 46.6229 88.2449 47.669C85.7275 48.1603 82.8157 48.1177 80.3541 47.2976C77.4845 46.3426 77.0974 42.8588 76.9164 40.2901C76.5636 35.3037 82.1107 30.5136 86.5911 29.947C90.3327 29.4739 95.6121 33.5217 95.3738 37.529C95.4139 37.9346 95.3787 37.4556 95.3738 37.529ZM87.005 42.8578C89.976 42.6024 91.5158 40.1721 91.2403 37.5109C90.9458 34.6672 88.9739 33.7517 86.7491 34.1387C83.7777 34.6559 79.9823 37.8603 80.6472 40.1301C81.1913 41.9845 82.9185 43.2101 87.005 42.8578Z" fill="black"/>
<path fill-rule="evenodd" clip-rule="evenodd" d="M154.862 101.386C155.388 106.709 153.087 110.48 147.732 111.525C145.215 112.017 142.304 111.974 139.841 111.155C136.972 110.199 136.585 106.716 136.405 104.147C136.051 99.1607 141.599 94.3705 146.079 93.8039C149.821 93.3308 155.1 97.3787 154.862 101.386C154.902 101.792 154.866 101.313 154.862 101.386ZM146.492 106.715C149.464 106.459 151.493 104.03 151.217 101.367C150.923 98.5246 148.462 96.6301 146.237 97.0171C143.266 97.5343 140.449 101.718 141.114 103.987C141.657 105.841 142.406 107.067 146.492 106.715Z" fill="black"/>
</svg>
