<?xml version="1.0" encoding="utf-8"?>
<!-- Generator: Adobe Illustrator 18.0.0, SVG Export Plug-In . SVG Version: 6.00 Build 0)  -->
<!DOCTYPE svg PUBLIC "-//W3C//DTD SVG 1.1//EN" "http://www.w3.org/Graphics/SVG/1.1/DTD/svg11.dtd">
<svg version="1.1" id="Warstwa_1" xmlns="http://www.w3.org/2000/svg" xmlns:xlink="http://www.w3.org/1999/xlink" x="0px" y="0px"
	 viewBox="0 0 85 85" enable-background="new 0 0 85 85" xml:space="preserve">
<g>
	<g>
		<path fill="#FFFFFF" d="M62.7,46.7H45.1c0,0-3.5,34.3-3.5,34.6c0,2,1.6,3.6,3.6,3.6c1.9,0,3.5-1.5,3.6-3.5
			c0.1-0.1,4.6-25.2,4.6-25.2l1.2,0c0,0,4.5,24.7,4.5,25c0,2,1.6,3.6,3.6,3.6s3.6-1.6,3.6-3.6C66.4,81,62.7,46.7,62.7,46.7z"/>
		<path fill="#FFFFFF" d="M63.7,25.5c-0.6-0.3-2-0.5-3-0.3c-1.6,2-4.1,3.3-6.8,3.3c-2.9,0-5.5-1.4-7.1-3.6
			c-7.8-2.3-9.4-10.3-8.2-13.6l-2.1,1.6l-2.5-3.3l0,0c-2.3,7.8,1,16.2,12.1,20.6l-1,14.7h17.6V31.1c2.8,1.5,3.8,8.9,5.6,18.5h4
			C70.9,34.2,67.2,27.3,63.7,25.5z"/>
		<path fill="#FFFFFF" d="M70.6,47.2c-2.8,0-5,2.5-5,5.5c0,0.6,0.5,1,1,1s1-0.5,1-1c0-1.8,1.3-3.3,3-3.3c1.6,0,3,1.5,3,3.3h0V84
			c0,0,0,0,0,0c0,0.6,0.5,1,1,1c0.6,0,1-0.5,1-1V52.7C75.6,49.6,73.4,47.2,70.6,47.2z"/>
		<path fill="#FFFFFF" d="M40.8,0l-7.6,5.7l3.6,4.8l7.6-5.7L40.8,0z M40.5,2.4c-0.3,0-0.6-0.3-0.6-0.6s0.3-0.6,0.6-0.6
			c0,0,0,0,0.1,0c0,0,0,0,0,0c0.2,0,0.4,0.1,0.4,0.3C41,1.7,41,1.7,41,1.8C41,2.1,40.8,2.4,40.5,2.4z"/>
		<path fill="#FFFFFF" d="M57.5,13.9c-3.3-1.9-7.6-0.8-9.5,2.6s-0.8,7.6,2.6,9.5c3.3,1.9,7.6,0.8,9.5-2.6C62,20,60.8,15.8,57.5,13.9
			z M51.3,24.9c-1.7-1-2.6-2.8-2.4-4.6l7.6,4.3C55.1,25.7,53,25.9,51.3,24.9z"/>
	</g>
	<g>
		<path fill="#FFFFFF" d="M9.5,84.6v-1.5l2.8-1.9H9.5v-1.5h5.1v1.5l-2.8,1.9h2.8v1.5H9.5z"/>
		<path fill="#FFFFFF" d="M9.5,78.6v-1.6h5.1v1.6H9.5z"/>
		<path fill="#FFFFFF" d="M12.8,73.4h-1.1v-2.4h2.2c0.3,0.5,0.5,0.9,0.6,1.2c0.1,0.4,0.2,0.8,0.2,1.3c0,0.6-0.1,1.1-0.3,1.5
			c-0.2,0.4-0.5,0.7-0.9,0.9c-0.4,0.2-0.9,0.3-1.4,0.3c-0.6,0-1-0.1-1.5-0.3c-0.4-0.2-0.7-0.6-0.9-1c-0.2-0.3-0.2-0.8-0.2-1.4
			c0-0.6,0.1-1,0.2-1.3c0.1-0.3,0.3-0.5,0.5-0.7c0.2-0.2,0.5-0.3,0.8-0.4l0.3,1.5c-0.2,0.1-0.3,0.2-0.4,0.3
			c-0.1,0.1-0.2,0.3-0.2,0.6c0,0.3,0.1,0.6,0.4,0.8c0.2,0.2,0.6,0.3,1.1,0.3c0.6,0,0.9-0.1,1.2-0.3c0.2-0.2,0.4-0.5,0.4-0.9
			c0-0.2,0-0.3-0.1-0.5c-0.1-0.2-0.1-0.3-0.3-0.5h-0.5V73.4z"/>
		<path fill="#FFFFFF" d="M9.5,70v-2.3c0-0.5,0.1-0.8,0.2-1.1c0.1-0.3,0.3-0.5,0.5-0.7c0.2-0.2,0.5-0.3,0.8-0.4
			c0.3-0.1,0.6-0.1,1-0.1c0.5,0,1,0.1,1.3,0.2c0.3,0.1,0.6,0.3,0.8,0.5c0.2,0.2,0.3,0.5,0.4,0.7c0.1,0.3,0.1,0.7,0.1,0.9V70H9.5z
			 M10.7,68.4h2.8V68c0-0.3,0-0.6-0.1-0.7c-0.1-0.1-0.2-0.2-0.4-0.3c-0.2-0.1-0.5-0.1-0.9-0.1c-0.5,0-0.9,0.1-1.1,0.3
			c-0.2,0.2-0.3,0.5-0.3,0.9V68.4z"/>
		<path fill="#FFFFFF" d="M9.5,65.2v-1.8l1.7-1l-1.7-1v-1.7l3,2h2.1v1.6h-2.1L9.5,65.2z"/>
		<path fill="#FFFFFF" d="M9.5,56.8v-1.5l2.8-1.9H9.5v-1.5h5.1v1.5l-2.8,1.9h2.8v1.5H9.5z"/>
		<path fill="#FFFFFF" d="M9.5,50.8v-1.6h5.1v1.6H9.5z"/>
		<path fill="#FFFFFF" d="M9.5,48.1v-4.2h1.1v2.6h0.8V44h1v2.5h1v-2.7h1.2v4.3H9.5z"/>
		<path fill="#FFFFFF" d="M9.5,38.4v-1.6h2.8c0.6,0,1,0.1,1.3,0.2c0.3,0.1,0.6,0.3,0.8,0.6c0.2,0.3,0.3,0.7,0.3,1.2
			c0,0.5-0.1,0.9-0.2,1.2c-0.1,0.3-0.3,0.5-0.6,0.7c-0.3,0.2-0.6,0.2-1,0.3l-0.2-1.5c0.2,0,0.4,0,0.5-0.1c0.1,0,0.2-0.1,0.3-0.2
			c0-0.1,0.1-0.1,0.1-0.3c0-0.2-0.1-0.3-0.2-0.4c-0.1-0.1-0.4-0.1-0.7-0.1H9.5z"/>
		<path fill="#FFFFFF" d="M9.5,35.8v-4.2h1.1v2.6h0.8v-2.5h1v2.5h1v-2.7h1.2v4.3H9.5z"/>
		<path fill="#FFFFFF" d="M12.9,30.9l-0.1-1.5c0.2,0,0.4-0.1,0.6-0.2c0.2-0.2,0.3-0.4,0.3-0.7c0-0.2-0.1-0.4-0.2-0.5
			c-0.1-0.1-0.2-0.2-0.4-0.2c-0.1,0-0.3,0.1-0.4,0.2c-0.1,0.1-0.2,0.4-0.3,0.8c-0.2,0.7-0.4,1.2-0.6,1.5c-0.3,0.3-0.6,0.4-1,0.4
			c-0.3,0-0.5-0.1-0.7-0.2c-0.2-0.2-0.4-0.4-0.5-0.7c-0.1-0.3-0.2-0.7-0.2-1.3c0-0.7,0.1-1.1,0.4-1.5c0.2-0.3,0.6-0.5,1.2-0.6L11,28
			c-0.2,0-0.4,0.1-0.5,0.2c-0.1,0.1-0.2,0.3-0.2,0.5c0,0.2,0,0.3,0.1,0.4c0.1,0.1,0.2,0.1,0.3,0.1c0.1,0,0.2,0,0.2-0.1
			c0.1-0.1,0.1-0.3,0.2-0.5c0.1-0.7,0.3-1.2,0.5-1.5c0.2-0.3,0.3-0.5,0.6-0.7c0.2-0.1,0.5-0.2,0.8-0.2c0.3,0,0.6,0.1,0.9,0.3
			s0.5,0.4,0.6,0.8c0.1,0.3,0.2,0.7,0.2,1.2c0,0.9-0.2,1.5-0.5,1.8C13.9,30.7,13.4,30.9,12.9,30.9z"/>
		<path fill="#FFFFFF" d="M9.5,25.9v-4.8h1.3v1.6h3.8v1.6h-3.8v1.6H9.5z"/>
		<path fill="#FFFFFF" d="M18.1,84.8v-4.5h1l3,2.9v-3h1.1V85h-1.1l-3-2.8v2.6H18.1z"/>
		<path fill="#FFFFFF" d="M22.3,76.4v1.8l0.8,0.2V80l-5.1-1.9v-1.7l5.1-1.9v1.7L22.3,76.4z M21.2,76.7l-1.8,0.6l1.8,0.6V76.7z"/>
		<path fill="#FFFFFF" d="M18.1,71.6V69c0-0.6,0.1-1,0.4-1.3c0.3-0.3,0.7-0.4,1.2-0.4c0.5,0,0.9,0.2,1.2,0.5
			c0.3,0.3,0.4,0.8,0.4,1.4V70h1.9v1.6H18.1z M20.2,70v-0.4c0-0.3-0.1-0.5-0.2-0.6c-0.1-0.1-0.2-0.2-0.4-0.2c-0.2,0-0.3,0.1-0.4,0.2
			c-0.1,0.1-0.2,0.3-0.2,0.6V70H20.2z"/>
		<path fill="#FFFFFF" d="M16.7,64v-1.2l1,1.1v0.7L16.7,64z M20.6,66.6c-0.8,0-1.5-0.2-1.9-0.7S18,64.8,18,64c0-0.8,0.2-1.5,0.7-2
			c0.5-0.5,1.1-0.7,1.9-0.7c0.6,0,1.1,0.1,1.5,0.3c0.4,0.2,0.7,0.5,0.9,0.9c0.2,0.4,0.3,0.9,0.3,1.4c0,0.6-0.1,1.1-0.3,1.4
			c-0.2,0.4-0.5,0.7-0.9,0.9C21.7,66.5,21.2,66.6,20.6,66.6z M20.6,65.1c0.5,0,0.9-0.1,1.1-0.3c0.2-0.2,0.3-0.5,0.3-0.8
			c0-0.3-0.1-0.6-0.3-0.8c-0.2-0.2-0.6-0.3-1.2-0.3c-0.5,0-0.8,0.1-1.1,0.3c-0.2,0.2-0.3,0.5-0.3,0.8c0,0.3,0.1,0.6,0.3,0.8
			C19.7,65,20.1,65.1,20.6,65.1z"/>
		<path fill="#FFFFFF" d="M16.7,58.5v-1.2l1,1.1v0.7L16.7,58.5z M18.1,60.6v-4.5h1l3,2.9v-3h1.1v4.8h-1.1l-3-2.8v2.6H18.1z"/>
		<path fill="#FFFFFF" d="M18.1,55.3v-1.5l2.8-1.9h-2.8v-1.5h5.1v1.5l-2.8,1.9h2.8v1.5H18.1z"/>
		<path fill="#FFFFFF" d="M20.6,49.6c-0.8,0-1.5-0.2-1.9-0.7C18.2,48.5,18,47.8,18,47c0-0.8,0.2-1.5,0.7-2c0.5-0.5,1.1-0.7,1.9-0.7
			c0.6,0,1.1,0.1,1.5,0.3c0.4,0.2,0.7,0.5,0.9,0.9c0.2,0.4,0.3,0.9,0.3,1.4c0,0.6-0.1,1.1-0.3,1.4c-0.2,0.4-0.5,0.7-0.9,0.9
			S21.2,49.6,20.6,49.6z M20.6,48c0.5,0,0.9-0.1,1.1-0.3c0.2-0.2,0.3-0.5,0.3-0.8c0-0.3-0.1-0.6-0.3-0.8c-0.2-0.2-0.6-0.3-1.2-0.3
			c-0.5,0-0.8,0.1-1.1,0.3c-0.2,0.2-0.3,0.5-0.3,0.8c0,0.3,0.1,0.6,0.3,0.8S20.1,48,20.6,48z"/>
		<path fill="#FFFFFF" d="M18.1,41.1v-1.5l2.8-1.9h-2.8v-1.5h5.1v1.5l-2.8,1.9h2.8v1.5H18.1z"/>
		<path fill="#FFFFFF" d="M22.3,32.1v1.8l0.8,0.2v1.6l-5.1-1.9v-1.7l5.1-1.9v1.7L22.3,32.1z M21.2,32.4L19.4,33l1.8,0.6V32.4z"/>
		<path fill="#FFFFFF" d="M18.1,27.3v-1.5l2.8-1.9h-2.8v-1.5h5.1v1.5l-2.8,1.9h2.8v1.5H18.1z"/>
		<path fill="#FFFFFF" d="M22.3,18.3v1.8l0.8,0.2V22l-5.1-1.9v-1.7l5.1-1.9v1.7L22.3,18.3z M21.2,18.7l-1.8,0.6l1.8,0.6V18.7z"/>
		<path fill="#FFFFFF" d="M18.1,12.8v-1.6h3c0.3,0,0.6,0,0.9,0.1c0.3,0.1,0.5,0.2,0.7,0.4c0.2,0.2,0.3,0.4,0.4,0.6
			c0.1,0.3,0.2,0.7,0.2,1.1c0,0.2,0,0.5-0.1,0.8c0,0.3-0.1,0.5-0.2,0.7c-0.1,0.2-0.2,0.4-0.4,0.5C22.4,15.8,22.2,16,22,16
			c-0.3,0.1-0.6,0.1-0.9,0.1h-3v-1.6h3.1c0.3,0,0.5-0.1,0.7-0.2c0.2-0.2,0.2-0.4,0.2-0.6c0-0.3-0.1-0.5-0.2-0.6
			c-0.2-0.2-0.4-0.2-0.7-0.2H18.1z"/>
		<path fill="#FFFFFF" d="M18.1,10.2V8.6H20L18.1,7V4.9L20,6.8l3.2-1.9v1.9l-2.1,1.1l0.9,0.8h1.2v1.6H18.1z"/>
		<path fill="#FFFFFF" d="M18.1,4.3V0.1h1.1v2.6H20V0.3h1v2.5h1V0h1.2v4.3H18.1z M23.1,1.6V1c0.2,0,0.4,0.1,0.5,0.1
			c0.2,0,0.3,0,0.4-0.1c0.1-0.1,0.1-0.2,0.1-0.4c0-0.1,0-0.3-0.1-0.4h0.5c0.1,0.3,0.2,0.5,0.2,0.7c0,0.3-0.1,0.5-0.2,0.6
			c-0.1,0.2-0.3,0.2-0.6,0.2C23.7,1.8,23.4,1.7,23.1,1.6z"/>
	</g>
</g>
</svg>
