<?xml version="1.0" encoding="utf-8"?>
<!-- Generator: Adobe Illustrator 18.0.0, SVG Export Plug-In . SVG Version: 6.00 Build 0)  -->
<!DOCTYPE svg PUBLIC "-//W3C//DTD SVG 1.1//EN" "http://www.w3.org/Graphics/SVG/1.1/DTD/svg11.dtd">
<svg version="1.1" id="Warstwa_1" xmlns="http://www.w3.org/2000/svg" xmlns:xlink="http://www.w3.org/1999/xlink" x="0px" y="0px"
	 viewBox="0 0 85 85" enable-background="new 0 0 85 85" xml:space="preserve">
<g>
	<g>
		<path fill="#FFFFFF" d="M37.7,21.3l-7,1.6c0.5-1.6,0.8-3.2,0.6-4.9L37.7,21.3z M30.5,33.9l-6.1-3.8c1.5-0.8,2.9-1.8,3.9-3
			L30.5,33.9z M16.5,37.8l-1.6-7c1.6,0.5,3.2,0.8,4.9,0.6L16.5,37.8z M3.8,30.5l3.8-6.1c0.8,1.5,1.8,2.9,3,3.9L3.8,30.5z M0,16.5
			l7-1.6c-0.5,1.6-0.8,3.2-0.6,4.9L0,16.5z M7.2,3.9l6.1,3.8c-1.5,0.8-2.9,1.8-3.9,3L7.2,3.9z M21.3,0l1.6,7
			c-1.6-0.5-3.2-0.8-4.9-0.6L21.3,0z M33.9,7.2l-3.8,6.1c-0.8-1.5-1.8-2.9-3-3.9L33.9,7.2z M18.9,8.9c5.5,0,10,4.5,10,10
			s-4.5,10-10,10s-10-4.5-10-10S13.4,8.9,18.9,8.9z"/>
		<path fill="#FFFFFF" d="M75,8.3c3.4,0,6.2,2.8,6.2,6.2c0,3.4-2.8,6.2-6.3,6.2h-2.1c-0.7,0.9-1.4,1.4-1.6,1.2
			c-0.2-0.1-0.1-0.6,0.2-1.2h-6.1c-0.7,0.9-1.4,1.4-1.6,1.2c-0.2-0.1-0.1-0.6,0.2-1.2h-6.1c-0.7,0.9-1.4,1.4-1.6,1.2
			c-0.2-0.1-0.1-0.6,0.2-1.2h-2.1c-1.7,0-3.1-1.4-3.1-3.1c0-1.5,1.1-2.8,2.5-3.1l-0.1-0.7c0-2.3,1.8-4.3,4.2-4.4c1-2.9,3.8-5,7.1-5
			c3.1,0,5.8,1.9,6.9,4.6C72.8,8.6,73.8,8.3,75,8.3z M54.7,25.5c0.8-1.1,1.7-1.9,1.9-1.7c0.3,0.2-0.1,1.3-0.9,2.4
			c-0.8,1.1-1.7,1.9-1.9,1.7C53.4,27.7,53.9,26.6,54.7,25.5z M52.2,30.8c0.8-1.1,1.7-1.9,1.9-1.7c0.3,0.2-0.1,1.3-0.9,2.4
			c-0.8,1.1-1.7,1.9-1.9,1.7C51,33,51.4,32,52.2,30.8z M59.6,23c0.8-1.1,1.7-1.9,1.9-1.7c0.3,0.2-0.1,1.3-0.9,2.4
			c-0.8,1.1-1.7,1.9-1.9,1.7C58.4,25.2,58.9,24.1,59.6,23z M57.1,28.3c0.8-1.1,1.7-1.9,1.9-1.7c0.3,0.2-0.1,1.3-0.9,2.4
			c-0.8,1.1-1.7,1.9-1.9,1.7C55.9,30.5,56.4,29.5,57.1,28.3z M62.1,25.5c0.8-1.1,1.7-1.9,1.9-1.7c0.3,0.2-0.1,1.3-0.9,2.4
			c-0.8,1.1-1.7,1.9-1.9,1.7C60.9,27.7,61.4,26.6,62.1,25.5z M59.6,30.8c0.8-1.1,1.7-1.9,1.9-1.7c0.3,0.2-0.1,1.3-0.9,2.4
			c-0.8,1.1-1.7,1.9-1.9,1.7C58.4,33,58.9,32,59.6,30.8z M67.1,23c0.8-1.1,1.7-1.9,1.9-1.7c0.3,0.2-0.1,1.3-0.9,2.4
			c-0.8,1.1-1.7,1.9-1.9,1.7C65.9,25.2,66.3,24.1,67.1,23z M64.6,28.3c0.8-1.1,1.7-1.9,1.9-1.7c0.3,0.2-0.1,1.3-0.9,2.4
			c-0.8,1.1-1.7,1.9-1.9,1.7C63.4,30.5,63.8,29.5,64.6,28.3z M69.6,25.5c0.8-1.1,1.7-1.9,1.9-1.7c0.3,0.2-0.1,1.3-0.9,2.4
			c-0.8,1.1-1.7,1.9-1.9,1.7C68.4,27.7,68.8,26.6,69.6,25.5z M67.1,30.8c0.8-1.1,1.7-1.9,1.9-1.7c0.3,0.2-0.1,1.3-0.9,2.4
			c-0.8,1.1-1.7,1.9-1.9,1.7C65.9,33,66.3,32,67.1,30.8z M74.6,23c0.8-1.1,1.7-1.9,1.9-1.7c0.3,0.2-0.1,1.3-0.9,2.4
			c-0.8,1.1-1.7,1.9-1.9,1.7C73.4,25.2,73.8,24.1,74.6,23z M72.1,28.3c0.8-1.1,1.7-1.9,1.9-1.7c0.3,0.2-0.1,1.3-0.9,2.4
			c-0.8,1.1-1.7,1.9-1.9,1.7C70.9,30.5,71.3,29.5,72.1,28.3z"/>
	</g>
	<path fill="#FFFFFF" d="M27.7,56.2c3.4,0,6.2,2.8,6.2,6.2s-2.8,6.2-6.3,6.2l-20.6,0c-1.7,0-3.1-1.4-3.1-3.1c0-1.5,1.1-2.8,2.5-3.1
		l-0.1-0.7c0-2.3,1.8-4.3,4.2-4.4c1-2.9,3.8-5,7.1-5c3.1,0,5.8,1.9,6.9,4.6C25.5,56.5,26.5,56.2,27.7,56.2z M5.1,73.7l3.3-0.3
		l-1.9-2.7l1-0.7l1.9,2.7l1.3-3l1.1,0.5l-1.3,3l3.3-0.3l0.1,1.2l-3.3,0.3l1.9,2.7l-1,0.7l-1.9-2.7l-1.3,3l-1.1-0.5l1.3-3l-3.3,0.3
		L5.1,73.7z M22.6,74.8l3.2-0.9l-2.3-2.3l0.9-0.9l2.3,2.3l0.9-3.2l1.2,0.3l-0.9,3.2l3.2-0.9l0.3,1.2l-3.2,0.9l2.3,2.3l-0.9,0.9
		l-2.3-2.3l-0.9,3.2l-1.2-0.3l0.9-3.2L23,76L22.6,74.8z M14.2,79.9l3.2-0.9l-2.3-2.3l0.9-0.9l2.3,2.3l0.9-3.2l1.2,0.3l-0.9,3.2
		l3.2-0.9l0.3,1.2l-3.2,0.9l2.3,2.3l-0.9,0.9l-2.3-2.3l-0.9,3.2l-1.2-0.3l0.9-3.2l-3.2,0.9L14.2,79.9z"/>
	<path fill="#FFFFFF" d="M74.9,72.5c3.4,0,6.2,2.8,6.2,6.2c0,3.4-2.8,6.2-6.3,6.2l-20.6,0c-1.7,0-3.1-1.4-3.1-3.1
		c0-1.5,1.1-2.8,2.5-3.1l-0.1-0.7c0-2.3,1.8-4.3,4.2-4.4c1-2.9,3.8-5,7.1-5c3.1,0,5.8,1.9,6.9,4.6C72.7,72.8,73.8,72.5,74.9,72.5z
		 M85,72.4l-3.3,0.8c-0.8-1-1.9-1.7-3.1-2.2l0-1.9L85,72.4z M47.3,67.7l7-1.6c-0.5,1.6-0.8,3.2-0.6,4.9L47.3,67.7z M54.5,55l6.1,3.8
		c-1.5,0.8-2.9,1.8-3.9,3L54.5,55z M68.6,51.2l1.6,7c-1.6-0.5-3.2-0.8-4.9-0.6L68.6,51.2z M81.2,58.4l-3.8,6.1
		c-0.8-1.5-1.8-2.9-3-3.9L81.2,58.4z M66.2,60c5.5,0,10,4.5,10,10l0,0.6c-1.3,0-2.4,0.4-3.5,0.9c-1.3-3.1-4.4-5.3-8-5.3
		c-3.8,0-7,2.4-8.2,5.8l-0.2,0c-0.1-0.7-0.2-1.3-0.2-2C56.2,64.5,60.7,60,66.2,60z"/>
</g>
</svg>
