<svg id="Component_1_1" data-name="Component 1 – 1" xmlns="http://www.w3.org/2000/svg" width="117.258" height="85.106" viewBox="0 0 117.258 85.106">
  <path id="Vector_12_" data-name="Vector (12)" d="M16.858,6.552c2.509-.171,4.941-.127,7.452-.506,5.442-.822,10.476-3.14,15.788-4.387C49.428-.533,58.261-1.155,66.512,3.593c3.386,1.949,6.121,4.566,9.222,6.777,4.189,2.986,8.623,5.762,12.922,8.64,7.659,5.127,16.743,9.295,23.7,15.06,4.721,3.913,5.148,8.249,4.817,13.461a53.351,53.351,0,0,1-3.047,15.342c-1.79,4.67-5.764,8.721-9.344,12.668a19.872,19.872,0,0,1-13.2,6.629c-8.247.843-16.548-.086-24.835,1.056C57.2,84.541,48.354,85.436,38.657,84.99c-5.8-.267-13.476-.033-18.917-1.922-2.342-.812-3.948-2.564-5.793-3.89A69.353,69.353,0,0,1,8.035,74.75C2.5,69.794.828,64.419.229,57.91-.606,48.833.967,39.863,2.9,30.939c.805-3.721,2.175-7.186,1.753-10.7A12.322,12.322,0,0,1,7.975,9.726S14.251,6.729,16.858,6.552Z" fill="#c1dee6" fill-rule="evenodd"/>
  <g id="exercise04" transform="translate(14.907 3.174)">
    <path id="Path_5" data-name="Path 5" d="M22,68.9c0-7.5,3.3-14.5,3.3-12.6S29,50.7,30.9,47a83.123,83.123,0,0,0,3.7-8.9l7.5.5S44,22.3,40.2,20.4c-3.7-1.9-7.6.7-11.2-1.4-9.3-5.6-24.3-1.9-22.4,1.9,0,0-7.5,3.7-5.6,5.6a4.67,4.67,0,0,0,.5,5.6c-2.3,2.8-1.4,5.6,0,7.5C0,42.3-.9,45.1,4.7,47c3.5,1.2,13.1-3.3,13.1,1.9,0,1.9-3.7,7.5-3.7,11.2C14,67.5,22,68.9,22,68.9Z"/>
    <path id="Path_6" data-name="Path 6" d="M63.1,16.1c0,7.5-3.3,14.5-3.3,12.6s-3.7,5.6-5.6,9.3a83.123,83.123,0,0,0-3.7,8.9L43,46.5s-1.9,16.3,1.9,18.2c3.7,1.9,7.6-.7,11.2,1.4,9.3,5.6,24.3,1.9,22.4-1.9,0,0,7.5-3.7,5.6-5.6a4.67,4.67,0,0,0-.5-5.6c2.3-2.8,1.4-5.6,0-7.5,1.4-2.8,2.3-5.6-3.3-7.5-3.5-1.2-13.1,3.3-13.1-1.9,0-1.9,3.7-7.5,3.7-11.2C71,17.5,63.1,16.1,63.1,16.1Z"/>
  </g>
</svg>
