<svg width="168" height="156" viewBox="0 0 168 156" fill="none" xmlns="http://www.w3.org/2000/svg">
<path fill-rule="evenodd" clip-rule="evenodd" d="M108.067 0.710552C121.126 -0.388389 131.579 -0.767097 144.198 3.78964C156.087 8.08216 160.245 16.0052 165.079 27.2055C169.949 38.4919 166.129 90.1049 160.807 103.348C153.587 121.312 135.734 135.35 122.192 148.757C106.271 164.52 2.59049 153.227 0.0731064 104.358C-0.647615 90.3843 4.14887 77.2729 6.18529 63.6203C9.08432 44.1877 4.03683 10.307 17.7863 4.84259C37.6294 -3.04473 78.1444 3.22794 108.067 0.710552Z" fill="#C1DEE6"/>
<path fill-rule="evenodd" clip-rule="evenodd" d="M26.6238 66.3921C26.0807 67.0468 24.7792 23.2624 26.3782 22.4629C30.0234 20.6398 73.4966 22.0793 75.2194 22.4076C76.9197 22.731 75.3809 53.1451 74.7443 61.2605C74.3602 66.1715 69.6258 66.8521 65.5002 66.7199C61.2952 66.5839 57.0663 66.4915 52.8672 66.2781C48.2445 66.0428 31.409 66.3921 27.6019 66.3921C27.2515 66.8154 27.3964 66.3921 26.6238 66.3921ZM43.8311 25.792C43.8311 25.8439 37.9606 25.7563 37.5051 25.7499C33.3261 25.6917 30.6223 26.2089 30.4627 30.45C30.2279 36.7442 30.6795 55.5113 30.7465 58.4162C30.8248 61.8701 34.5884 61.7277 37.3881 61.7096C44.1481 61.6681 63.6003 62.0952 66.4973 62.3413C70.5609 62.6858 70.5384 59.0983 70.6646 55.9541C70.9132 49.7989 71.6202 30.4153 71.034 27.709C70.7933 26.5949 44.2905 25.792 43.8311 25.792Z" fill="black"/>
<path fill-rule="evenodd" clip-rule="evenodd" d="M131.747 21.8082C134.656 21.3987 133.996 65.2609 131.578 65.7463C130.117 66.0403 89.7727 66.7092 87.1687 64.9277C85.8937 64.0572 87.3967 22.4991 87.1687 21.8498C87.4926 20.2831 128.68 22.2402 131.747 21.8082ZM92.1257 26.6257C92.1404 29.7513 92.1766 60.0343 92.1766 60.0343C95.7582 59.8714 128.38 63.2176 128.18 59.6003C128.017 56.6509 129.233 28.6778 128.218 27.6298C126.8 26.1648 105.267 25.9231 98.621 25.7382C97.205 25.7387 92.1189 25.084 92.1257 26.6257Z" fill="black"/>
<path fill-rule="evenodd" clip-rule="evenodd" d="M87.2418 121.744C84.7983 121.767 85.6942 79.9275 87.7497 78.356C89.7641 76.8142 130.021 78.4235 133.088 80.1291C135.67 81.5667 135.761 119.833 133.615 121.115C133.904 120.942 95.6727 121.662 87.2418 121.744ZM91.4937 83.4715C92.0579 89.5088 90.2084 107.636 90.3048 110.495C90.4276 114.131 91.0964 116.085 95.0044 116.128C100.268 116.187 125.886 116.119 128.641 115.568C130.848 115.126 130.947 85.3567 129.947 84.1682C128.677 82.6558 93.0218 81.9698 91.4937 83.4715C91.6479 85.116 91.9248 83.0477 91.4937 83.4715Z" fill="black"/>
<path fill-rule="evenodd" clip-rule="evenodd" d="M28.48 76.7543C30.0785 75.7273 32.7984 76.0591 34.6646 76.0972C37.2867 76.1501 59.1573 76.8889 67.4694 77.319C75.4526 77.7324 74.3571 83.8192 74.2548 95.2318C74.2162 99.5816 73.7386 118.269 73.6804 120.877C73.6212 123.535 45.7533 121.214 41.8742 121.167C39.5853 121.138 28.8851 120.967 27.266 120.355C26.2204 119.959 26.2371 113.625 26.1147 110.119C26.0458 108.137 25.0442 78.9615 28.48 76.7543ZM68.5174 115.689C69.3947 109.717 70.5744 81.9095 69.1271 81.7309C63.4411 81.0268 33.1634 79.5653 32.7901 81.6228C32.1423 85.1872 30.7493 115.033 32.6634 115.294C38.3107 116.067 62.5799 116.562 68.5174 115.689C68.5805 115.261 68.1216 115.747 68.5174 115.689Z" fill="black"/>
<path fill-rule="evenodd" clip-rule="evenodd" d="M101.205 36.495C98.7697 33.8802 103.941 31.378 105.837 30.9112C107.515 30.4983 109.537 29.3607 111.234 29.0118C113.027 28.6424 115.327 32.8224 116.234 33.9238C118.345 36.4871 121.984 40.4029 122.64 43.7423C123.258 46.8938 120.534 51.3507 117.924 53.0339C115.54 54.5712 110.725 57.0793 107.847 57.4336C103.829 57.9238 99.1176 55.8982 100.423 51.841C100.756 50.8066 107.23 45.3066 107.569 43.6719C107.882 42.158 102.085 37.4383 101.205 36.495ZM118.247 42.4981C117.025 41.0791 114.559 36.6016 111.891 34.6034C110.171 33.3146 107.625 34.005 106.143 35.0893C106.066 39.1753 115.834 42.9619 110.611 46.4486C108.627 47.7736 103.612 50.838 103.936 52.6591C104.127 53.7341 110.174 53.9572 113.105 51.7891C115.605 49.9396 120.515 45.1294 118.247 42.4981Z" fill="black"/>
</svg>
