<?xml version="1.0" encoding="utf-8"?>
<!-- Generator: Adobe Illustrator 18.0.0, SVG Export Plug-In . SVG Version: 6.00 Build 0)  -->
<!DOCTYPE svg PUBLIC "-//W3C//DTD SVG 1.1//EN" "http://www.w3.org/Graphics/SVG/1.1/DTD/svg11.dtd">
<svg version="1.1" id="Warstwa_1" xmlns="http://www.w3.org/2000/svg" xmlns:xlink="http://www.w3.org/1999/xlink" x="0px" y="0px"
	 viewBox="0 0 85 85" enable-background="new 0 0 85 85" xml:space="preserve">
<g>
	<g>
		<path fill="#FFFFFF" d="M18,33.7l0.5,12.9H6.3l0.5-11.7v-6.7L1,29.4l-0.8-0.5v-9.7l16.6-4.7l1.7,1.2L18,33.7z"/>
	</g>
	<g>
		<path fill="#FFFFFF" d="M51.3,46.8c0,3.2-1.7,6.8-6.6,11.7L42,61.2l0.2,0.3h4.7l6-0.6l0.6,0.7l-1.4,9.5l-8.9-0.5H28.9l-2.2,0.2
			l-0.6-0.4v-7.3l7.9-6.8c3.1-2.8,5.1-4.8,5.1-6.3c0-0.9-0.7-1.4-2.2-1.4c-2.2,0-5.2,1.2-7.8,3.1h-1.3l-2-9.4
			c4.9-2.5,9.6-3.9,14.1-3.9C46.4,38.5,51.3,41.4,51.3,46.8z"/>
	</g>
	<g>
		<path fill="#FFFFFF" d="M84.5,29.4c0,2.6-1.1,6.1-5.5,8.6v0.4c3.9,1.4,5.8,4.1,5.8,8.3c0,6.9-6.9,11.5-17.2,11.5
			c-2.3,0-5.1-0.2-7.3-0.7l-0.6-8.9l0.8-0.7c2.8,0.8,5.1,1.2,7.5,1.2c3.6,0,5.2-0.9,5.2-2.9c0-1.4-0.9-2-2.8-2h-5.2l-0.5-0.7
			l0.3-8.3l2.8-0.1c2.5-0.1,4.4-1.2,4.4-3.1c0-1.4-0.9-2-2.8-2c-2,0-4.2,0.8-6.8,2h-1.3l-1.7-8.3c3.8-2.2,8.4-3.4,12.6-3.4
			C79.6,20.3,84.5,24,84.5,29.4z"/>
	</g>
</g>
</svg>
