<svg id="Component_4_1" data-name="Component 4 – 1" xmlns="http://www.w3.org/2000/svg" width="142.432" height="118.862" viewBox="0 0 142.432 118.862">
  <path id="Vector_13_" data-name="Vector (13)" d="M8.059,10.6C13.279-.1,22.8,3.54,29.645,3.243,37.774,2.889,45.8,2.5,53.915,1.914c8.143-.589,15.579.879,23.629,1.346C87.593,3.843,97.121.224,107.13.234c8.844.009,19.482,2.09,26.4,7.022,12.778,9.111,10.25,25.558,4.783,37.023-4.357,9.138-10.362,20.36-8.117,30.5,1.232,5.57,6.25,9.775,4.63,15.639-4.955,17.935-23.345,31.3-45.663,28.239-6.481-.888-29.733-3.686-36.755-5.432-19.753-4.91-32.837-15.307-35.931-33.095C14.378,68.064,1.635,55.667.469,43.692-.411,34.666,4.065,18.782,8.059,10.6Z" transform="translate(-0.357 -0.233)" fill="#c1dee6" fill-rule="evenodd"/>
  <g id="exercise18" transform="translate(34.231 4.38)">
    <path id="Path_86" data-name="Path 86" d="M24.3,40.7h-5l-5,5.5L12,76.4H31.5L29.2,46.2Z"/>
    <path id="Path_87" data-name="Path 87" d="M43.5,45.3,27,30.4,43.4,15.6,36.5,8.8,21.8,25.1,6.8,8.6,0,15.4l16.5,15L.2,45.1,7,52,21.8,35.6,36.7,52.1Z"/>
    <path id="Path_88" data-name="Path 88" d="M62.8,53.9l-8.2,6.6,6.9,6.9L68,59.2,78.2,71,85,64.1,73.3,54l7.5-6-6.9-6.8L68,48.7"/>
    <g id="Group_11" data-name="Group 11">
      <path id="Path_89" data-name="Path 89" d="M39,26.6,40.2,33a5.7,5.7,0,0,0,1.1,2.2L60,53.9l2.8-2.8-14-14a1.061,1.061,0,0,1,1.5-1.5L64.4,49.7l2.8-2.8L48.4,28.2a3.577,3.577,0,0,0-2.2-1.1l-6.4-1.2a.735.735,0,0,0-.6.2A.365.365,0,0,0,39,26.6Z"/>
    </g>
  </g>
</svg>
