<svg id="Component_1_1" data-name="Component 1 – 1" xmlns="http://www.w3.org/2000/svg" width="27598.84" height="35520" viewBox="0 0 27598.84 35520">
  <path id="Vector_12_" data-name="Vector (12)" d="M3967.916,2734.354c590.568-71.32,1163.03-52.828,1754.066-211.123C7002.764,2180.313,8187.583,1212.9,9437.905,692.21c2195.832-914.46,4274.938-1174.257,6216.881,807.57,797,813.4,1440.583,1905.88,2170.483,2828.484,986.043,1246.341,2029.6,2404.635,3041.537,3606.2,1802.682,2140.016,3940.705,3879.209,5577.975,6285.417,1111.148,1632.963,1211.75,3442.619,1133.736,5618.09-75.408,2096.316-282.346,4391.627-717.078,6403.254-421.346,1949.193-1356.66,3639.85-2199.186,5287.131-779.627,1525.045-1781.309,2526.33-3107.908,2766.764-1940.99,351.715-3894.836-35.746-5845.451,440.832-2245.109,548.3-4327.9,921.934-6610.31,735.594-1364.08-111.52-3171.8-13.82-4452.565-802.074-551.23-338.848-929.193-1070.156-1363.54-1623.457-476.116-606.924-962.693-1167.373-1391.41-1848.16-1302.4-2068.34-1696.3-4311.822-1837.152-7028.307-196.441-3788.658,173.722-7532.139,628.441-11256.58C871.93,11360.022,1194.232,9913.637,1095,8445.9c-113.134-1674.14,127.812-3213.218,782.018-4386.809C1876.944,4059.093,3354.309,2808.438,3967.916,2734.354Z" fill="#c1dee6" fill-rule="evenodd"/>
  <g id="exercise21" transform="translate(2698 2697)">
    <rect id="rect4147" width="5967.664" height="2357.442" rx="337.467" transform="matrix(0.878, 0.478, -0.478, 0.878, 17786.5, 16637.762)"/>
    <rect id="rect4147-1" width="5967.664" height="2357.442" rx="337.467" transform="matrix(0.878, -0.478, 0.478, 0.878, 4858.938, 19492.021)"/>
    <g id="g4188" transform="translate(-3660.881 344.236)">
      <path id="path4184" d="M4553.525,2855.94,2840.04,3861.056l-1727.2-981.36L1099.127,893.215,2812.613-111.9l1727.2,981.363Z" transform="matrix(0.866, -0.5, 0.5, 0.866, 2764.957, 2029.418)" fill-rule="evenodd"/>
      <path id="path4186" d="M5369.382,4125.225H6935.05l1664.79,9032.854-2354.469,3423.04-2365.656-3439.3Z" fill-rule="evenodd"/>
    </g>
    <path id="rect4213" d="M10029.133,15854.989c-515.959,0-931.333,425.7-931.333,954.419V28033.922c0,528.658,415.374,954.531,931.333,954.531H17405.6c515.957,0,931.332-425.873,931.332-954.531V16809.408c0-528.716-415.375-954.419-931.332-954.419H15269.49c-82.216,407.07-784.841,717.374-1624.442,717.409-839.027-.41-1540.784-310.615-1622.944-717.409Z" transform="translate(218.854 856.722)" fill-rule="evenodd"/>
  </g>
</svg>
