<?xml version="1.0" encoding="utf-8"?>
<!-- Generator: Adobe Illustrator 18.0.0, SVG Export Plug-In . SVG Version: 6.00 Build 0)  -->
<!DOCTYPE svg PUBLIC "-//W3C//DTD SVG 1.1//EN" "http://www.w3.org/Graphics/SVG/1.1/DTD/svg11.dtd">
<svg version="1.1" id="Warstwa_1" xmlns="http://www.w3.org/2000/svg" xmlns:xlink="http://www.w3.org/1999/xlink" x="0px" y="0px"
	 viewBox="0 0 85 85" enable-background="new 0 0 85 85" xml:space="preserve">
<path fill="#FFFFFF" d="M18.2,52.7c3.8-2,4.4-2.1,10.2-0.8c2.6,0.6,3.5,3.9,4.5,7.8c0.8,2.7,1.8,7.1,3.3,7.1c0.3,0,4.1,0.3,5.1-1.7
	c0.6-1.1,1.1-3.9-3.5-10.7c-0.5-0.8-0.3-1.7,0.3-2.1C41,50,47.6,42.8,45,37.6c-0.8-1.4-3.2-3.5-6-3.5l0,0c-3,0-5.6,2.4-7.5,6.8
	c-0.3,0.6-0.9,0.9-1.5,0.9c-0.6,0-1.2-0.3-1.5-0.9C28.2,40.4,22.7,28,26.7,19c1.7-3.8,4.8-6.5,9.2-7.8c2.4-0.8,13.1-2.4,19.7,3.8
	c5.1,4.7,6.3,12.5,3.9,23.1c-0.2,0.9-1.1,1.5-2,1.2c-0.9-0.2-1.4-1.1-1.2-2c2.3-9.5,1.2-16.1-2.9-20c-5.1-4.8-13.8-3.9-16.5-3
	c-3.5,1.2-5.9,3.2-7.2,6c-2.3,5.3-0.8,12.2,0.6,16.1C33.2,32,36.6,31,39,31h0.2c4.4,0,7.8,3,8.9,5.3c3.5,7.1-3.9,15-6.8,17.7
	c3.6,5.9,4.7,10.1,2.9,13.1c-2.3,3.8-7.8,3.3-8,3.3c-3.8,0.3-5.3-4.8-6.5-9.5c-0.5-2-1.4-5.1-2.1-5.6c-2.9-0.6-6.8-1.1-8.4,1.1
	c-2.7,3.6,1.4,13.8,4.5,19.4c2.7,7.8,10.2,9.2,13.4,9.3c6.8,0.5,13.7-2.4,15.6-6.3c3.5-6.8,4.5-11.4,5.6-15.6
	c0.9-3.8,1.8-7.2,4.1-11.4c8.4-15.5,10.7-28.5,6.2-38C65,6.2,58.1,2.5,52.8,1.3c-13.4-2.7-23.6-1.1-30,5.1
	c-11.1,10.5-8.1,31.1-8.1,31.2L18.2,52.7z"/>
</svg>
