<?xml version="1.0" encoding="utf-8"?>
<!-- Generator: Adobe Illustrator 18.0.0, SVG Export Plug-In . SVG Version: 6.00 Build 0)  -->
<!DOCTYPE svg PUBLIC "-//W3C//DTD SVG 1.1//EN" "http://www.w3.org/Graphics/SVG/1.1/DTD/svg11.dtd">
<svg version="1.1" id="Warstwa_1" xmlns="http://www.w3.org/2000/svg" xmlns:xlink="http://www.w3.org/1999/xlink" x="0px" y="0px"
	 viewBox="0 0 85 85" enable-background="new 0 0 85 85" xml:space="preserve">
<g>
	<polygon fill="#FFFFFF" points="24.3,40.7 19.3,40.7 14.3,46.2 12,76.4 31.5,76.4 29.2,46.2 	"/>
	<polygon fill="#FFFFFF" points="43.5,45.3 27,30.4 43.4,15.6 36.5,8.8 21.8,25.1 6.8,8.6 0,15.4 16.5,30.4 0.2,45.1 7,52 
		21.8,35.6 36.7,52.1 	"/>
	<polyline fill="#FFFFFF" points="62.8,53.9 54.6,60.5 61.5,67.4 68,59.2 78.2,71 85,64.1 73.3,54 80.8,48 73.9,41.2 68,48.7 	"/>
	<g>
		<path fill="#FFFFFF" d="M39,26.6l1.2,6.4c0.2,0.8,0.6,1.6,1.1,2.2l18.7,18.7l2.8-2.8L48.8,37.1c-0.4-0.4-0.4-1.1,0-1.5
			c0.4-0.4,1.1-0.4,1.5,0l14.1,14.1l2.8-2.8L48.4,28.2c-0.6-0.6-1.3-1-2.2-1.1l-6.4-1.2c-0.2,0-0.4,0-0.6,0.2
			C39,26.2,38.9,26.4,39,26.6z"/>
	</g>
</g>
</svg>
