<?xml version="1.0" encoding="UTF-8" standalone="no"?>
<!-- Creator: CorelDRAW X7 -->

<svg
   xmlns:dc="http://purl.org/dc/elements/1.1/"
   xmlns:cc="http://creativecommons.org/ns#"
   xmlns:rdf="http://www.w3.org/1999/02/22-rdf-syntax-ns#"
   xmlns:svg="http://www.w3.org/2000/svg"
   xmlns="http://www.w3.org/2000/svg"
   xmlns:sodipodi="http://sodipodi.sourceforge.net/DTD/sodipodi-0.dtd"
   xmlns:inkscape="http://www.inkscape.org/namespaces/inkscape"
   xml:space="preserve"
   width="296.84677mm"
   height="190.55498mm"
   version="1.1"
   style="clip-rule:evenodd;fill-rule:evenodd;image-rendering:optimizeQuality;shape-rendering:geometricPrecision;text-rendering:geometricPrecision"
   viewBox="0 0 29684.678 19055.499"
   enable-background="new 0 0 127.6 127.6"
   id="svg2"
   inkscape:version="0.91 r13725"
   sodipodi:docname="exercise23.svg"><metadata
   id="metadata14"><rdf:RDF><cc:Work
       rdf:about=""><dc:format>image/svg+xml</dc:format><dc:type
         rdf:resource="http://purl.org/dc/dcmitype/StillImage" /><dc:title></dc:title></cc:Work></rdf:RDF></metadata><sodipodi:namedview
   pagecolor="#ffffff"
   bordercolor="#666666"
   borderopacity="1"
   objecttolerance="10"
   gridtolerance="10"
   guidetolerance="10"
   inkscape:pageopacity="0"
   inkscape:pageshadow="2"
   inkscape:window-width="1366"
   inkscape:window-height="706"
   id="namedview12"
   showgrid="false"
   inkscape:zoom="0.47676769"
   inkscape:cx="375.53631"
   inkscape:cy="202.18852"
   inkscape:window-x="-8"
   inkscape:window-y="-8"
   inkscape:window-maximized="1"
   inkscape:current-layer="svg2"
   fit-margin-top="30"
   fit-margin-left="0"
   fit-margin-right="0"
   fit-margin-bottom="30" />
 <defs
   id="defs4">
  <style
   type="text/css"
   id="style6">
   <![CDATA[
    .fil0 {fill:white}
   ]]>
  </style>
 </defs>
 
<path
   style="fill:#ffffff;fill-opacity:1;stroke:none;stroke-width:1084.29772949;stroke-linecap:butt;stroke-linejoin:miter;stroke-miterlimit:4;stroke-dasharray:none;stroke-dashoffset:0;stroke-opacity:1"
   d="M 0,7443.7029 2307.521,16055.489 10919.306,13747.968 8611.7855,5136.182 0,7443.7029 Z M 1235.456,9617.862 2264.2766,9342.1895 4135.3235,10954.912 3606.8066,8982.4596 4645.3705,8704.1773 5600.7553,12269.722 4562.1914,12548.005 2702.3337,10947.864 3226.9558,12905.78 2190.8408,13183.406 1235.456,9617.862 Z M 6313.8029,8257.1222 7515.2913,7935.1843 9810.81,11141.642 l -1152.824,308.898 -332.8333,-541.682 -1254.9981,336.276 -15.0053,634.885 -1126.0958,301.736 384.7494,-3924.6328 z m 836.2425,766.4814 -48.1526,1386.7104 785.605,-210.503 -737.4524,-1176.2074 z"
   id="rect4187"
   inkscape:connector-curvature="0" /><path
   style="clip-rule:evenodd;fill:#ffffff;fill-opacity:1;fill-rule:evenodd;stroke:none;stroke-width:1084.29772949;stroke-linecap:butt;stroke-linejoin:miter;stroke-miterlimit:4;stroke-dasharray:none;stroke-dashoffset:0;stroke-opacity:1;image-rendering:optimizeQuality;shape-rendering:geometricPrecision;text-rendering:geometricPrecision"
   d="m 21072.893,5136.1906 -2307.521,8611.7854 8611.785,2307.521 2307.521,-8611.7854 -8611.785,-2307.521 z m 128.24,2539.445 3118.088,835.489 -190.957,712.662 -2558.448,1551.1114 2072.23,555.252 -205.294,766.171 -3383.187,-906.521 198.119,-739.39 2530.715,-1535.1454 -1785.248,-478.356 203.982,-761.273 z m 4669.864,1251.286 1201.488,321.938 384.774,3924.7544 -1152.877,-308.913 -17.401,-635.527 -1255.051,-336.29 -330.384,542.338 -1126.15,-301.751 2295.601,-3206.5494 z m 340.953,1081.9674 -735.057,1176.849 785.605,210.503 -50.548,-1387.352 z"
   id="rect4187-2"
   inkscape:connector-curvature="0" /><path
   style="clip-rule:evenodd;fill:#ffffff;fill-opacity:1;fill-rule:evenodd;stroke:none;stroke-width:1084.29772949;stroke-linecap:butt;stroke-linejoin:miter;stroke-miterlimit:4;stroke-dasharray:none;stroke-dashoffset:0;stroke-opacity:1;image-rendering:optimizeQuality;shape-rendering:geometricPrecision;text-rendering:geometricPrecision"
   d="m 10366.552,2999.9993 0,8915.5767 8915.576,0 0,-8915.5767 -8915.576,0 z m 1917.181,2419.7248 1082.752,0 390.317,2062.2616 569.075,-2062.2616 1080.216,0 571.611,2062.2616 390.26,-2062.2616 1077.736,0 -813.318,3691.4336 -1118.03,0 -647.127,-2324.1443 -644.591,2324.1443 -1118.03,0 -820.87,-3691.4336 z"
   id="rect4187-7"
   inkscape:connector-curvature="0" /></svg>