<svg width="172" height="165" viewBox="0 0 172 165" fill="none" xmlns="http://www.w3.org/2000/svg">
<path fill-rule="evenodd" clip-rule="evenodd" d="M26.2926 21.3953C3.14829 38.5869 -6.62329 68.8646 4.75462 97.7125C10.0972 111.258 22.8274 118.916 35.9634 124.09C50.937 129.989 63.9859 133.383 76.7181 143.774C84.2957 149.959 92.0524 165.112 103.151 164.112C114.728 163.069 130.889 149.192 139.615 142.084C156.861 128.034 163.665 106.302 165.908 84.7664C167.296 71.4372 174.314 54.481 170.991 41.0862C164.094 13.2932 136.352 5.49884 111.005 3.41056C100.796 2.56898 90.4387 3.13411 80.4113 1.08399C75.1979 0.0183229 70.4254 -0.63243 65.1694 0.934759C60.416 2.3532 35.1096 14.8462 26.2926 21.3953Z" fill="#C1DEE6"/>
<path fill-rule="evenodd" clip-rule="evenodd" d="M56.7195 77.0861C55.0119 78.6474 50.6646 85.8551 48.4467 86.5851C46.5585 87.207 44.5906 84.6358 45.0109 83.9684C45.9356 82.501 51.9617 78.2785 51.034 76.8586C50.0183 75.3046 43.773 75.9778 42.0835 75.9319C38.7475 75.8413 37.2058 76.5518 37.2836 71.7754C37.308 70.3227 51.5957 72.3116 51.7743 71.1486C52.0601 69.3049 44.9683 61.9059 47.6276 60.5389C50.2316 59.1992 55.0741 66.6403 57.7182 69.8285C60.467 73.1434 87.4468 71.7122 87.9268 71.7132C87.9268 71.7132 70.6334 51.7033 65.513 52.22C64.5022 52.3222 51.9886 55.6328 51.9651 52.081C51.9441 48.8551 63.4923 48.7005 63.6175 47.1857C63.8177 44.7911 55.9357 38.7817 55.4415 38.287C54.4732 37.3192 53.6478 35.2084 54.1762 34.1198C55.669 31.0402 62.068 36.9733 63.6944 38.7337C65.0678 40.2217 67.4051 44.5279 69.0706 44.1868C69.7777 44.0425 71.4941 35.4648 72.638 34.2827C73.1278 33.7768 75.9031 32.1611 76.8459 33.7176C77.4145 34.6545 71.0195 47.4998 72.5779 48.9501C74.1769 50.438 89.0072 66.1192 92.4219 68.2084C92.4219 68.2084 93.0453 40.6743 91.1336 38.6589C88.8785 36.2829 85.4657 35.1321 83.0765 32.897C81.7001 31.6087 79.172 26.8979 83.2933 28.308C86.1365 29.2807 88.9328 31.6288 91.3049 33.3839C93.7459 35.1893 92.6641 30.1526 92.6949 28.6407C92.7409 26.3146 91.9982 20.5953 94.7338 20.2861C99.4217 19.7572 95.1756 34.2475 97.5188 33.673C100.029 33.0585 105.22 25.7608 108.35 28.4944C110.036 29.9681 104.773 33.7303 103.961 34.5865C100.943 37.7718 96.6567 38.6794 96.4977 40.7046C96.0593 46.2702 96.6185 64.3558 97.0594 69.2668C97.0594 69.2668 106.025 60.7307 107.236 59.5466C115.347 51.6084 115.804 49.3072 116.239 46.7713C116.733 43.9119 116.302 37.5487 119.886 36.6503C122.176 36.0764 121.869 39.5181 121.687 40.48C121.267 42.6896 120.451 47.695 123.644 45.2917C124.958 44.3023 130.721 37.6064 131.62 38.0629C136.322 40.4487 133.845 41.9645 131.186 44.5734C129.856 45.8788 124.947 49.7481 125.096 50.4179C125.237 51.0491 133.952 49.3762 134.026 53.0219C134.075 55.3671 126.592 54.1351 123.831 54.2872C120.044 54.4962 117.924 56.2865 115.421 58.8029C112.71 61.5302 106.832 66.0688 104.336 69.0089C102.896 70.7053 101.137 72.2025 101.137 72.2025C101.137 72.2025 104.515 72.7583 106.674 72.73C112.33 72.6556 123.531 74.6661 128.32 72.0283C130.576 70.786 132.842 68.1894 134.898 66.8898C136.264 66.0277 138.465 69.0226 136.953 70.0149C136.461 70.3368 131.61 72.8743 133.095 73.5363C134.166 74.0134 136.647 73.6268 137.812 73.5661C140.615 73.4208 144.84 73.9341 144.841 76.0185C144.841 78.4487 137.247 78.1131 135.911 78.2501C131.687 78.6861 132.207 80.0751 133.692 82.6087C134.807 84.5125 137.324 88.3255 133.182 87.4291C130.257 86.7955 129.7 82.5049 127.973 80.4539C125.804 77.8782 117.874 78.0314 113.486 77.7608C109.841 77.5372 100.484 77.8782 100.484 77.8782C100.484 77.8782 107.792 86.8997 109.839 89.3383C113.232 93.3794 115.986 98.5223 121.524 99.3849C125.272 99.9691 133.505 99.6829 133.208 103.701C133.063 105.651 128.503 104.931 126.836 104.399C121.927 102.833 127.583 108.534 128.742 109.431C130.544 110.827 133.431 112.929 131.151 115.18C129.834 116.479 124.984 112.279 124.128 111.589C123.357 110.967 119.737 106.678 119.514 109.133C119.367 110.754 119.154 116.581 117.728 116.799C113.878 117.385 114.75 111.954 114.752 109.952C114.754 107.632 114.495 104.643 113.338 102.533C112.003 100.096 110.225 97.9894 108.475 95.8512C105.28 91.9443 99.2108 84.628 96.5314 80.2709C96.5314 80.2709 95.5631 88.6631 95.5832 90.6031C95.6126 93.5315 95.4335 104.594 95.2857 107.05C95.1125 109.896 97.4244 111.986 99.1237 114.269C100.577 116.22 107.054 121.51 104.379 124.083C101.431 126.92 94.6134 113.303 94.5097 116.979C94.4588 118.778 94.4906 124.087 94.4985 125.874C94.5097 128.408 90.433 129.481 90.0283 125.555C89.7734 123.09 90.2485 119.356 90.3102 116.83C90.384 113.78 82.5354 124.9 80.8786 123.663C77.7653 121.339 80.8136 119.531 82.3387 117.644C85.7025 113.484 90.524 110.449 90.7574 104.669C90.9819 99.0869 91.7257 86.6908 92.0139 80.9109C92.0139 80.9109 85.7769 87.7247 84.835 88.5829C81.3484 91.7574 77.0842 98.0457 75.448 101.233C73.715 104.61 73.5119 112.105 72.6777 114.108C71.8332 116.134 68.6362 115.658 68.0906 114.269C67.7535 113.41 70.4211 106.636 69.3672 106.518C67.4951 106.307 57.3082 115.671 55.5228 114.666C53.8161 113.705 52.3757 111.015 54.2633 109.845C56.9936 108.152 63.9752 104.028 65.6461 101.988C66.2367 101.267 58.7932 101.809 58.3127 101.976C56.7103 102.532 53.2916 103.059 53.1331 100.724C52.8008 95.8356 68.5055 97.0471 70.7812 96.0391C72.9737 95.0664 87.8432 77.5015 87.8432 77.5015C87.8432 77.5015 78.874 77.0895 76.4799 76.93C74.5154 76.8008 58.8391 75.1451 56.7195 77.0861Z" fill="black"/>
</svg>
