<svg xmlns="http://www.w3.org/2000/svg" width="21063.648" height="25868.531" viewBox="0 0 21063.648 25868.531">
  <g id="layer2" transform="translate(-184.834 -825.456)">
    <rect id="rect3346" width="19302.6" height="15218.1" rx="3613.57" transform="translate(1181.38 5857.78)" fill="none" stroke="#000" stroke-width="1432.48"/>
    <path id="path4172" d="M13555.6,5801.1l4439.7-4676.4" fill="none" stroke="#000" stroke-width="869.244" fill-rule="evenodd"/>
    <path id="path4172-3" d="M7995.65,5738.62,3369.78,1246.38" fill="none" stroke="#000" stroke-width="869.244" fill-rule="evenodd"/>
    <rect id="rect4189" width="13589.3" height="10310.6" rx="1176.75" transform="translate(3998.27 8088.66)" fill="none" stroke="#000" stroke-width="1285.62"/>
    <ellipse id="path4253" cx="236.78" cy="177.585" rx="236.78" ry="177.585" transform="translate(5801.1 19534.314)" fill="none" stroke="#000" stroke-width="502.356"/>
    <ellipse id="path4253-6" cx="236.78" cy="177.585" rx="236.78" ry="177.585" transform="translate(7340.17 19535.615)" fill="none" stroke="#000" stroke-width="502.356"/>
    <ellipse id="path4253-6-7" cx="236.78" cy="177.585" rx="236.78" ry="177.585" transform="translate(8773.27 19535.615)" fill="none" stroke="#000" stroke-width="502.356"/>
    <ellipse id="path4253-6-7-1" cx="236.78" cy="177.585" rx="236.78" ry="177.585" transform="translate(10418.32 19535.615)" fill="none" stroke="#000" stroke-width="502.356"/>
    <ellipse id="path4253-6-7-3" cx="236.78" cy="177.585" rx="236.78" ry="177.585" transform="translate(12016.52 19535.615)" fill="none" stroke="#000" stroke-width="502.356"/>
    <ellipse id="path4253-6-7-8" cx="236.78" cy="177.585" rx="236.78" ry="177.585" transform="translate(13496.42 19535.615)" fill="none" stroke="#000" stroke-width="502.356"/>
    <ellipse id="path4253-6-7-0" cx="236.78" cy="177.585" rx="236.78" ry="177.585" transform="translate(15005.92 19535.615)" fill="none" stroke="#000" stroke-width="502.356"/>
    <rect id="rect4164" width="7115.71" height="711.571" rx="178.201" transform="translate(15972.59 20914.936) rotate(45)" fill="none" stroke="#000" stroke-width="345.496"/>
    <rect id="rect4164-1" width="7115.742" height="711.574" rx="178.202" transform="translate(5963.887 21418.059) rotate(135)" fill="none" stroke="#000" stroke-width="345.498"/>
  </g>
</svg>
