<svg width="165" height="157" viewBox="0 0 165 157" fill="none" xmlns="http://www.w3.org/2000/svg">
<path fill-rule="evenodd" clip-rule="evenodd" d="M13.358 90.1511C8.30858 100.108 -2.98761 118.409 0.741252 130.1C5.82887 146.048 32.888 155.531 46.9398 156.193C55.8532 156.613 65.4599 156.884 74.361 156.196C96.1416 154.513 123.366 140.571 134.073 120.354C142.015 105.359 150.826 90.7896 156.67 74.6338C163.33 56.2234 172.725 27.9567 152.966 16.729C138.301 8.39597 120.277 -2.13204 102.651 0.37703C83.448 3.11166 63.491 10.9667 50.0659 24.2122C45.0629 29.1491 20.5251 76.019 13.358 90.1511Z" fill="#C1DEE6"/>
<path fill-rule="evenodd" clip-rule="evenodd" d="M46.4357 119.842C47.3125 118.527 49.5016 121.715 50.0721 122.17C53.9404 125.255 58.5896 125.043 62.3772 122.43C68.1459 118.451 70.2851 106.984 60.8819 105.553C59.2247 105.3 53.4193 104.728 54.7639 103.127C56.2166 101.397 58.0358 96.9474 58.3504 94.793C58.984 90.4682 53.0773 91.1077 51.9945 94.1848C51.6104 95.2759 52.0806 97.9289 50.5448 98.2738C49.0177 98.6163 46.7596 98.0365 46.3251 96.2697C46.033 95.0802 48.0284 90.7354 48.9482 89.61C51.6897 86.2559 55.126 84.7871 59.2649 86.6845C63.0749 88.4323 64.9846 92.2311 63.7868 95.982C63.141 98.0042 61.7495 100.222 62.3767 100.805C63.3166 101.679 68.1763 103.497 69.743 105.025C72.962 108.163 72.5236 111.487 72.0225 114.915C71.3747 119.357 69.7841 123.086 66.4721 126.649C63.7428 129.588 58.4712 130.949 54.4473 129.919C45.443 127.615 45.5765 121.129 46.4357 119.842Z" fill="black"/>
<path fill-rule="evenodd" clip-rule="evenodd" d="M100.964 87.9973C104.454 88.0633 115.833 89.6966 118.944 89.3467C121.06 89.1089 123.622 94.7128 121.286 95.7094C120.086 96.2207 96.9464 93.4504 92.9524 93.7391C90.6145 93.9079 85.068 92.1919 87.1406 89.4671C89.5357 86.3161 100.096 75.3776 102.763 72.958C108.459 67.7897 108.354 61.5659 102.121 63.7824C98.8047 64.9616 97.5159 68.7061 94.3341 64.9763C91.919 62.1467 100.621 58.4242 102.182 58.1179C106.141 57.3404 110.472 57.9741 112.256 61.4598C114.061 64.9856 112.188 70.9353 110.041 73.6964C107.961 76.3723 104.258 79.4895 101.966 81.911C99.9639 84.0252 94.7984 88.1309 100.964 87.9973C101.852 87.9073 100.094 88.0164 100.964 87.9973Z" fill="black"/>
<path fill-rule="evenodd" clip-rule="evenodd" d="M80.9477 48.7349C79.8703 57.822 75.4398 74.952 74.701 74.6452C71.526 73.3275 71.2799 72.5388 71.2897 70.2885C71.3058 66.6791 78.2053 41.4812 77.1802 40.8892C77.1802 40.8892 68.4171 50.9245 65.9457 51.3326C61.5411 52.0606 64.8286 49.0314 66.4208 46.4274C69.997 40.5775 78.9118 26.6279 80.2921 24.6448C82.3887 21.6323 85.8391 26.8784 85.0949 28.7059C84.4065 30.3998 81.9713 40.0985 80.9477 48.7349Z" fill="black"/>
</svg>
