<svg id="Component_4_1" data-name="Component 4 – 1" xmlns="http://www.w3.org/2000/svg" width="109.88" height="116.748" viewBox="0 0 109.88 116.748">
  <path id="Vector_13_" data-name="Vector (13)" d="M6.3,10.413C10.326-.094,17.674,3.481,22.951,3.189c6.271-.347,12.465-.728,18.724-1.3,6.282-.579,12.018.863,18.229,1.322,7.753.573,15.1-2.982,22.825-2.972,6.823.009,15.029,2.053,20.366,6.9,9.858,8.949,7.908,25.1,3.69,36.365-3.361,8.976-7.994,20-6.262,29.959.951,5.471,4.822,9.6,3.572,15.361-3.823,17.616-18.01,30.741-35.228,27.737-5-.872-22.938-3.621-28.355-5.336C25.272,106.395,15.178,96.182,12.792,78.71,11.173,66.858,1.343,54.682.443,42.92-.235,34.054,3.218,18.453,6.3,10.413Z" transform="translate(-0.357 -0.234)" fill="#c1dee6" fill-rule="evenodd"/>
  <path id="exercise32" d="M18.2,52.7c3.8-2,4.4-2.1,10.2-.8,2.6.6,3.5,3.9,4.5,7.8.8,2.7,1.8,7.1,3.3,7.1.3,0,4.1.3,5.1-1.7.6-1.1,1.1-3.9-3.5-10.7a1.517,1.517,0,0,1,.3-2.1C41,50,47.6,42.8,45,37.6a7.591,7.591,0,0,0-6-3.5h0c-3,0-5.6,2.4-7.5,6.8a1.7,1.7,0,0,1-3,0c-.3-.5-5.8-12.9-1.8-21.9a13.951,13.951,0,0,1,9.2-7.8C38.3,10.4,49,8.8,55.6,15c5.1,4.7,6.3,12.5,3.9,23.1a1.566,1.566,0,0,1-2,1.2,1.636,1.636,0,0,1-1.2-2c2.3-9.5,1.2-16.1-2.9-20-5.1-4.8-13.8-3.9-16.5-3a11.567,11.567,0,0,0-7.2,6c-2.3,5.3-.8,12.2.6,16.1C33.2,32,36.6,31,39,31h.2a10.325,10.325,0,0,1,8.9,5.3c3.5,7.1-3.9,15-6.8,17.7,3.6,5.9,4.7,10.1,2.9,13.1-2.3,3.8-7.8,3.3-8,3.3-3.8.3-5.3-4.8-6.5-9.5-.5-2-1.4-5.1-2.1-5.6-2.9-.6-6.8-1.1-8.4,1.1-2.7,3.6,1.4,13.8,4.5,19.4,2.7,7.8,10.2,9.2,13.4,9.3,6.8.5,13.7-2.4,15.6-6.3a65.166,65.166,0,0,0,5.6-15.6,41.5,41.5,0,0,1,4.1-11.4c8.4-15.5,10.7-28.5,6.2-38A23.22,23.22,0,0,0,52.8,1.3C39.4-1.4,29.2.2,22.8,6.4c-11.1,10.5-8.1,31.1-8.1,31.2Z" transform="translate(20.219 12.596)"/>
</svg>
