<svg id="Component_3_1" data-name="Component 3 – 1" xmlns="http://www.w3.org/2000/svg" width="123.055" height="130.429" viewBox="0 0 123.055 130.429">
  <path id="Vector_12_" data-name="Vector (12)" d="M17.692,10.041a64.884,64.884,0,0,0,7.821-.775c5.711-1.259,10.993-4.812,16.568-6.724C51.871-.816,61.141-1.77,69.8,5.507c3.554,2.987,6.423,7,9.678,10.386,4.4,4.577,9.049,8.83,13.561,13.242,8.038,7.858,17.57,14.244,24.87,23.08,4.954,6,5.4,12.641,5.055,20.63a115.5,115.5,0,0,1-3.2,23.513c-1.879,7.157-6.049,13.366-9.805,19.414-3.476,5.6-7.942,9.277-13.857,10.16-8.654,1.291-17.366-.131-26.063,1.619-10.01,2.013-19.3,3.385-29.473,2.7-6.082-.41-14.142-.051-19.853-2.945-2.458-1.244-4.143-3.93-6.08-5.961a83.194,83.194,0,0,1-6.2-6.786C2.625,106.963.868,98.725.24,88.751c-.876-13.912.775-27.658,2.8-41.334.845-5.7,2.282-11.014,1.84-16.4-.5-6.147.57-11.8,3.487-16.108C8.369,14.9,14.956,10.313,17.692,10.041Z" fill="#c1dee6" fill-rule="evenodd"/>
  <g id="exercise14" transform="translate(8 22.715)">
    <path id="Path_28" data-name="Path 28" d="M24.3,51.2a1.367,1.367,0,0,1-1.4-1.4V41.4a5.622,5.622,0,0,1,3.1-5l5.3-13.2H53.7L59,36.3a5.447,5.447,0,0,1,3.1,5v8.4a1.367,1.367,0,0,1-1.4,1.4H59.3V54a2.8,2.8,0,0,1-5.6,0V51.2H31.3V54a2.8,2.8,0,0,1-2.8,2.8A2.862,2.862,0,0,1,25.7,54V51.2Zm6.1-15.4H54.5l-3.4-8.4H33.8Zm-.2,2.4A3.441,3.441,0,0,0,27,41.4a3.441,3.441,0,0,0,3.2,3.2,3.441,3.441,0,0,0,3.2-3.2A3.441,3.441,0,0,0,30.2,38.2Zm24.6,0a3.441,3.441,0,0,0-3.2,3.2,3.2,3.2,0,1,0,6.4,0A3.441,3.441,0,0,0,54.8,38.2Z"/>
    <g id="Group_1" data-name="Group 1">
      <path id="Path_29" data-name="Path 29" d="M0,13.9l2.8-.2a1.88,1.88,0,0,0,.4,1,1.486,1.486,0,0,0,1.3.6,1.689,1.689,0,0,0,1-.3.908.908,0,0,0,.3-.7,1.08,1.08,0,0,0-.3-.7A2.8,2.8,0,0,0,4,13.1a5.677,5.677,0,0,1-2.7-1.2,2.172,2.172,0,0,1-.8-1.8A2.5,2.5,0,0,1,.9,8.7a2.683,2.683,0,0,1,1.3-1,6.8,6.8,0,0,1,2.3-.4A4.654,4.654,0,0,1,7.3,8a3.119,3.119,0,0,1,1.1,2.2l-2.8.2a2.344,2.344,0,0,0-.5-1,1.493,1.493,0,0,0-1-.3,1.884,1.884,0,0,0-.8.2,1.421,1.421,0,0,0-.2.6.52.52,0,0,0,.2.4,2.947,2.947,0,0,0,1,.3,28.46,28.46,0,0,1,2.8.8,2.182,2.182,0,0,1,1.2,1.1,2.3,2.3,0,0,1,.4,1.4,3.371,3.371,0,0,1-.5,1.7,3.325,3.325,0,0,1-1.4,1.2,5.27,5.27,0,0,1-2.3.4,4.655,4.655,0,0,1-3.3-.9A3.3,3.3,0,0,1,0,13.9Z"/>
      <path id="Path_30" data-name="Path 30" d="M15.9,15.5H12.6L12.1,17h-3l3.6-9.5h3.2L19.5,17H16.4Zm-.6-2.1-1-3.4-1,3.4Z"/>
      <path id="Path_31" data-name="Path 31" d="M20.3,7.6h3.9l1.5,5.8,1.5-5.8H31V17H28.6V9.8L26.8,17H24.6L22.8,9.8V17H20.4V7.6Z"/>
      <path id="Path_32" data-name="Path 32" d="M32.5,12.3a4.688,4.688,0,0,1,1.3-3.6,4.835,4.835,0,0,1,3.6-1.3,4.5,4.5,0,0,1,4.9,4.9,5.4,5.4,0,0,1-.6,2.7,4.363,4.363,0,0,1-1.6,1.7,5.26,5.26,0,0,1-2.6.6,6.845,6.845,0,0,1-2.7-.5,3.748,3.748,0,0,1-1.7-1.6A6.839,6.839,0,0,1,32.5,12.3Zm2.9,0a3.81,3.81,0,0,0,.5,2.1,1.887,1.887,0,0,0,1.5.6,2.035,2.035,0,0,0,1.5-.6,3.722,3.722,0,0,0,.5-2.2,3.677,3.677,0,0,0-.5-2,1.887,1.887,0,0,0-1.5-.6,1.678,1.678,0,0,0-1.4.6A3.1,3.1,0,0,0,35.4,12.3Z"/>
      <path id="Path_33" data-name="Path 33" d="M50.2,13.2l2.6.8a4.942,4.942,0,0,1-.8,1.8,3.815,3.815,0,0,1-1.4,1.1,5.58,5.58,0,0,1-2.1.4,5.95,5.95,0,0,1-2.5-.4,3.705,3.705,0,0,1-1.7-1.6,5.2,5.2,0,0,1-.7-2.9,4.546,4.546,0,0,1,1.3-3.6,4.838,4.838,0,0,1,3.5-1.3,4.654,4.654,0,0,1,2.8.7,3.965,3.965,0,0,1,1.5,2.2l-2.6.6a1.628,1.628,0,0,0-.3-.6,2.651,2.651,0,0,0-.6-.5,1.884,1.884,0,0,0-.8-.2,1.645,1.645,0,0,0-1.5.8,3.161,3.161,0,0,0-.4,1.9,3.722,3.722,0,0,0,.5,2.2,1.612,1.612,0,0,0,1.3.6,1.728,1.728,0,0,0,1.3-.5A3.946,3.946,0,0,0,50.2,13.2Z"/>
      <path id="Path_34" data-name="Path 34" d="M54.2,7.6h2.9v3.3h3.2V7.6h2.9V17H60.3V13.2H57.1V17H54.2Z"/>
      <path id="Path_35" data-name="Path 35" d="M64.9,12.3a4.688,4.688,0,0,1,1.3-3.6,4.835,4.835,0,0,1,3.6-1.3,4.5,4.5,0,0,1,4.9,4.9,5.4,5.4,0,0,1-.6,2.7,4.363,4.363,0,0,1-1.6,1.7,5.26,5.26,0,0,1-2.6.6,6.845,6.845,0,0,1-2.7-.5,3.748,3.748,0,0,1-1.7-1.6A6.839,6.839,0,0,1,64.9,12.3Zm2.9,0a3.81,3.81,0,0,0,.5,2.1,1.887,1.887,0,0,0,1.5.6,2.035,2.035,0,0,0,1.5-.6,3.722,3.722,0,0,0,.5-2.2,3.677,3.677,0,0,0-.5-2,1.887,1.887,0,0,0-1.5-.6,1.678,1.678,0,0,0-1.4.6A3.1,3.1,0,0,0,67.8,12.3ZM69.7,5H72L69.9,7H68.6Z"/>
      <path id="Path_36" data-name="Path 36" d="M76.3,7.6h4.4a5.842,5.842,0,0,1,2.1.3,3.249,3.249,0,0,1,1.3,1,5.3,5.3,0,0,1,.8,1.5,5.537,5.537,0,0,1,.2,1.8,7.8,7.8,0,0,1-.3,2.4,3.587,3.587,0,0,1-1,1.4,3.528,3.528,0,0,1-1.3.8,5.547,5.547,0,0,1-1.7.3H76.4V7.6Zm2.9,2.1v5.2H80a3.918,3.918,0,0,0,1.3-.2,1.057,1.057,0,0,0,.6-.7,5.666,5.666,0,0,0,.2-1.6,3.576,3.576,0,0,0-.5-2.1A1.969,1.969,0,0,0,80,9.7h-.8Z"/>
    </g>
    <g id="Group_2" data-name="Group 2">
      <path id="Path_37" data-name="Path 37" d="M39.3,68.7h-.7v5.2h.7a3.918,3.918,0,0,0,1.3-.2,1.057,1.057,0,0,0,.6-.7,5.666,5.666,0,0,0,.2-1.6,3.576,3.576,0,0,0-.5-2.1A1.969,1.969,0,0,0,39.3,68.7Z"/>
      <path id="Path_38" data-name="Path 38" d="M0,62.8V80H85V62.8Zm24.1,8.9a8.075,8.075,0,0,1-.3,2.5,2.689,2.689,0,0,1-1.2,1.4,3.8,3.8,0,0,1-2.2.6,4.315,4.315,0,0,1-2.2-.4A3.179,3.179,0,0,1,17,74.7a3.453,3.453,0,0,1-.5-1.8l2.8-.4a2.22,2.22,0,0,0,.1.9,2.186,2.186,0,0,0,.3.5.749.749,0,0,0,.5.1.67.67,0,0,0,.7-.4c.2-.2.2-.7.2-1.2V66.6H24v5.1ZM34,76H26V66.5h7.9v2H29V70h4.6v2H29v1.9h5Zm10-2.4A3.587,3.587,0,0,1,43,75a3.528,3.528,0,0,1-1.3.8A5.245,5.245,0,0,1,40,76H35.6V66.5H40a5.842,5.842,0,0,1,2.1.3,3.249,3.249,0,0,1,1.3,1,5.3,5.3,0,0,1,.8,1.5,5.537,5.537,0,0,1,.2,1.8A9.841,9.841,0,0,1,44,73.6ZM54.1,76h-9V74l5.3-5.5H45.6v-2h8.3v1.9L48.6,74h5.5Zm4.4,0H55.6V66.5h2.9Zm10.1,0h-8V66.5h7.9v2H63.6V70h4.6v2H63.6v1.9h5.1V76Z"/>
    </g>
  </g>
</svg>
