<?xml version="1.0" encoding="UTF-8"?>
<!DOCTYPE svg PUBLIC "-//W3C//DTD SVG 1.1//EN" "http://www.w3.org/Graphics/SVG/1.1/DTD/svg11.dtd">
<!-- Creator: CorelDRAW X7 -->
<svg xmlns="http://www.w3.org/2000/svg" xml:space="preserve" width="215.9mm" height="279.4mm" version="1.1" style="shape-rendering:geometricPrecision; text-rendering:geometricPrecision; image-rendering:optimizeQuality; fill-rule:evenodd; clip-rule:evenodd"
viewBox="0 0 21590 27940"
 xmlns:xlink="http://www.w3.org/1999/xlink">
 <defs>
  <style type="text/css">
   <![CDATA[
    .fil0 {fill:white}
   ]]>
  </style>
 </defs>
 <g id="Warstwa_x0020_1">
  <metadata id="CorelCorpID_0Corel-Layer"/>
  <g id="_215771968">
   <path class="fil0" d="M20472 6305c-38,-95 -125,-162 -227,-175 -101,-12 -202,32 -262,116 -354,496 -818,661 -1356,853 -434,155 -883,314 -1367,662 -686,493 -1000,1164 -843,1800l-17 21c-286,-415 -598,-800 -927,-1143 -1538,-1605 -3687,-2570 -5897,-2647 -97,-3 -196,-5 -294,-5 -2467,0 -4829,1103 -6479,3026 -1642,1913 -2370,4403 -1997,6833 32,203 71,408 116,610 607,2670 2157,4702 4252,5573 517,215 1038,324 1549,324 1269,0 2377,-679 3041,-1862 252,-451 415,-916 484,-1385 40,-276 13,-552 -14,-820 -28,-275 -54,-536 -12,-798 95,-601 515,-959 1123,-959 172,0 349,28 525,84 -206,379 -394,741 -557,1076 -348,710 -587,1298 -713,1748 -77,277 -282,1014 218,1361 159,111 361,150 571,111 189,-36 764,-142 2399,-2003 438,-500 911,-1077 1405,-1718 1268,-427 2256,-1490 2517,-2712 65,-305 92,-632 81,-972 475,-734 891,-1419 1310,-2155 8,-14 16,-29 24,-45 609,-166 1133,-640 1440,-1302 449,-966 416,-2208 -93,-3497zm-6857 4576c-220,350 -599,558 -1012,558 -225,0 -444,-63 -635,-184 -270,-170 -458,-435 -529,-746 -70,-311 -16,-631 154,-901 220,-349 599,-558 1012,-558 225,0 444,64 635,184 270,170 458,435 529,746 70,311 16,631 -154,901zm1550 2164c604,-889 1243,-1774 1849,-2561 98,89 208,176 327,259 198,137 404,242 615,315 -512,876 -1063,1743 -1729,2725 -1096,1614 -2235,3114 -3208,4222 -543,619 -1019,1097 -1385,1393 141,-452 412,-1073 788,-1809 673,-1315 1647,-2929 2743,-4544zm-10602 -7c-225,0 -445,-64 -636,-184 -270,-170 -457,-435 -528,-746 -71,-311 -16,-631 154,-901 220,-350 598,-559 1012,-559 225,0 444,64 635,184 558,351 725,1090 375,1647 -220,350 -599,559 -1012,559zm-1252 2630c220,-350 598,-558 1011,-558 225,0 445,63 636,184 270,170 457,434 528,746 71,311 16,631 -154,901 -220,349 -598,558 -1012,558 -225,0 -444,-64 -635,-184 -270,-170 -458,-435 -528,-746 -71,-311 -16,-631 154,-901zm3825 -7094c220,-350 598,-558 1012,-558 224,0 444,63 635,184 557,350 725,1089 374,1647 -220,349 -598,558 -1012,558 -224,0 -444,-64 -635,-184 -270,-170 -457,-435 -528,-746 -71,-311 -16,-631 154,-901z"/>
  </g>
  <g id="_215772512">
  </g>
  <g id="_215772544">
  </g>
  <g id="_215773120">
  </g>
  <g id="_215776192">
  </g>
  <g id="_215782560">
  </g>
  <g id="_215785568">
  </g>
  <g id="_215774432">
  </g>
  <g id="_215776768">
  </g>
  <g id="_215785184">
  </g>
  <g id="_215781824">
  </g>
  <g id="_215771648">
  </g>
  <g id="_215783072">
  </g>
  <g id="_215774368">
  </g>
  <g id="_215775744">
  </g>
  <g id="_215782208">
  </g>
 </g>
</svg>
