<svg id="Component_4_1" data-name="Component 4 – 1" xmlns="http://www.w3.org/2000/svg" xmlns:xlink="http://www.w3.org/1999/xlink" width="731.329" height="569.113" viewBox="0 0 731.329 569.113">
  <defs>
    <clipPath id="clip-path">
      <rect id="Rectangle_4" data-name="Rectangle 4" width="628" height="466" transform="translate(2164 614)" stroke="#707070" stroke-width="1"/>
    </clipPath>
  </defs>
  <path id="Vector_14_" data-name="Vector (14)" d="M122.824,134.413C106.931,115.22,122.6,82.7,132.37,69.57c22.374-30.085,60.7-44.794,103.322-50.866,37.762-5.378,71.1-1.681,108.968-1.709,40.929-.03,78.787-8.417,118.623-12.308,71.8-7.012,214.982-15.794,246.163,52.615,21.033,46.14-1.659,93.119-16.942,138.265-15.5,45.794-13.148,82.045,6.7,126.343,14.138,31.549,24.717,63.227,30.623,96.4,20.485,115.11-173.392,130.041-277.84,135.041-39.168,1.87-78.278-2.033-116.861-3.206-41.457-1.263-77.813,18.254-119.765,18.926-39.01.626-88.157-6.039-126.4-12.7C50.08,549.6,32.919,524.074,21.2,496.746-.856,445.318-14.456,410.592,25.714,362.63c38.818-46.348,62.287-98.494,90.4-148.916C129.947,188.9,136.663,151.126,122.824,134.413Z" transform="translate(731.329 569.113) rotate(180)" fill="#c1dee6" fill-rule="evenodd"/>
  <g id="Mask_Group_4" data-name="Mask Group 4" transform="translate(-2144 -574.226)" clip-path="url(#clip-path)">
    <g id="exercise15" transform="translate(2213.623 582.933)">
      <path id="Path_1" data-name="Path 1" d="M150.984,318.123a8.494,8.494,0,0,1-8.7-8.7V257.232a34.933,34.933,0,0,1,19.261-31.067l32.931-82.016H333.656l32.931,81.395a33.843,33.843,0,0,1,19.261,31.067V308.8a8.494,8.494,0,0,1-8.7,8.7h-8.7V335.52a17.4,17.4,0,1,1-34.795,0v-17.4H194.477v17.4a17.367,17.367,0,0,1-17.4,17.4,17.78,17.78,0,0,1-17.4-17.4v-17.4Zm37.9-95.685H338.627L317.5,170.245H210.011Zm-1.243,14.912c-9.941,0-19.883,9.941-19.883,19.883s9.941,19.883,19.883,19.883,19.883-9.941,19.883-19.883S197.584,237.349,187.643,237.349Zm152.848,0c-9.941,0-19.883,9.941-19.883,19.883s9.941,19.883,19.883,19.883,19.883-9.941,19.883-19.883S350.432,237.349,340.491,237.349Z"/>
      <g id="Group_1" data-name="Group 1">
        <path id="Path_2" data-name="Path 2" d="M0,86.365l17.4-1.243c.621,3.107,1.243,4.971,2.485,6.213,1.864,2.485,4.349,3.728,8.077,3.728A10.5,10.5,0,0,0,34.173,93.2a5.641,5.641,0,0,0,1.864-4.349A6.712,6.712,0,0,0,34.173,84.5c-1.243-1.243-4.349-2.485-9.32-3.107Q12.737,78.6,8.077,73.939C4.349,70.832,3.107,67.1,3.107,62.755a15.531,15.531,0,0,1,2.485-8.7,16.671,16.671,0,0,1,8.077-6.213A42.252,42.252,0,0,1,27.96,45.357c7.456,0,13.048,1.243,17.4,4.349,3.728,3.107,6.213,7.456,6.835,13.669l-17.4,1.243a14.567,14.567,0,0,0-3.107-6.213c-1.243-1.243-3.728-1.864-6.213-1.864A11.705,11.705,0,0,0,20.5,57.784a8.831,8.831,0,0,0-1.243,3.728A3.228,3.228,0,0,0,20.5,64c.621.621,3.107,1.243,6.213,1.864a176.833,176.833,0,0,1,17.4,4.971c3.728,1.864,6.213,3.728,7.456,6.835a14.265,14.265,0,0,1,2.485,8.7,20.946,20.946,0,0,1-3.107,10.563,20.662,20.662,0,0,1-8.7,7.456c-3.728,1.864-8.7,2.485-14.291,2.485q-14.912,0-20.5-5.592C2.485,96.928.621,92.579,0,86.365Z"/>
        <path id="Path_3" data-name="Path 3" d="M98.792,96.307h-20.5l-3.107,9.32H56.541L78.909,46.6H98.792l22.368,59.027H101.9ZM95.064,83.259,88.851,62.133,82.637,83.259Z"/>
        <path id="Path_4" data-name="Path 4" d="M126.131,47.221h24.232l9.32,36.037L169,47.221h23.611v58.405H177.7V60.891l-11.184,44.736H152.848L141.664,60.891v44.736H126.752V47.221Z"/>
        <path id="Path_5" data-name="Path 5" d="M201.933,76.424c0-9.32,2.485-17.4,8.077-22.368,5.592-5.592,13.048-8.077,22.368-8.077,9.941,0,17.4,2.485,22.368,8.077,5.592,4.971,8.077,12.427,8.077,22.368q0,10.252-3.728,16.776a27.111,27.111,0,0,1-9.941,10.563c-4.349,2.485-9.941,3.728-16.155,3.728a42.529,42.529,0,0,1-16.776-3.107,23.288,23.288,0,0,1-10.563-9.941A42.493,42.493,0,0,1,201.933,76.424Zm18.019,0c0,6.213,1.243,9.941,3.107,13.048,2.485,2.485,4.971,3.728,9.32,3.728a12.645,12.645,0,0,0,9.32-3.728c1.864-2.485,3.107-6.835,3.107-13.669,0-5.592-1.243-9.32-3.107-12.427-2.485-2.485-4.971-3.728-9.32-3.728-3.728,0-6.835,1.243-8.7,3.728C221.195,66.483,219.952,70.211,219.952,76.424Z"/>
        <path id="Path_6" data-name="Path 6" d="M311.909,82.016l16.155,4.971c-1.243,4.349-2.485,8.077-4.971,11.184a23.7,23.7,0,0,1-8.7,6.835,34.669,34.669,0,0,1-13.048,2.485c-6.213,0-11.805-.621-15.533-2.485-4.349-1.864-7.456-4.971-10.563-9.941S270.9,84.5,270.9,77.045c0-9.941,2.485-17.4,8.077-22.368,4.971-4.971,12.427-8.077,21.747-8.077,7.456,0,13.048,1.243,17.4,4.349s7.456,7.456,9.32,13.669l-16.155,3.728a10.116,10.116,0,0,0-1.864-3.728,16.474,16.474,0,0,0-3.728-3.107,11.705,11.705,0,0,0-4.971-1.243c-4.349,0-7.456,1.864-9.32,4.971-1.864,2.485-2.485,6.213-2.485,11.805,0,6.835,1.243,11.184,3.107,13.669a10.019,10.019,0,0,0,8.077,3.728,10.734,10.734,0,0,0,8.077-3.107A24.516,24.516,0,0,0,311.909,82.016Z"/>
        <path id="Path_7" data-name="Path 7" d="M336.763,47.221h18.019v20.5h19.883v-20.5h18.019v58.405H374.664V82.016H354.781v23.611H336.763Z"/>
        <path id="Path_8" data-name="Path 8" d="M403.245,76.424c0-9.32,2.485-17.4,8.077-22.368,5.592-5.592,13.048-8.077,22.368-8.077,9.941,0,17.4,2.485,22.368,8.077,5.592,4.971,8.077,12.427,8.077,22.368q0,10.252-3.728,16.776a27.111,27.111,0,0,1-9.941,10.563c-4.349,2.485-9.941,3.728-16.155,3.728a42.528,42.528,0,0,1-16.776-3.107,23.288,23.288,0,0,1-10.563-9.941A42.491,42.491,0,0,1,403.245,76.424Zm18.019,0c0,6.213,1.243,9.941,3.107,13.048,2.485,2.485,4.971,3.728,9.32,3.728a12.645,12.645,0,0,0,9.32-3.728c1.864-2.485,3.107-6.835,3.107-13.669,0-5.592-1.243-9.32-3.107-12.427-2.485-2.485-4.971-3.728-9.32-3.728-3.728,0-6.835,1.243-8.7,3.728C422.507,66.483,421.264,70.211,421.264,76.424Zm11.805-45.357H447.36L434.312,43.493h-8.077Z"/>
        <path id="Path_9" data-name="Path 9" d="M474.077,47.221h27.339q8.388,0,13.048,1.864a20.186,20.186,0,0,1,8.077,6.213,32.93,32.93,0,0,1,4.971,9.32c1.243,3.728,1.243,7.456,1.243,11.184q0,9.32-1.864,14.912c-1.243,3.728-3.728,6.213-6.213,8.7a21.922,21.922,0,0,1-8.077,4.971,34.464,34.464,0,0,1-10.563,1.864H474.7V47.221ZM492.1,60.269V92.579h4.971a24.343,24.343,0,0,0,8.077-1.243c1.864-.621,3.107-2.485,3.728-4.349a35.206,35.206,0,0,0,1.243-9.941c0-6.213-1.243-10.563-3.107-13.048s-5.592-3.728-9.941-3.728H492.1Z"/>
      </g>
      <g id="Group_2" data-name="Group 2">
        <path id="Path_10" data-name="Path 10" d="M244.184,426.856h-4.349v32.309h4.349a24.344,24.344,0,0,0,8.077-1.243c1.864-.621,3.107-2.485,3.728-4.349a35.207,35.207,0,0,0,1.243-9.941c0-6.213-1.243-10.563-3.107-13.048S248.533,426.856,244.184,426.856Z"/>
        <path id="Path_11" data-name="Path 11" d="M0,390.2V497.067H528.133V390.2Zm149.741,55.3c0,6.835-.621,11.805-1.864,15.533s-3.728,6.213-7.456,8.7-8.077,3.728-13.669,3.728c-6.213,0-10.563-.621-13.669-2.485s-5.592-3.728-7.456-6.835a21.457,21.457,0,0,1-3.107-11.184l17.4-2.485c0,2.485,0,4.349.621,5.592a13.582,13.582,0,0,0,1.864,3.107c.621.621,1.864.621,3.107.621,1.864,0,3.728-.621,4.349-2.485,1.243-1.243,1.243-4.349,1.243-7.456V413.808H149.12V445.5Zm61.512,26.717H161.547V413.187h49.085v12.427H180.187v9.32h28.581V447.36H180.187v11.805h31.067ZM273.387,457.3c-1.243,3.728-3.728,6.213-6.213,8.7a21.923,21.923,0,0,1-8.077,4.971,32.586,32.586,0,0,1-10.563,1.243H221.195V413.187h27.339q8.388,0,13.048,1.864a20.185,20.185,0,0,1,8.077,6.213,32.931,32.931,0,0,1,4.971,9.32c1.243,3.728,1.243,7.456,1.243,11.184C275.251,449.224,274.629,454.195,273.387,457.3Zm62.755,14.912h-55.92V459.787l32.931-34.173H283.328V413.187H334.9v11.805l-32.931,34.795h34.173Zm27.339,0H345.461V413.187H363.48Zm62.755,0H376.528V413.187h49.085v12.427H395.168v9.32h28.581V447.36H395.168v11.805h31.688v13.048Z"/>
      </g>
    </g>
  </g>
</svg>
