<svg width="188" height="153" viewBox="0 0 188 153" fill="none" xmlns="http://www.w3.org/2000/svg">
<path fill-rule="evenodd" clip-rule="evenodd" d="M36.4299 3.90329C22.9612 11.5988 12.5766 19.445 7.18755 34.4828C-1.55211 58.8728 -4.57884 83.8539 11.2374 105.924C22.1466 121.145 47.8557 126.755 65.1843 130.41C85.7496 134.749 105.438 140.423 125.166 147.423C140.376 152.819 153.751 155.31 167.447 144.991C180.647 135.045 186.583 117.661 187.892 101.162C188.565 92.6758 184.576 87.6826 182.445 79.9812C180.687 73.6234 178.725 67.1276 177.204 60.5501C174.121 47.2204 166.398 34.9946 159.203 23.3872C136.532 -13.1822 118.52 5.07317 57.6018 1.29391C56.1677 1.20437 44.4835 -0.698468 36.4299 3.90329Z" fill="#C1DEE6"/>
<path fill-rule="evenodd" clip-rule="evenodd" d="M46.452 101.91C43.0309 101.614 45.7088 26.5193 46.0248 22.1764C46.1154 20.9267 128.347 17.8266 130.518 21.4189C131.283 22.6847 130.389 24.9438 128.715 25.4321C124.753 26.5873 116.416 26.0442 115.295 26.054C107.16 26.1259 60.7382 26.1753 57.1987 26.1631C55.9554 26.1572 52.6904 25.5632 51.7133 26.44C50.2758 27.7298 50.9652 86.872 51.2044 91.0764C51.2734 92.2762 51.2475 94.8126 52.3939 95.616C54.0634 96.7874 128.639 95.8705 129.165 94.6624C130.185 92.3182 130.049 34.6302 129.927 27.0922C129.887 24.614 131.149 23.0952 132.931 23.4505C135.119 23.8869 135.552 27.3462 135.46 28.8977C134.688 41.9788 134.64 95.1512 133.951 100.153" fill="black"/>
<path fill-rule="evenodd" clip-rule="evenodd" d="M148.921 109.002C148.519 108.967 148.833 97.5471 148.87 97.0358C148.881 96.8895 157.193 96.5245 157.449 96.9467C157.539 97.096 157.592 100.588 157.46 100.589C156.504 100.597 152.622 100.531 152.507 100.635C152.338 100.786 152.453 104.349 152.587 104.443C152.783 104.581 157.588 104.473 157.649 104.331C157.77 104.056 157.754 97.9674 157.739 97.0808C157.735 96.7897 160.664 96.9717 160.872 97.0138C161.13 97.0647 161.066 98.9396 161.055 99.1216C160.964 100.66 160.959 108.207 160.878 108.795" fill="black"/>
<path fill-rule="evenodd" clip-rule="evenodd" d="M139.109 91.8898C141.278 88.6932 144.724 86.2997 148.264 84.935C156.418 81.7918 165.026 84.2226 171.621 90.2854C176.504 94.7751 174.502 106.278 171.087 111.368C167.334 116.964 159.271 119.841 152.68 119.271C150.301 119.065 148.036 119.338 145.887 121.236C143.492 123.35 133.939 141.781 130.476 137.972C128.64 135.951 133.03 129.602 134.156 127.902C136.482 124.395 138.943 122.302 140.254 118.261C141.247 115.202 138.363 111.429 137.287 108.472C135.337 103.113 137.202 94.7012 139.109 91.8898ZM140.548 100.76C139.863 105.331 141.449 109.681 144.99 112.644C146.304 113.743 147.853 114.764 149.55 115.135C151.652 115.594 160.968 115.499 164.568 112.534C168.103 109.623 170.251 104.973 170.158 101.175C170.062 97.3018 168.086 93.2475 164.932 91.1754C164.288 90.7517 157.291 87.6912 151.883 89.1038C146.114 90.6098 141.122 96.9324 140.548 100.76Z" fill="black"/>
</svg>
