<svg width="969" height="735" viewBox="0 0 969 735" fill="none" xmlns="http://www.w3.org/2000/svg">
<path opacity="0.7" d="M434.5 23C401.78 36.1351 270.488 56 202.5 99C163.806 118.531 136.11 155.5 98 250C66.7449 306.353 88.0721 353.563 52.7214 408.5C13.8963 468.832 -59.2151 667.975 88.5811 678.242C187.377 685.106 270.833 651.53 362.034 699.346C516.399 780.283 655.953 712.638 755.767 604.307C801.348 554.84 890.45 490.804 884.272 425.304C878.879 368.122 837.985 323.144 792.154 282.189C770.409 262.758 755.951 258.08 778.648 232.824C800.072 208.983 834.619 201.14 861.482 183.335C884.696 167.947 906.493 160.574 927.725 144C942.013 132.847 954.859 127.5 968.859 92.6737C968.859 103.5 969.177 67.9035 968.859 63.5C966.073 24.8944 883.588 16.2215 848.589 8.07158C779.579 -7.998 697.339 4.08625 626.808 8.85353C563.736 13.1183 492.514 -0.291666 434.5 23Z" fill="#DBF4F6"/>
<path fill-rule="evenodd" clip-rule="evenodd" d="M431.832 249.03C436.032 255.959 464.746 226.249 468.852 221.997C472.086 218.652 489.093 198.358 485.794 195.443C476.68 187.434 472.541 188.868 461.939 186.303C449.821 183.334 437.704 180.471 425.916 176.165C410.155 170.406 413.63 179.615 412.795 193.488C411.846 209.268 431.957 247.957 431.832 249.03C431.994 249.296 431.081 247.954 431.832 249.03ZM121.451 669.068C121.43 662.771 121.175 609.734 120.559 596.253C119.217 566.81 127.934 475.188 129.988 461.66C136.08 421.537 150.346 348.611 207.232 311.918C221.825 302.552 236.164 302.515 235.369 292.188C233.991 274.237 239.068 208.027 246.086 188.359C252.241 171.108 257.457 153.019 264.119 138.379C286.135 90.0013 313.04 80.4628 332.482 68.2754C371.299 43.9424 444.407 37.9808 460.809 37.2804C467.298 37.0058 493.216 39.2096 498.333 39.9744C512.3 42.0583 541.976 56.0289 549.262 59.8649C567.89 69.6728 599.638 137.696 597.248 136.696C589.936 133.637 569.263 133.344 561.442 133.031C550.289 132.579 516.322 134.618 491.226 141.78C484.058 143.826 460.281 150.168 456.118 157.739C460.495 162.635 500.568 190.446 499.916 193.053C498.475 198.817 492.312 209.131 486.446 218.162C475.366 234.333 442.424 253.224 439.449 255.236C435.806 259.994 444.4 291.112 449.512 295.963C466.602 312.184 499.695 331.925 510.345 349.553C541.34 393.003 531.08 470.559 530.042 496.709C528.942 524.492 515.307 640.016 514.109 647.923C511.718 663.736 507.011 703.506 491.805 696.589C488.619 695.139 511.483 550.285 512.371 539.583C513.715 523.416 529.597 434.859 513.819 389.819C495.036 336.199 438.157 313.936 428.916 277.263C420.615 244.326 411.019 231.609 409.535 228.032C405.04 217.199 400.922 198.019 400.844 177.774C402.873 152.283 410.026 115.73 414.459 104.196C423.012 81.9436 457.354 47.966 457.549 48.6595C453.923 35.8586 368.248 64.6967 358.401 68.6769C337.172 77.2578 298.07 98.9958 281.785 127.95C266.166 155.718 253.541 198.921 248.544 227.599C244.199 252.367 244.659 296.681 249.208 297.956C283.378 307.549 296.327 333.373 300.179 346.424C313.07 390.109 313.112 499.05 313.435 507.62C315.242 555.516 306.842 597.518 302.666 616.147C301.72 620.371 292.211 661.681 286.198 658.05C280.77 656.755 290.348 627.483 292.356 619.533C294.766 609.989 298.295 589.085 299.259 578.186C306.983 490.916 295.314 361.059 292.032 351.978C282.94 326.812 259.252 310.801 248.367 307.77C231.956 303.202 188.113 334.666 169.82 367.945C156.205 392.714 147.936 428.116 141.866 455.866C135.783 483.675 129.7 558.52 128.905 585.31C128.481 599.597 128.014 644.057 129.482 650.601C130.275 654.105 124.71 670.589 121.451 669.068ZM422.263 653.013C418.985 647.516 453.113 582.187 459.487 451.833C461.454 411.576 449.947 373.799 453.982 370.434C463.251 369.275 483.695 442.54 454.726 582.166C450.211 603.93 427.593 661.954 422.263 653.013ZM494.485 47.0553C487.963 46.44 470.586 49.0106 460.761 55.7682C444.211 67.1491 421.499 92.9317 417.358 124.834C417.177 131.552 416.998 139.225 417.403 146.662C418.009 164.752 430.013 149.294 437.997 143.953C459.946 129.277 498.157 119.543 508.309 119.114C535.684 117.941 558.606 123.678 585.299 126.355C584.534 122.366 571.834 97.5967 568.673 92.9265C549.234 64.2188 515.778 49.068 494.485 47.0553ZM450.006 161.622C444.273 161.313 439.779 163.862 432.698 165.072C424.953 166.397 427.225 168.663 429.724 169.16C436.261 170.458 453.042 172.831 459.341 174.393C465.13 175.826 454.877 160.619 450.006 161.622C449.689 161.605 450.779 161.462 450.006 161.622ZM536.633 127.224C537.804 126.713 515.414 124.954 491.226 130.266C469.23 135.096 445.601 146.616 439.676 153.976C439.581 153.705 459.798 144.989 482.753 138.739C508.179 131.816 536.603 127.304 536.633 127.224Z" fill="#055961"/>
<path fill-rule="evenodd" clip-rule="evenodd" d="M333.212 149.114C306.269 139.419 320.404 113.643 335.234 102.023C345.85 93.7371 372.665 100.625 374.672 113.767C376.848 128.043 370.405 137.213 360.436 145.909C355.06 150.598 345.228 152.644 333.212 149.114ZM350.855 104.379C319.476 106.024 321.708 156.061 350.386 144.07C368.565 136.469 376.299 105.888 350.855 104.379C348.655 104.494 352.43 104.471 350.855 104.379Z" fill="#055961"/>
<path fill-rule="evenodd" clip-rule="evenodd" d="M350.938 111.385C367.055 112.613 355.331 134.37 345.183 136.476C330.583 139.454 338.026 111.441 350.938 111.385C353.435 111.575 349.358 111.392 350.938 111.385Z" fill="#055961"/>
</svg>
