<svg width="161" height="165" viewBox="0 0 161 165" fill="none" xmlns="http://www.w3.org/2000/svg">
<path fill-rule="evenodd" clip-rule="evenodd" d="M9.02019 14.5551C14.8915 -0.228059 25.6037 4.80285 33.2985 4.39169C42.4416 3.90338 51.4723 3.36749 60.5965 2.5558C69.7557 1.74134 78.1187 3.76987 87.1728 4.41525C98.4764 5.2214 109.192 0.220056 120.45 0.233915C130.397 0.245927 142.362 3.12218 150.142 9.93724C164.514 22.5274 161.671 45.2561 155.522 61.101C150.622 73.7295 143.867 89.2366 146.392 103.252C147.778 110.949 153.422 116.761 151.6 124.864C146.027 149.649 125.343 168.115 100.24 163.888C92.9502 162.661 66.7981 158.794 58.8993 156.381C36.6817 149.596 21.9653 135.228 18.4863 110.646C16.1268 93.97 1.79453 76.8386 0.482857 60.2907C-0.506627 47.8173 4.52797 25.8666 9.02019 14.5551Z" fill="#C1DEE6"/>
<path fill-rule="evenodd" clip-rule="evenodd" d="M111.994 109.074C109.599 108.568 98.2383 107.024 95.6059 101.783C94.7274 100.033 91.6723 90.5395 92.6748 84.2654C93.1169 81.4977 94.7998 78.5069 95.4159 77.3566C97.4914 73.4811 99.8249 62.499 101.208 57.8654C102.708 52.8377 104.068 46.3756 101.736 41.3207C100.58 38.8191 99.5576 37.0479 97.6397 35.1616C92.3831 30.0166 83.9712 27.7673 81.8327 27.8638C75.876 28.1341 70.3835 31.841 67.997 34.6271C62.1248 39.6031 59.5302 51.3945 60.512 57.312C61.2616 61.8352 64.6556 72.6528 67.2551 77.0087C68.2697 78.7088 71.0674 82.3588 71.9967 85.3991C73.3515 91.335 68.4338 100.817 65.6087 102.778C62.2502 105.109 58.3947 107.907 52.5449 109.741C49.2835 110.765 38.5147 114.68 36.3856 122.242C35.8203 124.25 35.038 127.778 35.7767 129.626C35.2177 131.351 31.9338 132.466 30.7349 130.322C28.7394 126.754 30.1764 118.817 33.6746 115.214C36.6058 112.195 57.9637 105.166 62.2946 99.7231C64.8555 96.505 68.1269 91.6164 66.8803 87.5653C65.0425 81.592 61.662 78.2242 59.0606 72.7997C54.5446 63.3809 55.1436 51.5465 56.2858 45.4997C58.5767 33.3687 69.8497 23.0861 80.2856 22.9895C93.4778 22.8666 106.187 29.2567 108.638 46.8325C110.361 59.1797 100.877 78.0514 98.6067 82.6813C96.3626 87.2572 97.3553 98.2596 102.38 101.285C104.652 102.653 107.813 103.278 110.29 104.167C114.356 105.628 126.059 105.363 130.92 116.939C131.953 119.398 134.527 128.045 132.242 130.198C129.671 130.632 128.601 124.654 127.034 120.51C126.453 118.975 125.508 111.93 111.994 109.074Z" fill="black"/>
<path fill-rule="evenodd" clip-rule="evenodd" d="M46.9905 17.0092C48.9312 17.9387 51.6687 24.3823 45.5952 33.3779C39.7005 42.1087 31.5056 46.3404 29.7927 43.6628C28.4981 41.6371 36.2382 37.7611 40.9601 30.7095C44.4381 25.5155 43.2581 15.2227 46.9905 17.0092Z" fill="black"/>
<path fill-rule="evenodd" clip-rule="evenodd" d="M23.6733 32.2822C23.2806 30.7439 28.4963 28.0482 29.7761 25.1849C31.0428 22.3516 30.0902 16.7382 31.8921 17.062C33.4437 17.0897 36.4216 20.6867 33.5403 27.9124C29.7707 35.1784 24.3869 35.0735 23.6733 32.2822Z" fill="black"/>
<path fill-rule="evenodd" clip-rule="evenodd" d="M18.5902 22.706C18.1961 21.8804 19.0148 20.9759 19.4799 19.9138C19.7958 19.1917 19.674 18.2387 19.9616 17.8081C20.939 16.3437 23.1916 16.9322 23.4792 18.3468C23.6459 19.1622 23.539 20.5047 23.0811 21.4836C22.5908 22.5323 21.7186 23.2049 20.9471 23.6475C20.0973 24.1349 19.2108 24.0046 18.5902 22.706Z" fill="black"/>
<path fill-rule="evenodd" clip-rule="evenodd" d="M128.825 9.75584C130.485 8.36575 137.318 8.64617 142.54 18.1906C147.608 27.4532 147.736 36.8802 144.646 37.2951C142.308 37.6092 142.293 28.7578 138.183 21.3131C135.155 15.8294 125.632 12.4288 128.825 9.75584Z" fill="black"/>
<path fill-rule="evenodd" clip-rule="evenodd" d="M132.015 37.9906C130.496 37.6829 130.414 31.6809 128.467 29.2477C126.54 26.8399 121.211 25.271 122.281 23.746C122.982 22.3222 127.43 21.1377 132.496 26.9563C137.21 33.6138 134.768 38.5482 132.015 37.9906Z" fill="black"/>
<path fill-rule="evenodd" clip-rule="evenodd" d="M121.415 38.5124C120.521 38.5166 120.086 37.3644 119.36 36.4701C118.866 35.8635 117.978 35.5595 117.727 35.1063C116.873 33.5633 118.37 31.7367 119.734 32.0868C120.521 32.2887 121.649 32.9734 122.306 33.8252C123.01 34.7358 123.217 35.8362 123.268 36.7431C123.324 37.7433 122.823 38.5055 121.415 38.5124Z" fill="black"/>
</svg>
