<svg width="146" height="151" viewBox="0 0 146 151" fill="none" xmlns="http://www.w3.org/2000/svg">
<path fill-rule="evenodd" clip-rule="evenodd" d="M24.4383 35.4325C21.2762 30.373 24.3943 21.7996 26.3378 18.3394C30.7895 10.4087 38.4151 6.53135 46.8959 4.93061C54.4095 3.51281 61.0425 4.48758 68.5773 4.48019C76.721 4.47233 84.2536 2.26132 92.1798 1.23574C106.466 -0.612625 134.955 -2.92758 141.159 15.1056C145.344 27.2685 140.829 39.6526 137.788 51.5536C134.704 63.6254 135.172 73.1814 139.121 84.8587C141.934 93.1752 144.039 101.526 145.214 110.271C149.29 140.615 110.714 144.551 89.9321 145.869C82.1389 146.362 74.357 145.333 66.6801 145.024C58.4313 144.691 51.1975 149.836 42.8503 150.013C35.0885 150.178 25.3096 148.421 17.7002 146.664C9.96454 144.879 6.54988 138.151 4.21771 130.947C-0.170259 117.39 -2.87629 108.236 5.11643 95.5927C12.84 83.3749 17.5097 69.6288 23.1033 56.3369C25.8556 49.7953 27.192 39.8384 24.4383 35.4325Z" fill="#C1DEE6"/>
<path fill-rule="evenodd" clip-rule="evenodd" d="M99.4019 111.01C97.0068 110.504 85.6457 108.961 83.0134 103.72C82.1349 101.97 79.0797 92.476 80.0822 86.2019C80.5244 83.4343 82.2073 80.4434 82.8233 79.2931C84.8989 75.4176 87.2324 64.4355 88.6151 59.8019C90.115 54.7743 91.4752 48.3121 89.1431 43.2572C87.9878 40.7556 86.965 38.9844 85.0472 37.0982C79.7906 31.9532 71.3787 29.7038 69.2402 29.8003C63.2835 30.0706 57.791 33.7775 55.4045 36.5637C49.5323 41.5396 46.9377 53.331 47.9195 59.2485C48.669 63.7717 52.063 74.5893 54.6626 78.9452C55.6772 80.6453 58.4749 84.2954 59.4042 87.3356C60.759 93.2715 55.8412 102.754 53.0161 104.714C49.6576 107.045 45.8021 109.843 39.9524 111.678C36.691 112.702 25.9221 116.617 23.7931 124.179C23.2278 126.187 22.4455 129.714 23.1842 131.562C22.6252 133.287 19.3413 134.402 18.1424 132.259C16.1468 128.691 17.5839 120.753 21.0821 117.15C24.0133 114.132 45.3712 107.102 49.7021 101.66C52.263 98.4415 55.5343 93.5529 54.2878 89.5018C52.4499 83.5285 49.0694 80.1607 46.4681 74.7362C41.9521 65.3174 42.551 53.483 43.6933 47.4362C45.9841 35.3052 57.2572 25.0226 67.693 24.9261C80.8852 24.8032 93.5944 31.1932 96.0457 48.769C97.768 61.1162 88.2848 79.9879 86.0142 84.6178C83.7701 89.1937 84.7627 100.196 89.7879 103.222C92.0599 104.59 95.2206 105.215 97.6971 106.104C101.764 107.565 113.466 107.299 118.327 118.875C119.361 121.334 121.934 129.982 119.649 132.135C117.078 132.569 116.009 126.591 114.442 122.447C113.861 120.912 112.916 113.867 99.4019 111.01Z" fill="black"/>
<path fill-rule="evenodd" clip-rule="evenodd" d="M116.232 11.6931C117.892 10.303 124.725 10.5834 129.948 20.1278C135.016 29.3904 135.144 38.8175 132.053 39.2323C129.715 39.5465 129.7 30.695 125.59 23.2503C122.562 17.7662 113.039 14.3661 116.232 11.6931Z" fill="black"/>
<path fill-rule="evenodd" clip-rule="evenodd" d="M119.423 39.9269C117.904 39.6192 117.822 33.6172 115.874 31.184C113.948 28.7762 108.619 27.2073 109.689 25.6823C110.39 24.2585 114.838 23.074 119.904 28.8926C124.618 35.5501 122.176 40.4845 119.423 39.9269Z" fill="black"/>
<path fill-rule="evenodd" clip-rule="evenodd" d="M108.823 40.4495C107.928 40.4536 107.494 39.3015 106.768 38.4071C106.274 37.8005 105.386 37.4965 105.135 37.0433C104.281 35.5003 105.778 33.6737 107.142 34.0238C107.928 34.2257 109.057 34.9104 109.714 35.7623C110.417 36.6728 110.625 37.7732 110.676 38.6801C110.732 39.6803 110.231 40.4421 108.823 40.4495Z" fill="black"/>
</svg>
