<svg width="159" height="150" viewBox="0 0 159 150" fill="none" xmlns="http://www.w3.org/2000/svg">
<path fill-rule="evenodd" clip-rule="evenodd" d="M22.8366 11.475C26.2355 11.1757 29.5302 11.2533 32.9318 10.589C40.3031 9.14991 47.1221 5.09007 54.3181 2.90493C66.9558 -0.932697 78.9217 -2.02296 90.0982 6.29398C94.6852 9.70751 98.3892 14.2922 102.59 18.164C108.265 23.3944 114.271 28.2553 120.095 33.2978C130.47 42.2786 142.775 49.5773 152.198 59.6752C158.593 66.5281 159.172 74.1225 158.723 83.2521C158.289 92.0495 157.098 101.682 154.596 110.124C152.171 118.304 146.788 125.399 141.939 132.312C137.452 138.712 131.687 142.914 124.052 143.923C112.881 145.399 101.636 143.773 90.4096 145.773C77.4883 148.074 65.5012 149.642 52.3652 148.86C44.5145 148.392 34.1105 148.802 26.7393 145.494C23.5668 144.072 21.3915 141.003 18.8917 138.681C16.1515 136.134 13.3511 133.782 10.8837 130.925C3.38796 122.245 1.12096 112.83 0.310316 101.43C-0.820266 85.5305 1.31014 69.8206 3.92719 54.1906C5.01823 47.6735 6.87318 41.6036 6.30204 35.4441C5.65092 28.4184 7.03764 21.9595 10.8028 17.0344C10.8024 17.0344 19.3051 11.7859 22.8366 11.475Z" fill="#C1DEE6"/>
<path fill-rule="evenodd" clip-rule="evenodd" d="M106.736 111.091C104.341 110.585 92.9794 109.041 90.3471 103.8C89.4686 102.05 86.4134 92.5566 87.416 86.2825C87.8581 83.5148 89.541 80.524 90.157 79.3737C92.2326 75.4982 94.5661 64.5161 95.9488 59.8825C97.4488 54.8548 98.809 48.3927 96.4768 43.3378C95.3215 40.8362 94.2988 39.065 92.3809 37.1787C87.1243 32.0337 78.7124 29.7844 76.5739 29.8809C70.6172 30.1512 65.1247 33.8581 62.7382 36.6442C56.866 41.6202 54.2714 53.4116 55.2532 59.329C56.0028 63.8522 59.3967 74.6698 61.9963 79.0258C63.0109 80.7259 65.8086 84.3759 66.7379 87.4162C68.0927 93.3521 63.1749 102.834 60.3498 104.795C56.9913 107.126 53.1359 109.924 47.2861 111.759C44.0247 112.782 33.2558 116.698 31.1268 124.259C30.5615 126.267 29.7792 129.795 30.5179 131.643C29.9589 133.368 26.675 134.483 25.4761 132.34C23.4805 128.771 24.9176 120.834 28.4158 117.231C31.347 114.212 52.7049 107.183 57.0358 101.74C59.5967 98.5221 62.868 93.6334 61.6215 89.5824C59.7836 83.6091 56.4031 80.2413 53.8018 74.8167C49.2858 65.398 49.8848 53.5636 51.027 47.5168C53.3178 35.3858 64.5909 25.1032 75.0267 25.0066C88.219 24.8837 100.928 31.2738 103.379 48.8496C105.102 61.1968 95.6185 80.0685 93.3479 84.6984C91.1038 89.2742 92.0965 100.277 97.1216 103.303C99.3936 104.67 102.554 105.295 105.031 106.184C109.097 107.645 120.8 107.38 125.661 118.956C126.694 121.415 129.268 130.062 126.983 132.215C124.412 132.649 123.343 126.671 121.776 122.527C121.195 120.992 120.25 113.947 106.736 111.091Z" fill="black"/>
<path fill-rule="evenodd" clip-rule="evenodd" d="M41.7321 19.0269C43.6728 19.9564 46.4103 26.4 40.3368 35.3956C34.4417 44.126 26.2472 48.3576 24.5343 45.68C23.2397 43.6543 30.9798 39.7783 35.7017 32.7267C39.1793 27.5327 37.9992 17.2399 41.7321 19.0269Z" fill="black"/>
<path fill-rule="evenodd" clip-rule="evenodd" d="M18.4145 34.2993C18.0218 32.761 23.2374 30.0653 24.5172 27.202C25.7839 24.3687 24.8313 18.7553 26.6332 19.0791C28.1849 19.1068 31.1627 22.7038 28.2815 29.9295C24.5123 37.1955 19.1281 37.0906 18.4145 34.2993Z" fill="black"/>
<path fill-rule="evenodd" clip-rule="evenodd" d="M13.3318 24.724C12.9377 23.8985 13.7564 22.9939 14.2215 21.9319C14.5374 21.2098 14.4156 20.2567 14.7032 19.8262C15.6806 18.3617 17.9332 18.9503 18.2208 20.3648C18.3875 21.1802 18.2805 22.5227 17.8226 23.5017C17.3324 24.5503 16.4602 25.223 15.6887 25.6655C14.8385 26.1529 13.9523 26.0226 13.3318 24.724Z" fill="black"/>
</svg>
