<?xml version="1.0" encoding="UTF-8"?>
<svg xmlns="http://www.w3.org/2000/svg" xmlns:xlink="http://www.w3.org/1999/xlink" viewBox="0 0 512 512" width="512px" height="512px">
<g id="surface14070830">
<path style=" stroke:none;fill-rule:nonzero;fill:rgb(1.960784%,34.901962%,38.039216%);fill-opacity:1;" d="M 192 48 C 103.632812 48 32 119.632812 32 208 C 32 234.128906 38.394531 258.71875 49.5 280.5 L 32 368 L 119.5 350.5 C 141.28125 361.605469 165.871094 368 192 368 C 280.367188 368 352 296.367188 352 208 C 352 119.632812 280.367188 48 192 48 Z M 357.71875 148.65625 C 364.359375 167.199219 368 187.175781 368 208 C 368 224.214844 365.96875 240.351562 362.03125 256 L 408 256 L 408 288 L 350.953125 288 C 344.601562 302.199219 336.488281 315.65625 326.71875 328 L 408 328 L 408 360 L 294.0625 360 C 266.796875 380.785156 232.414062 395.003906 191.40625 398.90625 C 220.550781 438.332031 267.214844 464 320 464 C 346.128906 464 370.71875 457.605469 392.5 446.5 L 480 464 L 462.5 376.5 C 473.605469 354.71875 480 330.128906 480 304 C 480 228.648438 427.847656 165.640625 357.71875 148.65625 Z M 104 160 L 280 160 L 280 192 L 104 192 Z M 104 232 L 232 232 L 232 264 L 104 264 Z M 104 232 "/>
</g>
</svg>
