<?xml version="1.0" encoding="UTF-8"?>
<svg xmlns="http://www.w3.org/2000/svg" xmlns:xlink="http://www.w3.org/1999/xlink" viewBox="0 0 512 512" width="512px" height="512px">
<g id="surface14074927">
<path style=" stroke:none;fill-rule:nonzero;fill:rgb(1.960784%,34.901962%,38.039216%);fill-opacity:1;" d="M 226.328125 48 L 211.25 94.078125 C 188.441406 100.367188 167.582031 111.324219 149.765625 125.890625 L 160.46875 102.625 L 141.65625 92.390625 C 135.425781 89.007812 127.710938 90.125 122.703125 95.140625 L 87.9375 129.890625 L 109.90625 173.234375 C 98.664062 193.03125 91.242188 215.28125 88.859375 239.046875 L 80 215.09375 L 59.46875 221.171875 C 52.667969 223.179688 48 229.425781 48 236.515625 L 48 285.671875 L 94.078125 300.75 C 100.367188 323.558594 111.324219 344.417969 125.890625 362.234375 L 102.625 351.53125 L 92.390625 370.34375 C 89.007812 376.574219 90.125 384.289062 95.140625 389.296875 L 129.890625 424.0625 L 173.234375 402.09375 C 193.03125 413.335938 215.28125 420.757812 239.046875 423.140625 L 215.09375 432 L 221.171875 452.53125 C 223.179688 459.332031 229.425781 464 236.515625 464 L 285.671875 464 L 300.75 417.921875 C 323.558594 411.632812 344.417969 400.675781 362.234375 386.109375 L 351.53125 409.375 L 370.34375 419.609375 C 376.574219 422.992188 384.289062 421.875 389.296875 416.859375 L 424.0625 382.109375 L 402.09375 338.765625 C 413.335938 318.96875 420.757812 296.71875 423.140625 272.953125 L 432 296.90625 L 452.53125 290.828125 C 459.332031 288.820312 464 282.574219 464 275.484375 L 464 226.328125 L 417.921875 211.25 C 411.632812 188.441406 400.675781 167.582031 386.109375 149.765625 L 409.375 160.46875 L 419.609375 141.65625 C 422.992188 135.425781 421.875 127.710938 416.859375 122.703125 L 382.109375 87.9375 L 338.765625 109.90625 C 318.96875 98.664062 296.71875 91.242188 272.953125 88.859375 L 296.90625 80 L 290.828125 59.46875 C 288.820312 52.667969 282.574219 48 275.484375 48 Z M 256 128 C 326.695312 128 384 185.304688 384 256 C 384 326.6875 326.695312 384 256 384 C 185.304688 384 128 326.6875 128 256 C 128 185.304688 185.304688 128 256 128 Z M 256 160 C 202.984375 160 160 202.984375 160 256 C 160 309.015625 202.984375 352 256 352 C 309.015625 352 352 309.015625 352 256 C 352 202.984375 309.015625 160 256 160 Z M 256 224 C 273.671875 224 288 238.328125 288 256 C 288 273.671875 273.671875 288 256 288 C 238.328125 288 224 273.671875 224 256 C 224 238.328125 238.328125 224 256 224 Z M 256 224 "/>
</g>
</svg>
