<?xml version="1.0" encoding="UTF-8"?>
<svg xmlns="http://www.w3.org/2000/svg" xmlns:xlink="http://www.w3.org/1999/xlink" viewBox="0 0 512 512" width="512px" height="512px">
<g id="surface14056960">
<path style=" stroke:none;fill-rule:nonzero;fill:rgb(1.960784%,34.901962%,38.039216%);fill-opacity:1;" d="M 72 80 C 54.328125 80 40 94.328125 40 112 L 40 384 C 40 401.671875 54.328125 416 72 416 L 286.3125 416 L 280 496 L 374.921875 416 L 440 416 C 457.671875 416 472 401.671875 472 384 L 472 112 C 472 94.328125 457.671875 80 440 80 Z M 256 136 C 273.671875 136 288 150.328125 288 168 C 288 185.671875 273.671875 200 256 200 C 238.328125 200 224 185.671875 224 168 C 224 150.328125 238.328125 136 256 136 Z M 248 232 L 280 232 L 280 344 L 232 344 L 232 248 Z M 248 232 "/>
</g>
</svg>
