<?xml version="1.0" encoding="UTF-8"?>
<svg xmlns="http://www.w3.org/2000/svg" xmlns:xlink="http://www.w3.org/1999/xlink" viewBox="0 0 512 512" width="512px" height="512px">
<g id="surface14067174">
<path style=" stroke:none;fill-rule:nonzero;fill:rgb(1.960784%,34.901962%,38.039216%);fill-opacity:1;" d="M 69.46875 55.609375 C 56.09375 55.597656 48 56 48 56 L 48 105.03125 C 28.078125 108.648438 16 112 16 112 L 16 448 C 16 448 110.894531 419.710938 216 438.578125 L 216 456 C 216 456 232 464 256 464 C 280 464 296 456 296 456 L 296 438.578125 C 401.105469 419.710938 496 448 496 448 L 496 112 C 496 112 483.921875 108.648438 464 105.03125 L 464 56 C 464 56 334.40625 49.550781 256 89.09375 C 197.195312 59.4375 109.59375 55.648438 69.46875 55.609375 Z M 72 88 C 216 88 256 120 256 120 C 256 120 296 88 440 88 L 440 384 C 296 384 256 416 256 416 C 256 416 216 384 72 384 Z M 336.171875 144 C 321.804688 144 312 154.765625 312 167.84375 C 312 181.8125 321.804688 192 336.171875 192 C 348.445312 192 360 181.8125 360 167.84375 C 360 154.765625 348.445312 144 336.171875 144 Z M 352 208 L 296 216 L 296 240 L 320 240 L 320 312 L 288 320 L 288 344 L 384 344 L 384 320 L 352 312 Z M 352 208 "/>
</g>
</svg>
