<svg xmlns="http://www.w3.org/2000/svg" width="43.003" height="42.5" viewBox="0 0 43.003 42.5">
  <g id="head_mix" transform="translate(-11.097)">
    <g id="Group_7" data-name="Group 7">
      <g id="Group_6" data-name="Group 6">
        <path id="Path_14" data-name="Path 14" d="M54.1,27.9a9.15,9.15,0,0,1-2.7,6.5l-1.2-1.2a7.321,7.321,0,0,0,2.2-5.3,7.558,7.558,0,0,0-2.2-5.3l1-1.3A8.831,8.831,0,0,1,54.1,27.9Z" fill="#055961"/>
        <path id="Path_15" data-name="Path 15" d="M50.8,27.9a5.852,5.852,0,0,1-2.1,4.5l-1.2-1.2a4.318,4.318,0,0,0,1.7-3.3,4.164,4.164,0,0,0-1.7-3.3l1.2-1.2A5.852,5.852,0,0,1,50.8,27.9Z" fill="#055961"/>
        <path id="Path_16" data-name="Path 16" d="M47.5,27.9a2.494,2.494,0,0,1-1.7,2.4L45,28.8a.8.8,0,0,0,0-1.6l.8-1.5A2.275,2.275,0,0,1,47.5,27.9Z" fill="#055961"/>
      </g>
    </g>
    <path id="Path_17" data-name="Path 17" d="M42.5,18.7c-1-2,.4-3.2.5-4.2a11.665,11.665,0,0,0-3.3-10A15.325,15.325,0,0,0,28.4,0C20.6.1,17.5,2.5,15.1,5.1c-5,5.5-3.9,10.4-3.9,10.4.1,2.9,4.1,8.1,4.1,8.1,3.2,4.6,1.6,8.1,1.6,8.1,6.4,1.4,11.6,10.8,11.6,10.8.2-1.4,3.3-7.2,3.3-7.2,1.3-1.6,3.4-1,4.6-.9,3.3.4,4.2-.6,4.2-.6.7-.4.4-2.3.4-2.3a1.888,1.888,0,0,1,.4-1.8c.7-1,.3-1.5.3-1.5-.2-.3-.1-.4-.1-.4.8-.3.9-.7.9-.7V25.6c-.1-1,.3-1.1.3-1.1,1.8,0,1.8-1.2,1.8-1.2C44.7,22.6,42.5,18.7,42.5,18.7Zm-2.6-8.4a4.03,4.03,0,0,1-1.4,2.3c-2.2,2.2-6.3.3-9.3,2.5-1.2.9-.7,4.3-3.8,4.2h-.6c-1.3,1.4-1.4,3.2-4.1,3.1a7.332,7.332,0,0,1-7-7.5v-.4c0-1.1.2-4.3,3.4-7.9,2-2.2,4.5-4.4,11.8-4.4A13,13,0,0,1,38.4,6,4.121,4.121,0,0,1,39.9,10.3Z" fill="#055961"/>
  </g>
</svg>
