<svg xmlns="http://www.w3.org/2000/svg" width="33.506" height="42.5" viewBox="0 0 33.506 42.5">
  <path id="head_senso" d="M47.2,18.7c-1-2,.4-3.2.5-4.2a11.665,11.665,0,0,0-3.3-10A15.188,15.188,0,0,0,33.1,0C25.3.1,22.2,2.5,19.8,5.1c-5,5.5-3.9,10.4-3.9,10.4.1,2.9,4.1,8.1,4.1,8.1,3.2,4.6,1.6,8.1,1.6,8.1C28,33.1,33.2,42.5,33.2,42.5c.2-1.4,3.3-7.2,3.3-7.2,1.3-1.6,3.4-1,4.6-.9,3.3.4,4.2-.6,4.2-.6.7-.4.4-2.3.4-2.3a1.888,1.888,0,0,1,.4-1.8c.7-1,.3-1.5.3-1.5-.2-.3-.1-.4-.1-.4.8-.3.9-.7.9-.7V25.6c-.1-1,.3-1.1.3-1.1,1.8,0,1.8-1.2,1.8-1.2C49.4,22.6,47.2,18.7,47.2,18.7Zm-2.5-8.4a4.03,4.03,0,0,1-1.4,2.3c-2.2,2.2-6.3.3-9.3,2.5-1.2.9-.7,4.3-3.8,4.2h-.6c-1.3,1.4-1.4,3.2-4.1,3.1a7.332,7.332,0,0,1-7-7.5v-.4c0-1.1.2-4.3,3.4-7.9,2-2.2,4.5-4.4,11.8-4.4A13,13,0,0,1,43.2,6C44.4,7.1,44.9,8,44.7,10.3Z" transform="translate(-15.797)" fill="#055961"/>
</svg>
