<svg xmlns="http://www.w3.org/2000/svg" width="127.989" height="127.403" viewBox="0 0 127.989 127.403">
  <g id="head_moto" transform="translate(0.189 0.003)">
    <g id="Group_9" data-name="Group 9">
      <g id="Group_8" data-name="Group 8">
        <path id="Path_18" data-name="Path 18" d="M127.8,83.8a27.434,27.434,0,0,1-8,19.4l-3.5-3.5a22.453,22.453,0,0,0-.1-31.9l3-4A27.775,27.775,0,0,1,127.8,83.8Z" fill="#055961"/>
        <path id="Path_19" data-name="Path 19" d="M117.8,83.8a17.339,17.339,0,0,1-6.4,13.5l-3.6-3.6a12.5,12.5,0,0,0,0-20l3.6-3.6A18.221,18.221,0,0,1,117.8,83.8Z" fill="#055961"/>
        <path id="Path_20" data-name="Path 20" d="M107.8,83.8a7.445,7.445,0,0,1-5.2,7.1l-2.3-4.6a2.5,2.5,0,1,0,0-5l2.3-4.6A7.539,7.539,0,0,1,107.8,83.8Z" fill="#055961"/>
      </g>
    </g>
    <path id="Path_21" data-name="Path 21" d="M100.4,69.8s.1,3.6-5.4,3.7c0,0-1.4.2-1,3.2l.1,4.4s-.2,1.3-2.6,2.1c0,0-.5.5.2,1.3,0,0,1.3,1.4-.9,4.5-.8,1.1-2.1,2.5-1.3,5.4,0,0,1,5.6-1.2,6.9,0,0-2.5,3-12.5,1.7-3.5-.4-10-2.1-13.8,2.7,0,0-9.2,17.5-9.9,21.7,0,0-15.7-28-34.9-32.3,0,0,4.7-10.5-4.8-24.2C12.4,70.9.5,55.2.1,46.5c0,0-3.2-14.6,11.7-31.1C18.9,7.6,28.4.2,51.7,0c9.1-.1,23,2.1,33.9,13.5,6.6,6.9,11.4,15.7,10,29.9-.3,3.1-4.7,6.7-1.6,12.7C94,56.1,100.6,67.9,100.4,69.8Z" fill="#055961"/>
  </g>
</svg>
