<svg width="41" height="39" viewBox="0 0 41 39" fill="none" xmlns="http://www.w3.org/2000/svg">
<path d="M4.75227 7.27876L7.38 4.65394L10.7159 8.00477L8.08818 10.6296L4.75227 7.27876ZM18.6364 5.58472H22.3636V0H18.6364V5.58472ZM0 22.3389H5.59091V18.6158H0V22.3389ZM22.3636 35.2768V27.905L24.2273 26.8253C26.5382 25.485 27.9545 23.0277 27.9545 20.3842C27.9545 16.2702 24.6186 12.938 20.5 12.938C16.3814 12.938 13.0455 16.2702 13.0455 20.3842C13.0455 23.0277 14.4805 25.485 16.7727 26.8253L18.6364 27.905V35.2768H22.3636ZM26.0909 39H14.9091V30.0458C11.5732 28.1098 9.31818 24.5169 9.31818 20.3842C9.31818 14.2224 14.3314 9.2148 20.5 9.2148C26.6686 9.2148 31.6818 14.2224 31.6818 20.3842C31.6818 24.5169 29.4268 28.1098 26.0909 30.0458V39ZM35.4091 22.3389H41V18.6158H35.4091V22.3389ZM30.2655 7.98616L33.6014 4.63532L36.2291 7.26014L32.8745 10.5924L30.2655 7.98616Z" fill="#055961"/>
</svg>
