<?xml version="1.0" encoding="utf-8"?>
<!-- Generator: Adobe Illustrator 18.0.0, SVG Export Plug-In . SVG Version: 6.00 Build 0)  -->
<!DOCTYPE svg PUBLIC "-//W3C//DTD SVG 1.1//EN" "http://www.w3.org/Graphics/SVG/1.1/DTD/svg11.dtd">
<svg version="1.1" id="Warstwa_1" xmlns="http://www.w3.org/2000/svg" xmlns:xlink="http://www.w3.org/1999/xlink" x="0px" y="0px"
	 viewBox="0 0 34 36.9" enable-background="new 0 0 34 36.9" xml:space="preserve">
<g>
	<g>
		<circle fill="#FFFFFF" cx="15.1" cy="7.8" r="5.2"/>
		<path fill="#FFFFFF" d="M25.5,20.7c0,0-2.1-5.5-6.3-5.6l0,0h-8.4c-4.2,0-6.3,7.3-6.3,7.3l-1,5.2l3.1,1c0.3-4.2,1-5.2,1-5.2
			s1.4-2.8,2.1-3.1l-0.4,9.1c1.9,0.9,4,1.4,6.2,1.4l1.5-0.1v-5.4h4.8l0-4.7H25.5z"/>
	</g>
	<polygon fill="#FFFFFF" points="31.9,27.3 26.9,27.3 26.9,22.4 23.7,22.4 23.7,27.3 18.8,27.3 18.8,30.5 23.7,30.5 23.7,35.4 
		26.9,35.4 26.9,30.5 31.9,30.5 	"/>
</g>
</svg>
