<svg width="38" height="36" viewBox="0 0 38 36" fill="none" xmlns="http://www.w3.org/2000/svg">
<path d="M0.538452 11.8426V24.1574H8.74358L19 34.4196V1.58039L8.74358 11.8426H0.538452ZM14.8974 11.4937V24.5063L10.4461 20.0525H4.64102V15.9475H10.4461L14.8974 11.4937ZM28.2308 18C28.2308 14.3672 26.1385 11.2474 23.1026 9.72862V26.2509C26.1385 24.7526 28.2308 21.6328 28.2308 18ZM23.1026 0V4.22805C29.0308 5.99316 33.359 11.4937 33.359 18C33.359 24.5063 29.0308 30.0068 23.1026 31.7719V36C31.3282 34.1323 37.4615 26.7845 37.4615 18C37.4615 9.21551 31.3282 1.86773 23.1026 0Z" fill="#055961"/>
</svg>
